<svg width="60" height="60" viewBox="0 0 60 60" fill="none" xmlns="http://www.w3.org/2000/svg">
<circle cx="30" cy="30" r="30" fill="#E87000"/>
<path d="M28.8907 26.7375L23.8991 26.7375C23.8529 26.7375 23.7605 26.7376 23.7142 26.6826L23.668 26.6826C23.6218 26.6826 23.5756 26.6276 23.5294 26.6276C23.4831 26.6276 23.4369 26.5727 23.4369 26.5177C23.3907 26.4628 23.3907 26.4628 23.3445 26.4078C23.2983 26.3529 23.2983 26.2979 23.2521 26.243C23.2521 26.188 23.2058 26.1331 23.2058 26.0781C23.2058 26.0781 23.2058 26.0781 23.2058 26.0232C23.2058 25.9682 23.2058 25.9682 23.2058 25.9133L23.2058 25.8583C23.2058 25.8583 23.2058 25.8583 23.2058 25.8034C23.2058 25.7484 23.2058 25.6935 23.2058 25.5836C23.2058 25.5286 23.2521 25.4187 23.2983 25.3638L26.9033 18.2203L29.3529 13.3846C29.3991 13.2747 29.4915 13.1648 29.6302 13.0549C29.6764 13.0549 29.6764 13 29.7226 13L29.7689 13C29.8151 13 29.8151 13 29.8613 13L29.9075 13C29.9537 13 29.9537 13 30 13C30.0462 13 30.0462 13 30.0924 13L30.1386 13C30.1848 13 30.1848 13 30.231 13L30.2773 13C30.3235 13 30.3697 13.0549 30.3697 13.0549C30.4621 13.1099 30.5546 13.2198 30.647 13.3846L33.0966 18.2203L36.7016 25.3638C36.7478 25.4187 36.7478 25.5286 36.7941 25.5836C36.7941 25.6385 36.7941 25.6935 36.7941 25.8034C36.7941 25.8034 36.7941 25.8034 36.7941 25.8583L36.7941 25.9133C36.7941 25.9682 36.7941 25.9682 36.7941 26.0232C36.7941 26.0232 36.7941 26.0232 36.7941 26.0781C36.7941 26.1331 36.7478 26.188 36.7478 26.243C36.7478 26.2979 36.7016 26.3529 36.6554 26.4078C36.6092 26.4628 36.6092 26.5177 36.563 26.5177C36.5168 26.5727 36.5168 26.5727 36.4705 26.6276C36.4243 26.6826 36.3781 26.6826 36.3319 26.6826L36.2857 26.6826C36.2394 26.6826 36.147 26.7375 36.1008 26.7375L31.1092 26.7375L28.8907 26.7375ZM29.8613 15.6926C29.8613 15.6926 29.8151 15.6926 29.8151 15.7475L25.3781 24.5395C25.3781 24.5945 25.3781 24.5945 25.3781 24.6494C25.3781 24.6494 25.3781 24.6494 25.3781 24.7044C25.3781 24.7593 25.4243 24.7593 25.4243 24.7593L25.4705 24.8143L34.3445 24.8143C34.3907 24.8143 34.3907 24.8143 34.3907 24.7593L34.4369 24.7044C34.4369 24.7044 34.4369 24.7044 34.4369 24.6494C34.4369 24.5945 34.4369 24.5945 34.4369 24.5395L30 15.7475L29.9537 15.6926L29.9075 15.6926L29.8613 15.6926Z" fill="#EEEADE" stroke="#EEEADE" stroke-width="1.2"/>
<path d="M28.2857 45.4705L20.5714 45.4705C20.5 45.4705 20.3571 45.4705 20.2857 45.3905L20.2143 45.3905C20.1429 45.3905 20.0714 45.3106 20 45.3106C19.9286 45.3106 19.8571 45.2307 19.8571 45.1507C19.7857 45.0708 19.7857 45.0708 19.7143 44.9909C19.6429 44.911 19.6429 44.831 19.5714 44.7511C19.5714 44.6712 19.5 44.5913 19.5 44.5113C19.5 44.5113 19.5 44.5113 19.5 44.4314C19.5 44.3515 19.5 44.3515 19.5 44.2715L19.5 44.1916C19.5 44.1916 19.5 44.1916 19.5 44.1117C19.5 44.0318 19.5 43.9518 19.5 43.792C19.5 43.7121 19.5714 43.5522 19.6429 43.4723L25.2143 33.0817L29 26.0481C29.0714 25.8882 29.2143 25.7283 29.4286 25.5685C29.5 25.5685 29.5 25.4886 29.5714 25.4886L29.6429 25.4886C29.7143 25.4886 29.7143 25.4886 29.7857 25.4886L29.8571 25.4886C29.9286 25.4886 29.9286 25.4886 30 25.4886C30.0714 25.4886 30.0714 25.4886 30.1429 25.4886L30.2143 25.4886C30.2857 25.4886 30.2857 25.4886 30.3571 25.4886L30.4286 25.4886C30.5 25.4886 30.5714 25.5685 30.5714 25.5685C30.7143 25.6484 30.8571 25.8083 31 26.0481L34.7857 33.0817L40.3571 43.4723C40.4286 43.5522 40.4286 43.7121 40.5 43.792C40.5 43.8719 40.5 43.9518 40.5 44.1117C40.5 44.1117 40.5 44.1117 40.5 44.1916L40.5 44.2715C40.5 44.3515 40.5 44.3515 40.5 44.4314C40.5 44.4314 40.5 44.4314 40.5 44.5113C40.5 44.5913 40.4286 44.6712 40.4286 44.7511C40.4286 44.831 40.3571 44.911 40.2857 44.9909C40.2143 45.0708 40.2143 45.1507 40.1429 45.1507C40.0714 45.2307 40.0714 45.2307 40 45.3106C39.9286 45.3905 39.8571 45.3905 39.7857 45.3905L39.7143 45.3905C39.6429 45.3905 39.5 45.4705 39.4286 45.4705L31.7143 45.4705L28.2857 45.4705ZM29.7857 29.405C29.7857 29.405 29.7143 29.405 29.7143 29.4849L22.8571 42.2734C22.8571 42.3533 22.8571 42.3533 22.8571 42.4332C22.8571 42.4332 22.8571 42.4332 22.8571 42.5131C22.8571 42.5931 22.9286 42.5931 22.9286 42.5931L23 42.673L36.7143 42.673C36.7857 42.673 36.7857 42.673 36.7857 42.5931L36.8571 42.5131C36.8571 42.5131 36.8571 42.5131 36.8571 42.4332C36.8571 42.3533 36.8571 42.3533 36.8571 42.2734L30 29.4849L29.9286 29.405L29.8571 29.405L29.7857 29.405Z" fill="#EEEADE" stroke="#EEEADE" stroke-width="0.5"/>
</svg>
