<svg width="36" height="14" viewBox="0 0 36 14" fill="none" xmlns="http://www.w3.org/2000/svg">
<path d="M25.162 7.97959V12.3878C25.162 12.4286 25.162 12.5102 25.2013 12.551V12.5918C25.2013 12.6327 25.2407 12.6735 25.2407 12.7143C25.2407 12.7551 25.28 12.7959 25.3194 12.7959C25.3587 12.8367 25.3587 12.8367 25.3981 12.8776C25.4374 12.9184 25.4768 12.9184 25.5162 12.9592C25.5555 12.9592 25.5949 13 25.6342 13C25.6342 13 25.6342 13 25.6736 13C25.7129 13 25.7129 13 25.7523 13H25.7916C25.7916 13 25.7916 13 25.831 13C25.8703 13 25.9097 13 25.9884 13C26.0277 13 26.1064 12.9592 26.1458 12.9184L31.2615 9.73469L34.7245 7.57143C34.8032 7.53061 34.8819 7.44898 34.9606 7.32653C34.9606 7.28571 35 7.28571 35 7.2449V7.20408C35 7.16327 35 7.16327 35 7.12245V7.08163C35 7.04082 35 7.04082 35 7C35 6.95918 35 6.95918 35 6.91837V6.87755C35 6.83673 35 6.83673 35 6.79592V6.7551C35 6.71429 34.9606 6.67347 34.9606 6.67347C34.9213 6.59184 34.8425 6.5102 34.7245 6.42857L31.2615 4.26531L26.1458 1.08163C26.1064 1.04082 26.0277 1.04082 25.9884 1C25.949 1 25.9097 1 25.831 1C25.831 1 25.831 1 25.7916 1H25.7523C25.7129 1 25.7129 1 25.6736 1C25.6736 1 25.6736 1 25.6342 1C25.5949 1 25.5555 1.04082 25.5162 1.04082C25.4768 1.04082 25.4374 1.08163 25.3981 1.12245C25.3587 1.16327 25.3194 1.16327 25.3194 1.20408C25.28 1.2449 25.28 1.2449 25.2407 1.28571C25.2013 1.32653 25.2013 1.36735 25.2013 1.40816V1.44898C25.2013 1.4898 25.162 1.57143 25.162 1.61224V6.02041V7.97959ZM33.0717 7.12245C33.0717 7.12245 33.0717 7.16327 33.0324 7.16327L26.7361 11.0816C26.6967 11.0816 26.6967 11.0816 26.6574 11.0816C26.6574 11.0816 26.6574 11.0816 26.618 11.0816C26.5787 11.0816 26.5787 11.0408 26.5787 11.0408L26.5393 11V3.16327C26.5393 3.12245 26.5393 3.12245 26.5787 3.12245L26.618 3.08163C26.618 3.08163 26.618 3.08163 26.6574 3.08163C26.6967 3.08163 26.6967 3.08163 26.7361 3.08163L33.0324 7L33.0717 7.04082V7.08163V7.12245Z" fill="#1C9197" stroke="#1C9197"/>
<path d="M25.4375 7.77551H1.66898C1.27546 7.77551 1 7.44898 1 7.08163C1 6.67347 1.31481 6.38776 1.66898 6.38776H25.4375V7.77551Z" fill="#1C9197" stroke="#1C9197"/>
</svg>
