<svg width="90" height="90" viewBox="0 0 90 90" fill="none" xmlns="http://www.w3.org/2000/svg">
<circle cx="45" cy="45" r="44" stroke="#E87000" stroke-width="2"/>
<ellipse cx="44.8176" cy="44.0014" rx="12.4319" ry="12.6535" transform="rotate(0.118879 44.8176 44.0014)" fill="#E0DCD0" stroke="#1C9197" stroke-width="0.4"/>
<path d="M51.3008 55.4703L51.776 55.1872C56.1177 52.3866 58.5703 46.9551 57.8916 41.6716C57.6137 39.5834 56.9718 37.6048 55.8226 36.0357C53.8241 33.0407 50.162 31.0365 46.2572 30.7867C43.2691 30.6347 40.0248 31.494 37.2523 33.1453C34.527 34.8759 33.1245 38.2868 32.5968 40.1036C32.1332 41.6675 31.8752 43.2163 31.9492 44.7819C32.0786 48.7829 33.9642 52.4891 37.0245 54.7443C40.9358 57.8878 46.8648 58.1125 51.3008 55.4703ZM33.2773 44.8495C33.2184 43.4894 33.4444 42.067 33.8759 40.6295C34.7391 37.7544 36.1853 35.4979 37.928 34.4599L38.1657 34.3184C40.7005 32.8086 43.5016 32.1061 46.1576 32.2411C49.6041 32.442 52.9189 34.2237 54.6815 36.8226C55.61 38.2013 56.2368 39.9743 56.4995 41.8568C57.0536 46.5707 54.8555 51.5287 50.9891 54.0462C47.0435 56.6109 41.4938 56.4823 37.8184 53.7349C35.1052 51.7022 33.4556 48.392 33.2773 44.8495Z" fill="#1C9197" stroke="#1C9197" stroke-width="0.4"/>
<path d="M35.8591 82.6968C36.8248 82.3363 37.4923 81.2948 37.4958 80.2196C37.5464 79.2235 37.2179 78.1314 36.8573 77.1657L32.9097 65.6732C32.6906 64.9451 32.4244 64.1378 32.079 63.3777C35.564 66.3458 40.4614 67.7215 45.1264 67.6259C52.3058 67.4277 59.3373 64.0981 63.7196 58.4831C66.7047 54.6661 68.3331 49.8327 68.3488 44.9942C68.4332 43.3342 68.344 41.5629 68.0172 39.9332C68.3323 40.282 68.6003 40.5517 68.9154 40.9006L69.0098 41.059C71.1347 44.0861 73.3068 47.1923 75.4317 50.2193C76.4073 51.6772 77.8094 53.3104 79.6127 53.0949C81.3368 52.9265 82.4189 50.7795 81.9186 49.0385C81.8411 48.5481 81.7316 48.184 81.4957 47.788C80.9295 46.8374 80.1408 46.234 79.3521 45.6306C79.1314 45.4401 78.8314 45.2968 78.6106 45.1064C75.1408 42.3438 71.6424 38.6324 68.3969 34.9851C68.1761 34.7946 68.161 34.589 68.1458 34.3834C67.9757 33.1969 67.2039 32.2615 66.3849 31.2469C61.8637 25.9984 57.7991 21.3364 53.1481 17.1311C52.9745 17.0199 52.7537 16.8294 52.6122 16.5918C52.1235 16.1316 51.5876 15.5923 50.9405 15.2265C50.4197 14.8928 49.8349 14.8118 49.3125 15.0157C48.79 15.2196 48.3299 15.7083 48.2489 16.2931C48.0078 17.5098 48.161 19.0283 48.4744 19.9148C48.6311 20.3581 48.7406 20.7221 48.9765 21.1182C43.7926 20.3425 38.3337 21.4475 33.7393 24.1841L33.6601 24.2312C29.0656 26.9678 25.3811 31.9526 23.8132 37.6084C23.589 38.4932 23.3647 39.3779 23.2197 40.2155C22.3501 40.1969 21.4164 40.4311 20.4659 40.9973C18.9136 41.8145 17.8483 43.6295 17.6206 45.5895C17.5094 45.7631 17.4453 46.0159 17.5076 46.3007C17.489 47.1703 17.676 48.0248 17.863 48.8793C18.237 50.5882 19.2126 52.0461 20.426 53.3624C21.86 54.8693 23.8806 55.9194 25.1242 57.647C26.0847 58.8992 26.4436 60.4026 26.8816 61.8587C27.7729 64.9766 28.7585 68.253 29.6649 71.5765C30.3371 73.9664 31.0565 76.4354 31.8079 78.7781C32.0893 79.791 32.4178 80.8831 33.0953 81.6601C33.6935 82.4843 34.8934 83.0574 35.8591 82.6968ZM49.5921 16.5662C49.6562 16.3134 49.7826 16.3454 49.8618 16.2983C49.941 16.2511 50.0674 16.2831 50.1938 16.3151C50.7145 16.6489 51.2032 17.109 51.6919 17.5692C51.9127 17.7596 52.1334 17.9501 52.2278 18.1085C56.8317 22.2346 60.8963 26.8966 65.3703 32.0658C66.0477 32.8428 66.7251 33.6198 66.7857 34.4423C66.8632 34.9327 67.0671 35.4552 67.3822 35.8041C70.6278 39.4514 74.1734 43.242 77.7696 46.0366C77.9903 46.227 78.2903 46.3703 78.5111 46.5608C79.2526 47.085 79.8677 47.5772 80.2923 48.2901C80.7641 49.0822 80.6814 50.2046 79.9685 50.6293C79.414 50.9596 78.6084 50.6881 78.1669 50.3072C77.599 49.8943 77.1744 49.1813 76.6705 48.5156L76.5762 48.3572C74.2322 44.6021 70.9715 40.7491 67.1883 37.1001C66.9675 36.9096 66.7468 36.7191 66.6052 36.4815C66.1165 36.0214 65.5638 35.814 64.8526 35.701C63.8094 35.5712 62.8792 34.7301 61.9489 33.889C57.4714 29.795 54.0994 26.1156 51.2651 22.438C51.0763 22.1211 50.8556 21.9307 50.6669 21.6138C50.2422 20.9009 49.944 20.22 49.6778 19.4127C49.5851 18.7167 49.3679 17.451 49.5921 16.5662ZM24.998 37.9759C26.4697 32.6993 30.011 28.0145 34.2414 25.3874L34.3206 25.3402C38.915 22.6037 44.5475 21.6099 49.7466 22.5912C49.8881 22.8289 50.0297 23.0665 50.2504 23.257C53.1792 27.093 56.6304 30.7252 61.1551 34.8985C62.2589 35.8508 63.489 36.8351 64.8643 36.9819C65.2434 37.078 65.5434 37.2213 65.8434 37.3645C66.017 37.4758 66.1585 37.7134 66.3321 37.8247C67.0666 40.4993 67.3579 43.3307 66.9852 46.1283C66.2043 52.9251 61.9146 59.2362 55.832 62.5372C49.7493 65.8382 42.1907 65.9403 36.0497 62.8371C33.4763 61.5796 31.1895 59.7221 29.2836 57.4232C28.9702 56.5367 28.9096 55.7142 28.9923 54.5918C29.0092 54.2598 29.0581 53.8014 29.1862 53.2958C29.2031 52.9638 29.2992 52.5846 29.2841 52.379C29.5758 50.1662 29.6789 47.6366 28.7859 45.0563C28.2686 43.6473 27.138 41.2085 24.8798 40.3L24.5006 40.2039C24.5815 39.6191 24.8529 38.8135 24.998 37.9759ZM20.8888 42.2478L21.0472 42.1534C22.2826 41.5249 23.4691 41.3548 24.4482 41.7375C25.7273 42.2634 26.9086 43.7062 27.5505 45.6848C28.3019 48.0275 28.1837 50.3515 27.924 52.4379C27.9392 52.6435 27.7959 52.9435 27.779 53.2755C27.6509 53.7811 27.5699 54.3659 27.553 54.6979C27.4855 56.0259 27.5933 56.9276 27.969 58.0989L28.0162 58.1781C28.1257 58.5421 28.2352 58.9062 28.4239 59.223C29.1602 61.3601 29.9757 63.45 30.7912 65.5398L31.3708 67.2336C32.7187 70.9381 34.0195 74.5633 35.3202 78.1886C35.4769 78.6318 35.8846 79.6767 35.5509 80.1975C35.4076 80.4975 35.0115 80.7334 34.7267 80.7957C34.4419 80.858 34.3475 80.6996 34.3004 80.6204C33.9852 80.2715 33.4983 79.2737 33.1074 77.8968C31.7781 73.3227 30.4168 68.875 29.0875 64.301C28.7118 63.1296 28.3681 61.8319 27.9924 60.6606C27.711 59.6477 27.4297 58.6348 27.1163 57.7483C26.631 56.2129 25.5272 55.2606 24.4706 54.3875C24.1235 54.165 23.8555 53.8953 23.5876 53.6256C21.2384 51.4834 18.827 49.0563 18.8997 46.1154C18.9673 44.7874 19.5421 43.0499 20.8888 42.2478ZM16.8835 33.9017C16.5835 33.7585 16.1403 33.9152 15.997 34.2151C15.8537 34.5151 16.0104 34.9584 16.3104 35.1016C17.7159 35.6596 19.2327 36.044 20.7343 36.2228C20.8607 36.2548 21.0191 36.1605 21.0983 36.1133C21.2567 36.0189 21.4472 35.7981 21.432 35.5925C21.4489 35.2605 21.213 34.8645 20.8018 34.8948C19.4738 34.8272 18.1306 34.5541 16.8835 33.9017ZM21.9935 33.1118L22.1519 33.0174C22.4216 32.7495 22.3913 32.3383 22.1233 32.0686L18.8288 28.8797C18.5609 28.61 18.1497 28.6403 17.88 28.9082C17.6103 29.1762 17.6406 29.5874 17.9086 29.8571L21.2351 32.9196C21.4238 33.2365 21.7558 33.2533 21.9935 33.1118ZM21.5914 25.4099L23.9487 29.9082C24.1375 30.225 24.5638 30.4004 24.8807 30.2116C25.1976 30.0229 25.2937 29.6437 25.1049 29.3269L22.7476 24.8285C22.5589 24.5117 22.1325 24.3364 21.8156 24.5251C21.4516 24.6346 21.3555 25.0138 21.5914 25.4099Z" fill="#1C9197" stroke="#1C9197" stroke-width="0.4"/>
<path d="M41.6654 42.5362L41.8238 42.4419C42.2199 42.2059 42.4744 41.7324 42.5233 41.274C42.5722 40.8156 42.3684 40.2931 42.0061 39.865C41.6117 39.5633 41.1382 39.3088 40.6949 39.4655C40.3309 39.575 40.014 39.7637 39.7915 40.1109L39.7123 40.158C39.3803 40.1412 39.0314 40.4563 39.0145 40.7883C38.9167 41.7051 39.5621 42.6085 40.5261 42.7855C40.7789 42.8496 41.2693 42.7721 41.6654 42.5362ZM40.8802 40.8576L41.0066 40.8896L41.1009 41.048C41.1481 41.1272 41.0689 41.1744 40.9897 41.2216L40.8481 40.984C40.7689 41.0311 40.801 40.9047 40.8802 40.8576ZM42.6994 50.3983C42.7938 50.5567 42.9202 50.5888 42.9674 50.668L43.0938 50.7C43.3937 50.8433 43.8522 50.8922 44.2162 50.7827L44.4538 50.6412C44.8499 50.4053 45.0724 50.0581 45.0893 49.7261C45.1382 49.2677 44.9343 48.7452 44.54 48.4435C44.1456 48.1418 43.5608 48.0609 43.1648 48.2968C43.0063 48.3911 42.8159 48.6119 42.831 48.8175C42.5631 48.5478 42.0727 48.6253 41.8502 48.9725C41.5805 49.2404 41.658 49.7308 42.0051 49.9533L42.6994 50.3983ZM46.3862 39.8317C46.4485 40.1165 46.6373 40.4334 46.9052 40.7031C47.2524 40.9256 47.7108 40.9745 48.154 40.8178L48.2332 40.7706C48.4709 40.6291 48.6141 40.3291 48.5518 40.0443C48.4272 39.4746 48.1441 38.9993 47.6233 38.6656C47.1026 38.3318 46.4386 38.2981 45.9161 38.502C45.5521 38.6115 45.3768 39.0378 45.4863 39.4019C45.5958 39.7659 46.0222 39.9412 46.3862 39.8317ZM42.2489 38.1106L42.3281 38.0634C42.4865 37.9691 42.677 37.7483 42.6619 37.5427C42.8523 37.3219 42.9164 37.0692 42.7748 36.8315C42.6653 36.4675 42.239 36.2922 41.8749 36.4017C41.5901 36.464 41.3996 36.6848 41.3356 36.9376C41.2715 37.1903 41.2074 37.4431 41.2698 37.728C41.4585 38.0448 41.8849 38.2201 42.2489 38.1106ZM50.604 46.0122C50.2871 46.2009 50.1118 46.6273 50.3005 46.9441C50.4421 47.1818 50.6628 47.3722 50.9477 47.3099C50.7572 47.5307 50.7724 47.7363 50.8347 48.0211C50.9442 48.3851 51.3706 48.5604 51.6874 48.3717L51.8459 48.2773C52.0835 48.1358 52.274 47.915 52.4172 47.6151C52.5605 47.3151 52.5302 46.9039 52.3415 46.587C52.1528 46.2702 51.8848 46.0005 51.5849 45.8572C51.2528 45.8403 50.8416 45.8706 50.604 46.0122ZM38.5033 47.3172C38.5825 47.27 38.6617 47.2228 38.6937 47.0964C38.9162 46.7493 38.8859 46.338 38.5388 46.1155C38.3652 46.0043 38.2388 45.9723 38.1124 45.9402C37.986 45.9082 37.8124 45.797 37.7332 45.8441C37.322 45.8744 37.0523 46.1424 37.0826 46.5536C37.1129 46.9648 37.3809 47.2345 37.6808 47.3778C38.06 47.4739 38.2656 47.4587 38.5033 47.3172ZM48.8665 45.4373L49.1041 45.2958C49.421 45.107 49.5963 44.6807 49.3604 44.2846C49.1245 43.8885 48.7132 43.9188 48.3964 44.1076L48.1587 44.2491C47.8419 44.4378 47.6666 44.8642 47.9025 45.2603C48.1384 45.6563 48.5496 45.626 48.8665 45.4373Z" fill="#1C9197" stroke="#1C9197" stroke-width="0.4"/>
<path d="M53.849 62.9128C53.0219 63.374 52.0741 63.5728 51.1315 63.4826L51.1332 63.4829C50.9539 63.4593 50.7872 63.3779 50.6583 63.251C50.5294 63.1241 50.4455 62.9587 50.4191 62.7798C50.3927 62.6009 50.4253 62.4183 50.512 62.2596C50.5988 62.1009 50.7348 61.9748 50.8997 61.9004C51.3332 61.6963 51.8023 61.9297 52.2688 61.7775C53.3784 61.5661 54.1102 60.4613 55.1278 60.2067C55.218 60.2001 55.3085 60.214 55.3926 60.2474C55.4766 60.2808 55.552 60.3328 55.613 60.3996C55.6741 60.4663 55.7191 60.546 55.7449 60.6327C55.7707 60.7194 55.7764 60.8108 55.7617 60.9001C55.3431 61.7495 54.676 62.4515 53.849 62.9128Z" fill="#1C9197"/>
<path d="M49.3681 62.8746C49.2289 62.9764 49.0559 63.0209 48.8849 62.9988C48.7169 62.9595 48.5705 62.8571 48.4759 62.7129C48.3813 62.5687 48.3457 62.3937 48.3764 62.224C48.4071 62.0543 48.5019 61.9028 48.6411 61.801C48.7803 61.6992 48.9533 61.6547 49.1244 61.6768C49.2923 61.7161 49.4387 61.8185 49.5333 61.9627C49.628 62.1069 49.6636 62.2819 49.6328 62.4516C49.6021 62.6213 49.5073 62.7727 49.3681 62.8746Z" fill="#1C9197"/>
</svg>
