<svg width="405" height="165" viewBox="0 0 405 165" fill="none" xmlns="http://www.w3.org/2000/svg">
<path d="M59.2322 33.7994C56.5282 30.0118 50.7556 32.6734 47.6414 34.4716C43.2018 37.0891 39.5946 41.0999 37.6134 45.8577C32.7392 57.2427 38.0754 68.8559 47.294 76.0523C56.4184 83.1256 68.7942 84.7031 78.436 77.5567C87.216 71.07 90.3645 59.5221 86.6488 49.3628C82.2686 37.2131 69.5223 30.7646 57.08 32.5181C54.8749 32.8003 55.5286 36.2049 57.7337 35.9227C69.2908 34.3391 81.0026 40.9157 84.0134 52.5517C86.9458 63.7792 80.2042 75.7346 68.6939 78.2976C56.9925 80.9679 43.2308 72.1727 39.9607 60.657C38.3989 55.0969 39.2204 49.0792 42.3041 44.1804C43.7084 41.9339 45.5997 40.0176 47.7057 38.4836C49.3192 37.3266 54.7594 33.6697 56.495 36.09C57.8955 37.8685 60.4966 35.6041 59.2322 33.7994Z" fill="#47A6AB"/>
<path d="M58.742 26.8333C57.4526 21.2209 56.6529 15.5851 56.1936 9.88389C56.0476 7.65265 52.6431 8.30635 52.7891 10.5376C53.2483 16.2388 54.048 21.8746 55.3374 27.487C55.8239 29.6529 59.2285 28.9992 58.742 26.8333Z" fill="#47A6AB"/>
<path d="M36.9303 35.6809C32.6497 31.7725 27.874 28.5945 22.5482 26.2282C20.4743 25.3556 19.3342 28.6104 21.408 29.483C26.1788 31.5323 30.5487 34.4352 34.3292 37.9454C35.9629 39.4674 38.564 37.2029 36.9303 35.6809Z" fill="#47A6AB"/>
<path d="M82.9037 32.4314C87.3541 28.3998 91.3045 23.97 94.7418 19.0739C96.0203 17.2752 93.1664 15.2815 91.901 17.1483C88.6288 21.8009 84.9246 26.0422 80.6392 29.8303C78.9549 31.3539 81.2194 33.9551 82.9037 32.4314Z" fill="#47A6AB"/>
<path d="M11.4118 66.774C16.6914 66.3251 21.7591 65.1403 26.7221 63.4107C28.8357 62.6519 27.2549 59.5665 25.2094 60.3123C20.5187 61.9895 15.6972 62.9859 10.7581 63.3694C8.53995 63.5835 9.26174 66.975 11.4118 66.774Z" fill="#47A6AB"/>
<path d="M35.4451 99.6492C38.5604 94.1795 41.6757 88.7098 44.791 83.2401C45.9072 81.3313 43.0533 79.3376 41.9502 81.3145C38.8349 86.7842 35.7196 92.2539 32.6043 97.7236C31.4881 99.6323 34.3289 101.558 35.4451 99.6492Z" fill="#47A6AB"/>
<path d="M70.1261 88.3305C70.989 92.8245 72.3285 97.2271 74.0635 101.483C74.8904 103.584 77.9758 102.003 77.162 99.9704C75.5474 95.9737 74.3413 91.8985 73.5438 87.7449C73.1124 85.4979 69.7078 86.1516 70.1261 88.3305Z" fill="#47A6AB"/>
<path d="M85.5323 79.5832C91.1382 82.6723 96.7991 85.6803 102.405 88.7695C104.369 89.8045 106.294 86.9637 104.331 85.9287C98.7247 82.8395 93.0638 79.8315 87.458 76.7424C85.5623 75.6943 83.5686 78.5482 85.5323 79.5832Z" fill="#47A6AB"/>
<path d="M93.8835 52.8453C98.2518 52.4302 102.701 52.0701 107.069 51.655C109.288 51.4409 108.634 48.0364 106.416 48.2504C102.047 48.6656 97.5981 49.0256 93.2298 49.4407C90.9986 49.5867 91.6523 52.9913 93.8835 52.8453Z" fill="#47A6AB"/>
<path d="M322.366 101.673C341.823 96.1815 361.619 91.8836 381.641 88.8537C383.153 88.6298 383.01 86.2554 381.498 86.4793C361.27 89.564 341.277 93.8699 321.612 99.4165C320.118 99.7906 320.862 102.094 322.366 101.673Z" fill="#47A6AB" stroke="#47A6AB"/>
<path d="M327.236 81.4818C344.643 90.1223 361.897 99.0244 379.047 108.198C380.412 108.92 381.487 106.798 380.122 106.076C362.972 96.9025 345.718 88.0004 328.311 79.3599C326.937 78.6842 325.862 80.8061 327.236 81.4818Z" fill="#47A6AB" stroke="#47A6AB"/>
<path d="M350.798 83.2895C347.139 80.6746 343.604 77.6947 341.286 73.7946C338.32 68.783 339.134 63.6761 341.057 58.4081C342.301 55.0021 344.569 52.5415 345.139 48.8494C345.849 44.0138 345.555 39.0679 343.608 34.5606C343.017 33.1681 340.714 33.9117 341.351 35.314C343.336 39.8778 344.244 46.8074 342.044 51.5293C341.348 52.9973 340.214 54.2276 339.556 55.7521C338.526 58.1276 337.645 60.7293 337.158 63.3151C335.403 72.7213 342.096 80.0199 349.209 85.0607C350.441 85.9512 352.077 84.1897 350.798 83.2895Z" fill="#47A6AB" stroke="#47A6AB"/>
<path d="M383.962 39.0193C380.286 42.849 377.607 47.5207 376.201 52.6516C374.969 57.1833 375.502 61.4461 375.235 66.0315C374.934 71.4892 371.848 76.7115 367.362 79.7381C362.432 83.0149 356.304 83.3564 350.556 83.0439C349.008 82.9674 349.198 85.3515 350.698 85.4183C356.099 85.7565 361.74 85.4116 366.664 82.8665C371.362 80.4699 374.872 76.2637 376.539 71.2847C378.082 66.6707 377.1 62.2172 377.64 57.4929C378.379 51.1003 381.254 45.248 385.676 40.6449C386.838 39.518 385.02 37.9197 383.962 39.0193Z" fill="#47A6AB" stroke="#47A6AB"/>
<path d="M353.38 77.6697C351.106 75.4398 349.909 72.2605 350.476 69.0562C351.013 65.9924 352.72 63.4152 352.893 60.2269C352.159 60.4657 351.426 60.7044 350.692 60.9431C351.812 63.0805 352.979 65.2276 354.099 67.365C354.525 68.1372 355.811 68.0619 356.173 67.2576C357.538 63.9745 358.846 60.7285 360.164 57.4356C359.414 57.2803 358.665 57.1249 357.916 56.9695C358.126 59.0161 358.111 61.2111 358.528 63.2028C358.701 64.0202 358.854 64.9312 359.582 65.4242C361.683 66.8367 364.534 62.9824 365.789 61.8749C365.106 61.6356 364.423 61.3963 363.693 61.1472C363.827 64.7411 363.257 68.4332 361.079 71.401C360.065 72.7542 358.81 73.8617 357.47 74.9029C356.357 75.7957 354.893 77.2019 353.402 77.0882C351.855 77.0117 352.045 79.3958 353.545 79.4626C355.233 79.5683 356.526 78.5174 357.846 77.5698C359.628 76.2784 361.373 74.9304 362.717 73.1575C365.444 69.6681 366.253 65.2929 366.077 60.9576C366.019 59.8221 364.698 59.597 363.981 60.2299C363.263 60.8628 362.603 61.4585 361.885 62.0914C360.922 62.9664 361.042 63.3331 360.759 62.1022C360.377 60.4109 360.438 58.4695 360.253 56.7702C360.139 55.6718 358.444 55.1252 358.005 56.3041C356.734 59.6066 355.416 62.8995 354.014 66.1261C354.709 66.0747 355.394 66.0701 356.088 66.0187C354.968 63.8814 353.801 61.7343 352.681 59.5969C352.042 58.4385 350.544 59.3004 350.481 60.3131C350.294 64.28 347.626 67.4883 347.944 71.6088C348.194 74.6406 349.555 77.2675 351.707 79.3747C352.891 80.4993 354.479 78.7281 353.38 77.6697Z" fill="#47A6AB" stroke="#47A6AB"/>
<path d="M342.411 35.387C344.812 35.3477 346.662 39.1506 347.323 41.1441C347.92 42.9776 348.31 44.8659 349.01 46.672C349.544 48.1017 351.848 47.358 351.267 45.9186C349.618 41.6199 348.441 32.9248 342.268 33.0126C340.701 33.0298 340.881 35.4607 342.411 35.387Z" fill="#47A6AB" stroke="#47A6AB"/>
<path d="M351.222 45.6651C351.901 41.2139 356.478 38.6945 359.118 35.3828C361.825 31.9872 363.663 28.0694 365.454 24.142C364.724 23.893 363.948 23.6342 363.227 23.3383C362.929 27.1355 362.743 30.8585 363.983 34.5352C365.39 38.5884 368.259 42.8957 366.464 47.3109C365.882 48.7046 367.994 49.8264 368.586 48.3859C370.075 44.7378 369.209 41.1387 367.752 37.5637C366.913 35.4846 365.961 33.4797 365.592 31.2538C365.168 28.8211 365.355 26.2708 365.569 23.8238C365.681 22.577 363.961 21.683 363.342 23.0202C361.247 27.4708 359.132 32.0151 355.692 35.6495C352.942 38.5477 349.51 40.9626 348.88 45.1796C348.673 46.651 351.005 47.1833 351.222 45.6651Z" fill="#47A6AB" stroke="#47A6AB"/>
<path d="M367.34 49.4466C370.579 49.141 372.844 47.1682 375.213 45.168C378.289 42.5817 381.726 40.8516 385.707 40.2605C387.219 40.0366 387.086 37.6153 385.565 37.886C382.184 38.4064 378.967 39.547 376.121 41.497C373.274 43.4469 370.82 46.7975 367.188 47.119C365.658 47.1927 365.801 49.5671 367.34 49.4466Z" fill="#47A6AB" stroke="#47A6AB"/>
<path d="M395.51 29.7384C395.478 31.5393 393.573 32.9518 391.877 32.6491C390.369 32.3852 389.883 34.727 391.392 34.9909C394.737 35.5867 397.823 32.9536 397.884 29.5956C397.914 28.0386 395.539 28.1813 395.51 29.7384Z" fill="#47A6AB" stroke="#47A6AB"/>
<path d="M399.144 29.1728C398.673 30.7361 398.378 32.629 399.617 33.9605C400.697 35.1126 402.412 35.3216 403.574 34.1947C404.055 33.7572 403.939 32.9027 403.483 32.5149C402.942 32.0608 402.284 32.1687 401.803 32.6062C401.736 32.6902 401.289 32.2555 401.225 32.0956C400.883 31.3896 401.293 30.3512 401.486 29.6583C401.937 28.1887 399.595 27.7032 399.144 29.1728Z" fill="#47A6AB" stroke="#47A6AB"/>
<path d="M394.31 38.82C395.084 38.15 396.065 37.4252 397.134 37.4515C398.063 37.4486 398.912 38.0644 398.906 39.04C398.886 40.5502 401.307 40.4171 401.28 38.8972C401.302 37.1431 399.989 35.6986 398.332 35.2085C396.394 34.6601 394.446 35.5751 393.021 36.794C391.841 37.7707 393.131 39.7967 394.31 38.82Z" fill="#47A6AB" stroke="#47A6AB"/>
<path d="M320.735 53.4618C321.973 54.7933 323.418 56.0699 325.332 56.027C327.293 55.9939 328.363 54.6037 329.097 52.9484C329.773 51.5742 327.614 50.4426 326.975 51.8734C326.527 52.8553 326.023 53.8743 324.768 53.5652C323.747 53.3048 323.003 52.4177 322.324 51.6906C321.29 50.5482 319.702 52.3194 320.735 53.4618Z" fill="#47A6AB" stroke="#47A6AB"/>
<path d="M329.004 55.5183C327.56 55.4143 326.1 56.3327 325.527 57.6796C324.935 59.1201 325.347 60.6709 326.436 61.7761C327.526 62.8814 329.124 61.0633 328.025 60.0049C327.056 59.0225 327.984 57.847 329.137 57.9395C329.765 57.9721 330.305 57.2535 330.234 56.6527C330.24 55.921 329.632 55.5508 329.004 55.5183Z" fill="#47A6AB" stroke="#47A6AB"/>
<path d="M319.517 58.6316C321.649 58.2433 321.636 61.3671 321.599 62.727C321.569 64.2841 323.953 64.0945 323.973 62.5843C324.003 61.0272 323.948 59.404 323.057 58.0468C322.231 56.8496 320.792 56.0139 319.327 56.2475C317.852 56.528 317.995 58.9024 319.517 58.6316Z" fill="#47A6AB" stroke="#47A6AB"/>
<path d="M167.933 66.3756C171.314 82.2386 174.305 98.112 176.941 114.145C177.335 116.566 181.065 115.716 180.67 113.295C178.051 97.3364 175.043 81.3884 171.662 65.5254C171.193 63.1217 167.463 63.9719 167.933 66.3756Z" fill="#47A6AB"/>
<path d="M190.456 102.949C185.532 100.247 181.198 96.7904 177.384 92.6079C176.445 91.5974 174.627 91.6353 174.101 93.1142C171.997 99.0295 169.298 104.536 165.795 109.724C164.417 111.738 167.511 114.066 168.858 111.981C172.511 106.561 175.469 100.692 177.723 94.5451C176.619 94.6905 175.545 94.906 174.441 95.0514C178.639 99.7344 183.537 103.531 189.025 106.571C191.189 107.717 192.55 104.125 190.456 102.949Z" fill="#47A6AB"/>
<path d="M163.518 81.4268C167.132 76.2874 169.882 70.7959 171.824 64.8608C170.78 65.0989 169.661 65.3539 168.617 65.592C172.371 70.6993 177.229 74.4563 183.002 77.0633C185.264 78.0383 186.397 74.4061 184.135 73.4311C178.969 71.078 174.793 67.5578 171.399 62.9962C170.496 61.7897 168.608 62.4556 168.192 63.7274C166.348 69.4047 163.68 74.5638 160.238 79.4285C158.879 81.3858 162.102 83.4757 163.518 81.4268Z" fill="#47A6AB"/>
<path d="M167.022 94.0446C170.322 88.8987 172.739 83.326 174.125 77.3608C173.081 77.5988 171.962 77.8539 170.918 78.092C175.837 82.4627 181.16 86.1923 187.018 89.1722C189.165 90.3304 191.238 87.0332 189.033 85.9666C183.433 83.0849 178.328 79.6196 173.7 75.4962C172.716 74.622 170.858 74.7318 170.493 76.2273C169.188 81.8602 167.018 87.1411 163.817 92.0293C162.475 94.0613 165.681 96.0766 167.022 94.0446Z" fill="#47A6AB"/>
<path d="M212.026 28.6798C213.732 44.7677 215.829 60.8452 218.298 76.8377C218.693 79.2584 222.422 78.4082 222.027 75.9875C219.558 59.995 217.462 43.9175 215.755 27.8296C215.51 25.3749 211.78 26.2251 212.026 28.6798Z" fill="#47A6AB"/>
<path d="M226.921 37.9166C222.114 34.3833 218.1 30.1984 214.581 25.43C213.678 24.2235 211.79 24.8894 211.374 26.1612C209.628 31.5808 206.582 36.1196 202.438 39.9675C200.622 41.637 203.218 44.4191 205.034 42.7496C209.707 38.4673 213.006 33.3213 215.006 27.2946C213.962 27.5327 212.843 27.7878 211.799 28.0258C215.535 33.0585 219.899 37.3991 224.923 41.1968C226.897 42.6297 228.913 39.4241 226.921 37.9166Z" fill="#47A6AB"/>
<path d="M227.54 50.9568C223.198 47.396 219.574 43.2007 216.593 38.3879C215.857 37.222 214.063 36.9248 213.274 38.2816C210.117 43.709 206.452 48.6246 202.054 53.0796C200.329 54.8067 202.942 57.6633 204.649 55.8617C209.237 51.2065 213.225 45.9821 216.571 40.3546C215.459 40.2943 214.364 40.3086 213.251 40.2483C216.517 45.6238 220.633 50.2562 225.467 54.254C227.384 55.7785 229.383 52.4983 227.54 50.9568Z" fill="#47A6AB"/>
<path d="M265.986 91.1269C262.481 106.921 259.348 122.829 256.596 138.775C256.2 141.195 260.005 141.577 260.402 139.157C263.154 123.21 266.286 107.302 269.792 91.5085C270.341 89.1033 266.535 88.7217 265.986 91.1269Z" fill="#47A6AB"/>
<path d="M277.165 104.626C273.733 99.7457 271.26 94.5004 269.443 88.8595C268.971 87.4284 266.969 87.4583 266.17 88.5314C262.789 93.1129 258.457 96.4457 253.303 98.7736C251.049 99.7778 252.624 103.242 254.878 102.237C260.671 99.6662 265.437 95.8386 269.252 90.7625C268.186 90.6556 267.044 90.5411 265.979 90.4343C267.918 96.3949 270.672 101.899 274.226 107.099C275.641 109.086 278.572 106.689 277.165 104.626Z" fill="#47A6AB"/>
<path d="M273.599 117.184C270.616 112.426 268.517 107.295 267.224 101.784C266.897 100.444 265.291 99.5912 264.111 100.626C259.391 104.766 254.351 108.258 248.763 111.081C246.578 112.169 248.145 115.709 250.338 114.545C256.169 111.593 261.613 107.91 266.577 103.641C265.542 103.23 264.499 102.895 263.464 102.483C264.847 108.619 267.274 114.321 270.584 119.65C271.916 121.705 274.854 119.232 273.599 117.184Z" fill="#47A6AB"/>
<path d="M270.52 134.164C267.538 129.406 265.438 124.275 264.145 118.764C263.818 117.424 262.213 116.571 261.032 117.606C256.312 121.745 251.272 125.238 245.684 128.061C243.499 129.149 245.066 132.688 247.259 131.524C253.09 128.573 258.534 124.89 263.498 120.621C262.463 120.209 261.42 119.874 260.385 119.463C261.769 125.599 264.195 131.3 267.505 136.63C268.837 138.685 271.776 136.212 270.52 134.164Z" fill="#47A6AB"/>
</svg>
