<svg width="30" height="30" viewBox="0 0 30 30" fill="none" xmlns="http://www.w3.org/2000/svg">
<circle cx="15" cy="15" r="15" fill="#1C9197"/>
<path d="M18.9432 13.92L18.9432 9.60001C18.9432 9.56001 18.9432 9.48001 18.9034 9.44001L18.9034 9.40001C18.9034 9.36001 18.8636 9.32001 18.8636 9.28001C18.8636 9.24001 18.8239 9.20001 18.7841 9.20001C18.7443 9.16001 18.7443 9.16001 18.7045 9.12001C18.6648 9.08001 18.625 9.08001 18.5852 9.04001C18.5454 9.04001 18.5057 9.00001 18.4659 9.00001C18.4659 9.00001 18.4659 9.00001 18.4261 9.00001C18.3864 9.00001 18.3864 9.00001 18.3466 9.00001L18.3068 9.00001C18.3068 9.00001 18.3068 9.00001 18.267 9.00001C18.2273 9.00001 18.1875 9.00001 18.108 9.00001C18.0682 9.00001 17.9886 9.04001 17.9489 9.08001L12.7784 12.2L9.2784 14.32C9.19886 14.36 9.11931 14.44 9.03977 14.56C9.03977 14.6 8.99999 14.6 8.99999 14.64L8.99999 14.68C8.99999 14.72 8.99999 14.72 8.99999 14.76L8.99999 14.8C8.99999 14.84 8.99999 14.84 8.99999 14.88C8.99999 14.92 8.99999 14.92 8.99999 14.96L8.99999 15C8.99999 15.04 8.99999 15.04 8.99999 15.08L8.99999 15.12C8.99999 15.16 9.03977 15.2 9.03977 15.2C9.07954 15.28 9.15908 15.36 9.2784 15.44L12.7784 17.56L17.9489 20.68C17.9886 20.72 18.0682 20.72 18.1079 20.76C18.1477 20.76 18.1875 20.76 18.267 20.76C18.267 20.76 18.267 20.76 18.3068 20.76L18.3466 20.76C18.3864 20.76 18.3864 20.76 18.4261 20.76C18.4261 20.76 18.4261 20.76 18.4659 20.76C18.5057 20.76 18.5454 20.72 18.5852 20.72C18.625 20.72 18.6648 20.68 18.7045 20.64C18.7443 20.6 18.7841 20.6 18.7841 20.56C18.8239 20.52 18.8239 20.52 18.8636 20.48C18.9034 20.44 18.9034 20.4 18.9034 20.36L18.9034 20.32C18.9034 20.28 18.9432 20.2 18.9432 20.16L18.9432 15.84L18.9432 13.92ZM10.9489 14.76C10.9489 14.76 10.9489 14.72 10.9886 14.72L17.3523 10.88C17.392 10.88 17.392 10.88 17.4318 10.88C17.4318 10.88 17.4318 10.88 17.4716 10.88C17.5114 10.88 17.5114 10.92 17.5114 10.92L17.5511 10.96L17.5511 18.64C17.5511 18.68 17.5511 18.68 17.5114 18.68L17.4716 18.72C17.4716 18.72 17.4716 18.72 17.4318 18.72C17.392 18.72 17.392 18.72 17.3523 18.72L10.9886 14.88L10.9489 14.84L10.9489 14.8L10.9489 14.76Z" fill="#EEEADE" stroke="#EEEADE"/>
</svg>
