<svg width="80" height="72" viewBox="0 0 80 72" fill="none" xmlns="http://www.w3.org/2000/svg">
<g clip-path="url(#clip0_660_32072)">
<path d="M45.6989 2.58311C45.6843 2.83529 45.6198 3.08214 45.5092 3.30956C45.3987 3.53698 45.2441 3.74052 45.0544 3.90855C44.8647 4.07659 44.6435 4.20584 44.4036 4.28891C44.1636 4.37198 43.9096 4.40725 43.6559 4.39271L43.2807 4.3712C42.7684 4.34183 42.2889 4.11135 41.9475 3.73045C41.6061 3.34956 41.4309 2.84945 41.4605 2.34015L41.486 1.90105C41.5006 1.64887 41.565 1.40202 41.6756 1.1746C41.7862 0.947178 41.9408 0.743639 42.1305 0.575601C42.3202 0.407564 42.5413 0.27832 42.7813 0.195249C43.0212 0.112177 43.2753 0.0769055 43.529 0.0914468L43.9041 0.112956C44.4164 0.142324 44.896 0.372807 45.2374 0.753702C45.5787 1.1346 45.7539 1.6347 45.7244 2.144L45.6989 2.58311ZM43.5818 1.03103C42.7591 1.08375 42.6364 1.88886 42.6773 2.54107C42.7083 3.02911 42.9674 3.38459 43.472 3.4471C44.0599 3.5194 44.378 3.10216 44.4803 2.57045C44.603 1.93856 44.4712 0.974547 43.5818 1.03103Z" fill="black"/>
<path d="M39.0439 1.13276L39.125 4.14456C39.1255 4.17519 39.1111 4.19377 39.0818 4.2003C38.8364 4.25603 38.5937 4.27235 38.3538 4.24925C38.0038 4.21536 37.9409 3.99394 37.9326 3.67084C37.9088 2.71084 37.8859 1.75084 37.8636 0.790841C37.854 0.371092 38.074 0.156698 38.5235 0.147661C39.2467 0.132598 39.9705 0.120046 40.6947 0.110004C40.7174 0.109502 40.7344 0.119292 40.7455 0.139376C40.9485 0.512179 40.9523 1.05293 40.3955 1.05444C39.9586 1.05544 39.5222 1.06649 39.0864 1.08758C39.0576 1.08908 39.0434 1.10415 39.0439 1.13276Z" fill="black"/>
<path d="M37.0834 2.5022C37.1353 3.00993 36.9821 3.51736 36.6577 3.91285C36.3332 4.30834 35.864 4.5595 35.3533 4.61108L34.981 4.64867C34.4703 4.70025 33.9598 4.54801 33.562 4.22546C33.1642 3.9029 32.9116 3.43645 32.8597 2.92872L32.8151 2.49263C32.7632 1.9849 32.9164 1.47747 33.2408 1.08198C33.5653 0.68649 34.0345 0.435331 34.5452 0.383757L34.9175 0.346161C35.4283 0.294587 35.9387 0.446822 36.3365 0.769376C36.7343 1.09193 36.987 1.55838 37.0388 2.06612L37.0834 2.5022ZM35.0311 3.70997C35.9788 3.67834 35.975 2.57273 35.7606 1.93332C35.6121 1.48896 35.2932 1.24344 34.8114 1.29541C34.2121 1.35942 33.9917 1.85574 34.019 2.39725C34.05 3.01784 34.25 3.73633 35.0311 3.70997Z" fill="black"/>
<path d="M30.0151 3.99467L30.3568 5.33224C30.3602 5.34574 30.3587 5.35998 30.3526 5.3725C30.3465 5.38503 30.3362 5.39503 30.3235 5.40078C29.956 5.57099 29.2523 5.84362 29.0992 5.23584C28.8083 4.08455 28.5177 2.93325 28.2273 1.78195C28.2202 1.75434 28.2295 1.7345 28.2553 1.72245C28.3952 1.65718 28.5853 1.59442 28.8257 1.53417C29.2644 1.42496 29.3992 1.61551 29.503 2.01015C29.5843 2.31743 29.6624 2.62396 29.7371 2.92973C29.7379 2.93321 29.7398 2.93635 29.7425 2.93872C29.7452 2.9411 29.7485 2.94259 29.7521 2.943C29.7556 2.94342 29.7592 2.94272 29.7624 2.94102C29.7655 2.93932 29.7681 2.93669 29.7697 2.9335L30.697 1.11015C30.7024 1.09924 30.71 1.08959 30.7193 1.08181C30.7286 1.07403 30.7393 1.0683 30.7507 1.06496C31.531 0.838269 31.9598 1.40538 31.5477 2.08622C31.3326 2.4417 31.1199 2.79869 30.9098 3.15718C30.8937 3.1848 30.8992 3.20739 30.9265 3.22496L32.5235 4.25526C32.5427 4.26731 32.5553 4.28438 32.5613 4.30647C32.675 4.74329 32.2432 5.07542 31.8545 5.0581C31.6702 5.04957 31.481 4.97626 31.2871 4.83819C30.8775 4.54597 30.4649 4.25676 30.0492 3.97057C30.0169 3.94848 30.0055 3.95651 30.0151 3.99467Z" fill="black"/>
<path d="M52.0026 3.98343C51.94 4.22917 51.8294 4.46026 51.677 4.66351C51.5246 4.86675 51.3335 5.03816 51.1145 5.16796C50.8954 5.29776 50.6529 5.3834 50.4005 5.41999C50.1482 5.45658 49.8911 5.44341 49.6439 5.38123L49.29 5.29218C49.0428 5.23 48.8103 5.12002 48.6059 4.96853C48.4014 4.81704 48.229 4.627 48.0984 4.40926C47.9679 4.19152 47.8817 3.95035 47.8449 3.69952C47.8081 3.44868 47.8214 3.1931 47.8839 2.94735L47.9898 2.53118C48.0524 2.28544 48.163 2.05435 48.3154 1.85111C48.4678 1.64786 48.6589 1.47645 48.878 1.34665C49.097 1.21685 49.3396 1.13121 49.5919 1.09462C49.8442 1.05803 50.1013 1.0712 50.3485 1.13338L50.7025 1.22243C50.9497 1.28461 51.1821 1.39459 51.3866 1.54608C51.591 1.69757 51.7634 1.88761 51.894 2.10535C52.0246 2.32309 52.1107 2.56426 52.1475 2.81509C52.1843 3.06593 52.1711 3.32151 52.1085 3.56726L52.0026 3.98343ZM50.4205 2.12157C49.8538 1.9353 49.4528 2.12007 49.2174 2.67588C48.9705 3.25806 48.8462 4.13998 49.6326 4.41262C50.8705 4.84191 51.4742 2.46802 50.4205 2.12157Z" fill="black"/>
<path d="M55.1454 3.68963L54.1386 6.54403C54.128 6.57415 54.1071 6.58595 54.0757 6.57942C53.9535 6.55532 53.7722 6.50436 53.5318 6.42654C53.0917 6.28419 53.0591 6.04696 53.2061 5.63348C53.4823 4.85625 53.7558 4.07926 54.0265 3.30252C54.0366 3.2729 54.027 3.25281 53.9977 3.24227L53.1273 2.93951C53.1055 2.93198 53.0929 2.91691 53.0894 2.89432C53.0174 2.48461 53.2053 1.94989 53.7227 2.12913C54.6263 2.44194 55.5288 2.757 56.4303 3.07432C56.4515 3.08135 56.4639 3.09616 56.4674 3.11876C56.5189 3.43055 56.4507 3.67507 56.2629 3.85231C56.0606 4.04361 55.45 3.74386 55.1985 3.66403C55.1722 3.65549 55.1545 3.66403 55.1454 3.68963Z" fill="black"/>
<path d="M25.9379 3.49753C25.5447 3.97728 25.7447 4.7387 26.1083 5.17251C26.6174 5.78029 27.5167 5.52121 27.975 4.9669C27.9917 4.94732 28.0121 4.94205 28.0364 4.95109C28.3659 5.07686 28.5417 5.44966 28.3879 5.75996C28.1629 6.21259 27.4349 6.42423 26.9493 6.5146C25.8349 6.72247 24.9576 6.02431 24.6409 4.99628C24.2886 3.85075 24.7462 2.84381 25.8152 2.3859C26.1727 2.23301 26.7674 2.09368 27.1273 2.26992C27.4758 2.44088 27.5538 2.79711 27.3424 3.13C27.3356 3.14043 27.3256 3.14841 27.3139 3.15275C27.3021 3.15709 27.2893 3.15756 27.2773 3.1541C26.8341 3.02607 26.2402 3.12849 25.9379 3.49753Z" fill="black"/>
<path d="M21.5099 5.339L20.6667 5.72159C20.6465 5.73063 20.627 5.72862 20.6083 5.71557C20.5018 5.63824 20.4106 5.52552 20.3349 5.37741C20.1273 4.97297 20.3121 4.8231 20.6742 4.65967C21.5 4.28611 22.3255 3.9123 23.1508 3.53824C23.1755 3.5272 23.1985 3.52996 23.2197 3.54653C23.5303 3.78603 23.7864 4.31925 23.2773 4.54067C23.0263 4.65013 22.826 4.74025 22.6765 4.81105C22.6482 4.8246 22.6407 4.84544 22.6538 4.87356L23.9068 7.60594C23.9225 7.64009 23.9149 7.66795 23.8841 7.68954C23.5591 7.91774 22.9318 8.30862 22.6758 7.75281C22.3086 6.95749 21.9427 6.16142 21.578 5.3646C21.5639 5.33297 21.5412 5.32444 21.5099 5.339Z" fill="black"/>
<path d="M59.6962 8.03752C59.9765 8.18136 60.2371 8.36739 60.0901 8.71383C60.0341 8.84538 59.8874 9.13082 59.65 9.57015C59.6379 9.59224 59.6197 9.60053 59.5954 9.595C59.2083 9.50613 58.4795 9.21392 58.7894 8.67392C58.8056 8.6458 58.7992 8.62446 58.7705 8.6099L56.5356 7.47341C56.5093 7.45986 56.4896 7.46613 56.4765 7.49224L56.2932 7.853C56.2806 7.8781 56.2604 7.88764 56.2326 7.88162C55.9462 7.81885 55.6952 7.69534 55.4795 7.51107C55.203 7.27534 55.4379 6.90931 55.5795 6.64722C55.672 6.47551 55.7689 6.35952 55.8705 6.29927C56.0341 6.20287 56.1927 6.2217 56.3462 6.35576C56.3657 6.37275 56.3886 6.38536 56.4135 6.39274C56.4383 6.40012 56.4644 6.40209 56.4901 6.39852C56.5158 6.39495 56.5404 6.38591 56.5622 6.37203C56.584 6.35816 56.6026 6.33976 56.6167 6.3181C57.0783 5.61065 57.5265 4.91902 57.9614 4.24321C58.2227 3.83726 58.5591 3.93291 58.9462 4.13023C59.4942 4.40839 60.0414 4.68731 60.5879 4.96697C60.9598 5.15676 60.9379 5.52279 60.7606 5.86697C60.398 6.5704 60.0371 7.27484 59.678 7.98028C59.6649 8.00538 59.671 8.02446 59.6962 8.03752ZM57.5879 6.93266C57.5857 6.93576 57.5843 6.93927 57.5836 6.94296C57.583 6.94666 57.5831 6.95045 57.584 6.95409C57.585 6.95772 57.5867 6.96112 57.589 6.96405C57.5914 6.96698 57.5944 6.96937 57.5977 6.97107L58.5788 7.46965C58.585 7.47282 58.5923 7.47341 58.5989 7.4713C58.6056 7.46918 58.6112 7.46453 58.6144 7.45835L59.5939 5.55517C59.5971 5.54898 59.5977 5.54178 59.5956 5.53514C59.5935 5.52851 59.5888 5.52299 59.5826 5.51977L58.797 5.11835C58.7911 5.11551 58.7843 5.11493 58.778 5.11674C58.7717 5.11855 58.7663 5.12261 58.7629 5.12814L57.5879 6.93266Z" fill="black"/>
<path d="M19.1159 8.47058L19.4454 8.98799C19.4621 9.0141 19.4833 9.01887 19.5091 9.0023L20.9129 8.12037C20.9226 8.11407 20.9339 8.11066 20.9456 8.11052C20.9573 8.11039 20.9688 8.11354 20.9788 8.11962C21.3364 8.3433 21.606 8.77184 21.1265 9.07987C20.6179 9.40724 20.1066 9.72883 19.5924 10.0446C19.1629 10.3097 18.8848 10.2397 18.6257 9.83527C18.1257 9.05351 17.6268 8.27075 17.1288 7.48698C16.8485 7.04489 17.0939 6.77678 17.4833 6.53125C18.0459 6.17678 18.6088 5.8223 19.172 5.46782C19.1927 5.45477 19.2141 5.45376 19.2364 5.46481C19.553 5.62447 19.8848 6.12305 19.4644 6.38062C19.074 6.61962 18.6853 6.86188 18.2985 7.1074C18.2747 7.12247 18.2704 7.1418 18.2856 7.16539L18.5765 7.62556C18.5906 7.64765 18.6088 7.65192 18.631 7.63837L19.8477 6.87167C19.8674 6.85962 19.8874 6.85887 19.9076 6.86941C20.222 7.04037 20.5553 7.51033 20.1417 7.76489C19.8002 7.97527 19.4624 8.19117 19.128 8.41259C19.1053 8.42816 19.1012 8.44749 19.1159 8.47058Z" fill="black"/>
<path d="M62.8697 7.71817C63.2445 7.95716 63.4851 8.13666 63.5917 8.25666C64.2048 8.94503 64.203 9.62285 63.5864 10.2901C62.6341 11.3197 61.0477 10.193 60.4288 9.34419C60.3606 9.25005 60.4008 9.08059 60.4727 8.97817C61.153 8.00863 61.8346 7.03984 62.5174 6.07181C62.5331 6.04921 62.5538 6.04369 62.5796 6.05524C62.727 6.12151 62.9048 6.22796 63.1129 6.37457C63.6818 6.77448 63.0902 7.28737 62.8546 7.65038C62.8369 7.678 62.8419 7.70059 62.8697 7.71817ZM62.2735 8.47206L61.7114 9.26662C61.7049 9.27571 61.7022 9.287 61.7041 9.29801C61.7059 9.30902 61.7121 9.31886 61.7212 9.32536L62.0341 9.54377C62.1458 9.62174 62.2821 9.65522 62.4131 9.63686C62.5441 9.61851 62.659 9.54981 62.7326 9.44586L62.7886 9.36678C62.8622 9.2627 62.8884 9.13187 62.8614 9.00307C62.8344 8.87426 62.7564 8.75803 62.6447 8.67992L62.3326 8.46151C62.328 8.45834 62.3228 8.4561 62.3174 8.45492C62.312 8.45373 62.3063 8.45363 62.3008 8.45461C62.2954 8.45559 62.2901 8.45763 62.2854 8.46063C62.2807 8.46362 62.2767 8.4675 62.2735 8.47206Z" fill="black"/>
<path d="M40.7341 13.4217L40.3621 13.323C40.3374 13.3165 40.3157 13.322 40.297 13.3396C36.8642 16.5269 33.4341 19.7172 30.0068 22.9105C29.7023 23.1942 29.3197 23.5215 28.8591 23.8926C27.7091 24.8197 26.625 25.7852 25.8159 27.0332C25.6568 27.2787 25.4508 27.5242 25.2432 27.7245C24.6149 28.3286 23.9748 28.9243 23.3227 29.5117C23.3175 29.5166 23.3111 29.5201 23.3042 29.5221C23.2973 29.524 23.29 29.5244 23.283 29.5231C23.2759 29.5217 23.2693 29.5188 23.2635 29.5145C23.2578 29.5102 23.2532 29.5046 23.25 29.4982C23.045 29.0809 23.1493 28.7706 23.5629 28.5673C23.5777 28.5599 23.5901 28.5486 23.5988 28.5346C23.6075 28.5207 23.6121 28.5046 23.6121 28.4882C23.6121 28.4718 23.6075 28.4558 23.5988 28.4419C23.5901 28.4281 23.5777 28.417 23.5629 28.4099C22.7561 28.0145 22.0311 28.3911 21.3462 28.8482C21.2285 28.9265 21.2089 28.9072 21.2871 28.7902C21.6015 28.318 22.8667 27.7019 22.5455 27.0339C22.5317 27.0051 22.5265 26.973 22.5305 26.9412C22.5345 26.9095 22.5476 26.8794 22.5682 26.8547C23.4288 25.8274 24.8273 25.4064 25.4743 24.3904C25.4904 24.3658 25.4854 24.3467 25.4591 24.3332C24.9447 24.0688 24.3644 23.9476 23.8114 23.7999C22.8743 23.5491 22.2341 23.1477 21.8409 22.2161C21.797 22.1127 21.721 22.0662 21.6129 22.0768C21.1993 22.1179 20.828 22.248 20.4993 22.4669C20.4286 22.5136 20.2225 22.7006 19.8811 23.028C19.6129 23.284 19.3217 23.5097 19.0076 23.705C18.4538 24.0492 17.6038 24.3542 16.9599 24.6736C16.5462 24.8792 16.2652 25.1187 15.8788 25.4915C15.2485 26.1 14.444 26.579 13.8447 27.0264C13.0023 27.656 12.1773 28.3165 11.2955 28.8919C10.2508 29.5735 9.01592 29.804 7.87653 29.1713C7.79673 29.1271 7.73259 29.0681 7.68411 28.9943C7.66996 28.9732 7.66416 28.9501 7.66668 28.925C7.69471 28.6163 8.33714 28.2819 8.68562 28.0883C9.82501 27.4564 10.9712 26.8321 12.0629 26.1076C15.0659 24.1155 18.0546 22.0873 21.144 20.2278C21.3414 20.1088 21.6114 19.965 21.9538 19.7963C22.1462 19.7014 22.2379 19.6501 22.4303 19.791C23.1884 20.3448 23.8563 20.988 24.4341 21.7205C24.6922 22.0469 24.8909 22.2678 25.0303 22.3833C25.9568 23.1507 27.1924 23.4399 28.194 22.5874C29.5778 21.4095 30.8296 20.3822 31.9493 19.5055C32.7508 18.8782 33.747 17.8803 34.6084 16.978C37.3993 14.0578 40.2513 11.1977 43.1644 8.39751C43.373 8.19718 43.5533 8.07216 43.7053 8.02245C44.7849 7.67224 45.2046 9.15818 45.5182 9.83977C45.6616 10.1511 45.7841 10.3745 45.8856 10.5101C46.3811 11.1713 47.1288 11.3852 47.819 11.764C49.1227 12.478 50.2462 13.4865 51.3432 14.5371C52.4109 15.5594 53.4796 16.5804 54.5493 17.6001C55.1154 18.1399 55.7349 18.6086 56.4076 19.0062C57.6374 19.7332 58.8798 19.7558 60.1349 19.074C61.2879 18.4474 62.7849 17.3847 64.0379 18.5242C64.9841 19.3843 66.0576 20.6375 67.2849 21.5639C68.595 22.553 69.9629 23.4553 71.3887 24.2706C71.8432 24.5297 72.5644 24.9726 72.8227 25.4335C72.8352 25.4556 72.8429 25.4801 72.8453 25.5053C72.8477 25.5305 72.8449 25.556 72.8369 25.5801C72.8289 25.6041 72.816 25.6263 72.799 25.6451C72.7819 25.664 72.7611 25.6791 72.7379 25.6896C72.5748 25.7629 72.3942 25.8053 72.1962 25.8168C71.4962 25.8575 70.8253 25.739 70.1833 25.4614C68.8298 24.8759 67.6349 24.0618 66.5985 23.0189C66.0387 22.4548 65.0121 22.0316 64.5485 21.6505C64.0311 21.2257 63.8758 20.8168 63.6364 20.279C63.5 19.9725 63.1743 20.2948 63.0417 20.4786C62.6735 20.9892 62.4227 21.5277 61.7326 21.7213C61.1644 21.8809 60.5826 21.9382 59.9871 21.893C59.9624 21.8915 59.9505 21.8784 59.9515 21.8538C59.9621 21.5337 60.0106 21.2965 60.2364 21.0419C60.3485 20.9154 60.4536 20.7698 60.5515 20.6051C60.5626 20.5865 60.569 20.5655 60.5702 20.5438C60.5714 20.5222 60.5673 20.5006 60.5583 20.4809C60.5493 20.4612 60.5357 20.4439 60.5185 20.4305C60.5014 20.4171 60.4813 20.408 60.4599 20.404C59.6758 20.2549 58.922 20.6993 58.3743 21.2965C58.3051 21.3718 58.2672 21.4414 58.2606 21.5051C58.2379 21.7198 58.6311 22.0399 58.8561 22.2643C59.2682 22.6763 59.4644 23.0717 59.5727 23.6139C59.5778 23.6405 59.5667 23.6536 59.5394 23.6531C57.9636 23.6101 57.272 22.4307 56.3015 21.4215C55.0263 20.095 53.7513 18.769 52.4765 17.4435C51.6803 16.6158 50.725 15.1833 49.5553 14.9604C49.528 14.9548 49.5149 14.9659 49.5159 14.9935C49.544 15.9989 50.1114 16.6978 50.8924 17.2635C51.4167 17.6435 51.9306 18.0369 52.4341 18.4436C52.522 18.5144 52.6129 18.6312 52.6432 18.7381C52.7614 19.1583 52.9232 19.5595 53.1288 19.9416C53.3265 20.3076 53.6765 20.6963 53.9212 21.0954C53.9248 21.1012 53.9272 21.1076 53.9283 21.1143C53.9294 21.121 53.9291 21.1278 53.9274 21.1343C53.9258 21.1409 53.9229 21.147 53.9188 21.1524C53.9148 21.1577 53.9097 21.1622 53.9038 21.1655L52.6477 21.8915C52.6013 21.9186 52.5637 21.9096 52.5349 21.8644C51.3465 20.0192 50.1503 18.1645 48.9462 16.3002C48.6962 15.9131 48.3644 15.3053 48.2561 14.9378C48.1818 14.6852 48.1753 14.4239 48.2364 14.1537C48.2424 14.1276 48.2374 14.1035 48.2212 14.0814C48.151 13.9871 48.0485 13.8879 47.9137 13.784C47.2642 13.2819 46.6139 12.7798 45.9629 12.2777C45.8619 12.1999 45.7435 12.1798 45.6076 12.2174C45.3834 12.2802 45.1581 12.3369 44.9318 12.3876C44.9061 12.3932 44.8952 12.4087 44.8993 12.4343C44.9826 12.9901 45.3144 13.2801 45.597 13.6876C45.6036 13.6967 45.6072 13.7078 45.6072 13.7191C45.6072 13.7304 45.6037 13.7414 45.5971 13.7506C45.5905 13.7598 45.5812 13.7668 45.5704 13.7704C45.5597 13.7741 45.548 13.7744 45.5371 13.7712C44.9455 13.6047 44.5394 13.384 44.3561 12.7537C44.2717 12.4629 44.1851 12.1727 44.0962 11.883C44.0871 11.8534 44.0679 11.8434 44.0387 11.8529C43.8846 11.9031 43.6637 11.9945 43.3758 12.127C42.8727 12.359 42.8303 12.6347 42.8667 13.183C42.8869 13.4912 42.8917 13.7476 42.8811 13.9519C42.8318 14.8994 42.272 15.9522 41.6887 16.7061C41.5508 16.8839 41.3291 17.1143 41.0235 17.3975C40.5015 17.8818 40.2152 18.3065 39.8712 18.8262C39.6296 19.1907 39.3485 19.4973 38.9621 19.6027C38.8631 19.6298 38.7975 19.5841 38.7652 19.4656C38.269 17.6679 40.2455 16.6075 41.3818 15.1946C41.7419 14.7472 41.9637 14.2421 42.047 13.6793C42.048 13.6731 42.0474 13.6668 42.0451 13.6609C42.0428 13.6551 42.0389 13.6499 42.0339 13.646C42.0289 13.6421 42.0229 13.6396 42.0166 13.6387C42.0102 13.6378 42.0037 13.6385 41.9977 13.6409C41.6523 13.7824 41.3379 13.9742 41.0546 14.2163C41.043 14.226 41.0294 14.2329 41.0147 14.2364C41.0001 14.24 40.9848 14.2401 40.9701 14.2367C40.9553 14.2334 40.9416 14.2266 40.93 14.2171C40.9184 14.2075 40.9091 14.1953 40.903 14.1816C40.8025 13.9542 40.7583 13.7172 40.7705 13.4706C40.7709 13.4595 40.7675 13.4486 40.7609 13.4397C40.7542 13.4308 40.7448 13.4244 40.7341 13.4217Z" fill="#057A72"/>
<path d="M15.5492 12.896L15.7977 13.2153C15.8129 13.2349 15.8126 13.2542 15.797 13.2733C15.5823 13.545 15.3492 13.728 15.0977 13.8224C14.8318 13.9233 14.5856 13.6009 14.4045 13.3562C14.1508 13.0127 14.0955 12.6844 14.5227 12.4645C14.5333 12.4589 14.5419 12.4503 14.5474 12.4399C14.5529 12.4294 14.5552 12.4175 14.5538 12.4057C14.5407 12.3038 14.5043 12.2056 14.4447 12.1112C14.0321 11.4545 13.6192 10.7985 13.2061 10.1433C12.9788 9.78328 13.1917 9.5099 13.497 9.27416C13.9803 8.90111 14.4649 8.53031 14.9508 8.16178C15.403 7.8191 15.6773 8.06086 15.975 8.44571C16.4376 9.04169 16.8997 9.63768 17.3614 10.2337C17.3658 10.2393 17.3715 10.244 17.3779 10.2472C17.3844 10.2505 17.3915 10.2523 17.3987 10.2525C17.4059 10.2527 17.4131 10.2513 17.4198 10.2485C17.4264 10.2456 17.4323 10.2413 17.4371 10.2359C17.6215 10.0255 17.8149 9.96429 18.0174 10.0522C18.2841 10.1674 18.5902 10.6652 18.7955 10.9235C18.8152 10.9481 18.8144 10.972 18.7932 10.9951C18.5061 11.3076 18.0167 11.8115 17.5962 11.3189C17.5785 11.2978 17.5586 11.2958 17.5364 11.3129L15.5583 12.8275C15.5326 12.8476 15.5295 12.8704 15.5492 12.896ZM15.1129 9.26211C15.1088 9.25695 15.1029 9.25358 15.0964 9.25274C15.0899 9.25189 15.0833 9.25364 15.078 9.25759L14.3765 9.79533C14.3717 9.79907 14.3684 9.80442 14.3673 9.81039C14.3662 9.81635 14.3673 9.82252 14.3705 9.82772L15.5129 11.6571C15.5147 11.66 15.5171 11.6626 15.52 11.6645C15.5229 11.6665 15.5261 11.6678 15.5296 11.6685C15.533 11.6691 15.5365 11.669 15.5399 11.6682C15.5433 11.6674 15.5465 11.666 15.5492 11.6639L16.4242 10.9921C16.4294 10.9881 16.4328 10.9822 16.4337 10.9757C16.4345 10.9692 16.4328 10.9626 16.4288 10.9574L15.1129 9.26211Z" fill="black"/>
<path d="M64.0962 12.0803C63.7121 11.8988 63.0909 11.5735 63.453 11.0591C64.1358 10.089 64.8194 9.11949 65.5038 8.15045C65.5105 8.14102 65.5202 8.13416 65.5314 8.13101C65.5425 8.12786 65.5545 8.1286 65.5651 8.13313C65.947 8.29957 66.6023 8.6174 66.2212 9.16493C65.5454 10.1355 64.873 11.0977 64.2038 12.0517C64.176 12.0914 64.1401 12.1009 64.0962 12.0803Z" fill="black"/>
<path d="M66.8159 12.8516L65.4159 13.1837C65.3911 13.1892 65.3682 13.1855 65.3469 13.1724C64.7023 12.7793 64.7409 12.0389 65.5674 11.9162C65.9901 11.8534 66.4124 11.7881 66.8341 11.7204C66.8603 11.7158 66.8752 11.7005 66.8788 11.6744L67.1159 9.92262C67.1173 9.91131 67.1216 9.90052 67.1285 9.89129C67.1354 9.88206 67.1446 9.87469 67.1553 9.8699C67.7159 9.61459 68.3045 9.97007 68.2083 10.6178C68.1578 10.9577 68.1058 11.2978 68.0522 11.6383C68.0477 11.6669 68.0596 11.6779 68.0879 11.6714L69.3553 11.3837C69.3761 11.3793 69.3976 11.3806 69.4174 11.3875C69.8507 11.5449 70.1636 12.0525 69.7697 12.4434C69.5576 12.6535 68.3773 12.7311 68.0371 12.7763C68.0103 12.7798 67.9949 12.7948 67.9909 12.8214L67.7341 14.6312C67.7322 14.6443 67.7275 14.6567 67.7205 14.6678C67.7134 14.6788 67.7041 14.6882 67.6932 14.6953C67.4755 14.8373 67.2495 14.8439 67.0151 14.7148C66.7116 14.5481 66.5929 14.2881 66.6591 13.9346C66.7247 13.5841 66.7879 13.2332 66.8485 12.8817C66.853 12.8556 66.8421 12.8455 66.8159 12.8516Z" fill="black"/>
<path d="M11.2296 15.48L12.0947 16.2377C12.1051 16.2468 12.112 16.2592 12.1142 16.2728C12.1164 16.2864 12.1138 16.3003 12.1068 16.3122C11.9235 16.6225 11.5258 17.2092 11.0947 16.9253C11.0891 16.9213 11.0035 16.8469 10.8379 16.7023C10.0606 16.025 9.28561 15.3447 8.51289 14.6613C8.49428 14.6448 8.48219 14.6221 8.4788 14.5973C8.44698 14.3571 8.54546 14.1974 8.69167 13.9519C9.13107 13.2176 10.025 12.3033 10.9667 12.5729C11.4818 12.7198 11.9432 13.2372 12.0258 13.7606C12.1243 14.3925 11.6705 14.9603 11.2273 15.4085C11.2025 15.4331 11.2033 15.4569 11.2296 15.48ZM9.72804 14.1726L10.4712 14.8218C10.4787 14.8281 10.4883 14.8313 10.4981 14.8306C10.5079 14.8299 10.5171 14.8254 10.5235 14.818L10.7818 14.5258C10.8266 14.4751 10.8617 14.4168 10.8849 14.354C10.908 14.2913 10.919 14.2254 10.917 14.1602C10.915 14.0949 10.9002 14.0316 10.8734 13.9737C10.8465 13.9159 10.8082 13.8647 10.7606 13.8231L10.6864 13.7583C10.6388 13.7167 10.5828 13.6855 10.5216 13.6665C10.4605 13.6474 10.3954 13.6409 10.33 13.6474C10.2646 13.6538 10.2003 13.673 10.1407 13.704C10.0811 13.7349 10.0274 13.7769 9.98258 13.8276L9.72425 14.1206C9.71784 14.128 9.71463 14.1376 9.71534 14.1474C9.71605 14.1571 9.72062 14.1662 9.72804 14.1726Z" fill="black"/>
<path d="M69.1091 15.7232L68.422 16.0742C68.3977 16.0867 68.374 16.086 68.3508 16.0719C68.0902 15.9168 67.9109 15.7265 67.8129 15.501C67.6636 15.1569 67.8977 14.9829 68.1955 14.8435C69.2212 14.363 70.2652 13.9232 71.3273 13.5241C71.344 13.5176 71.3618 13.5146 71.3797 13.5153C71.3975 13.5159 71.415 13.5202 71.4311 13.5278C71.8583 13.7312 72.6765 14.4482 72.3485 14.9942C71.7162 16.0496 71.0553 17.0869 70.3659 18.1061C70.3599 18.1147 70.3514 18.1211 70.3416 18.1245C70.3318 18.1279 70.3212 18.128 70.3114 18.125C69.927 18.0105 69.6808 17.7823 69.5727 17.4404C69.5015 17.2159 69.8167 16.8386 69.9402 16.6458C69.9553 16.6222 69.9535 16.5999 69.9349 16.5788L69.1871 15.7383C69.1649 15.7132 69.1389 15.7082 69.1091 15.7232ZM70.0061 15.2179C70.0016 15.2198 69.9977 15.2227 69.9946 15.2264C69.9915 15.2301 69.9893 15.2344 69.9882 15.2391C69.9871 15.2438 69.9871 15.2487 69.9883 15.2534C69.9894 15.258 69.9916 15.2624 69.9947 15.2661L70.4977 15.8512C70.5008 15.855 70.5048 15.8579 70.5093 15.8599C70.5138 15.8618 70.5186 15.8626 70.5235 15.8623C70.5284 15.862 70.5331 15.8606 70.5373 15.8582C70.5415 15.8557 70.5451 15.8523 70.5477 15.8482L71.2705 14.7283C71.2742 14.7227 71.2759 14.7161 71.2755 14.7094C71.2751 14.7028 71.2726 14.6964 71.2682 14.6913C71.2639 14.6862 71.2579 14.6827 71.2514 14.6812C71.2448 14.6797 71.238 14.6804 71.2318 14.6831L70.0061 15.2179Z" fill="black"/>
<path d="M41.6856 22.506C41.3488 22.7972 41.0425 23.115 40.7667 23.4595C40.2008 24.1666 39.8129 25.1111 39.4568 25.9734C39.4479 25.9947 39.4342 26.0135 39.4166 26.0284C39.3991 26.0433 39.3784 26.0539 39.3561 26.0593L37.444 26.5202C37.4388 26.5214 37.4334 26.5214 37.4282 26.52C37.4231 26.5186 37.4183 26.5159 37.4145 26.5123C37.4107 26.5086 37.4078 26.504 37.4062 26.4989C37.4046 26.4939 37.4043 26.4885 37.4053 26.4833C37.4897 26.0681 37.6298 25.6787 37.8258 25.3152C38.0728 24.8595 38.6008 24.4596 38.8159 24.0876C39.5437 22.8303 40.2909 21.5846 41.0576 20.3505C42.1303 18.6243 42.9841 16.801 43.65 14.8805C43.6535 14.8696 43.6609 14.8603 43.6707 14.8543C43.6805 14.8484 43.6922 14.8462 43.7035 14.8481C43.7149 14.85 43.7251 14.856 43.7324 14.8648C43.7397 14.8737 43.7436 14.8848 43.7432 14.8963C43.7437 15.0534 43.7341 15.2216 43.7144 15.4009C43.4382 17.8672 43.0472 20.3151 42.5417 22.7447C42.4644 23.1158 42.374 23.48 42.2705 23.8375C42.2686 23.8443 42.2646 23.8504 42.2591 23.8549C42.2536 23.8594 42.2469 23.8621 42.2398 23.8627C42.2327 23.8633 42.2256 23.8617 42.2194 23.8581C42.2132 23.8546 42.2083 23.8492 42.2053 23.8428L41.8803 23.1635C41.8729 23.1473 41.8705 23.1289 41.8735 23.1108C41.9149 22.8888 41.8675 22.6887 41.7311 22.5105C41.7175 22.4924 41.7023 22.4909 41.6856 22.506Z" fill="#057A72"/>
<path d="M7.78181 16.7423L10.2447 18.5069C10.2669 18.5224 10.273 18.5428 10.2629 18.5679C10.1773 18.7788 10.0015 19.0431 9.8765 19.1809C9.64923 19.4325 9.39999 19.3504 9.14469 19.1681C8.45731 18.6771 7.77145 18.186 7.08711 17.695C7.06438 17.6784 7.04469 17.6814 7.02802 17.704L6.4856 18.4557C6.47095 18.4757 6.451 18.4843 6.42575 18.4813C6.07044 18.4398 5.54923 18.1092 5.84923 17.6912C6.41489 16.9045 6.98307 16.1194 7.55378 15.3362C7.56943 15.3146 7.59039 15.306 7.61666 15.3106C7.75504 15.3337 7.89469 15.3929 8.0356 15.4883C8.40226 15.7368 8.29014 15.9673 8.06438 16.2731C7.96489 16.4081 7.86716 16.5439 7.7712 16.6805C7.75403 16.7046 7.75757 16.7252 7.78181 16.7423Z" fill="black"/>
<path d="M6.65226 21.2942L6.10908 22.3584C6.09342 22.3895 6.10125 22.4131 6.13257 22.4292L7.43938 23.0874C7.44944 23.0926 7.45741 23.101 7.46196 23.1113C7.46652 23.1215 7.46737 23.1331 7.46438 23.1439C7.42348 23.294 7.34191 23.4823 7.21969 23.7088C6.98484 24.1448 6.73332 24.0522 6.34696 23.8564C5.34898 23.3523 4.35125 22.8487 3.35378 22.3456C3.33307 22.335 3.32499 22.3185 3.32954 22.2959C3.41741 21.8372 3.68105 21.2098 4.25226 21.4847C4.57954 21.6419 4.90226 21.8038 5.22044 21.9705C5.2246 21.9727 5.22916 21.974 5.23385 21.9744C5.23854 21.9747 5.24328 21.9742 5.24778 21.9727C5.25229 21.9712 5.25647 21.9689 5.2601 21.9658C5.26373 21.9627 5.26673 21.9589 5.26893 21.9547L5.82802 20.8581C5.82972 20.8549 5.83076 20.8513 5.83107 20.8476C5.83139 20.844 5.83097 20.8403 5.82984 20.8368C5.82872 20.8333 5.8269 20.8301 5.82451 20.8273C5.82212 20.8245 5.81919 20.8222 5.8159 20.8205L4.46893 20.1419C4.44267 20.1288 4.43358 20.1083 4.44166 20.0801C4.48964 19.9089 4.57423 19.7124 4.69544 19.4904C4.90075 19.1131 5.15302 19.1681 5.49923 19.3421C6.51994 19.8572 7.54166 20.3729 8.56438 20.889C8.57318 20.8935 8.58017 20.9009 8.58417 20.9098C8.58817 20.9187 8.58894 20.9286 8.58635 20.938C8.52423 21.1745 8.42499 21.3989 8.28863 21.6113C8.05226 21.9803 7.73863 21.7898 7.39241 21.615C7.16615 21.5006 6.93938 21.3871 6.71211 21.2746C6.68585 21.2616 6.6659 21.2681 6.65226 21.2942Z" fill="black"/>
<path d="M46.8742 20.3197C48.6606 20.8409 49.1955 22.2779 49.7909 23.8572C49.8823 24.0997 50.0545 24.3023 50.3076 24.465C50.3191 24.4725 50.3287 24.4825 50.3357 24.4943C50.3426 24.506 50.3468 24.5192 50.3477 24.5328C50.3654 24.8059 50.3374 25.0743 50.2636 25.3379C50.2581 25.3573 50.2483 25.3752 50.2348 25.3902C50.2213 25.4053 50.2045 25.4171 50.1857 25.4247C50.1669 25.4323 50.1467 25.4356 50.1264 25.4342C50.1062 25.4329 50.0865 25.427 50.0689 25.4169C49.4841 25.081 49.1288 24.6947 48.7288 24.0862C48.1636 23.2261 47.8174 22.7079 47.2333 22.0527C46.9944 21.7846 46.8381 21.5651 46.7644 21.3944C46.6285 21.0806 46.574 20.7435 46.6008 20.383C46.6016 20.37 46.6061 20.3574 46.6137 20.3465C46.6213 20.3357 46.6317 20.3269 46.6439 20.3212C46.7035 20.2931 46.7803 20.2926 46.8742 20.3197Z" fill="#057A72"/>
<path d="M30.3894 24.4295C31.9841 23.4376 33.5886 22.4608 35.1826 21.4682C35.3068 21.3913 35.4 21.3077 35.5583 21.3183C35.5721 21.3192 35.585 21.3254 35.5945 21.3354C35.6039 21.3455 35.6091 21.3588 35.6091 21.3725C35.6086 21.5236 35.5805 21.6984 35.525 21.8967C35.0864 23.4662 33.9212 24.4235 32.4288 25.0441C31.8101 25.3021 31.2439 25.276 30.7303 24.9657C30.4803 24.8151 30.1114 25.041 29.8492 25.0855C29.8385 25.0871 29.8275 25.0856 29.8176 25.0812C29.8077 25.0768 29.7993 25.0696 29.7935 25.0605C29.7876 25.0514 29.7845 25.0408 29.7846 25.03C29.7847 25.0192 29.7879 25.0086 29.7939 24.9996C29.9621 24.7466 30.1144 24.6005 30.3894 24.4295Z" fill="#057A72"/>
<path d="M4.58711 25.9532L5.15605 26.1678C5.18635 26.1793 5.20731 26.1701 5.21893 26.1399L5.80605 24.6043C5.81514 24.5797 5.83307 24.5659 5.85984 24.5629C6.11666 24.535 6.55378 24.6291 6.6106 24.9379C6.62524 25.0142 6.60277 25.1302 6.54317 25.2859C6.33307 25.8387 6.12171 26.3907 5.90908 26.942C5.68257 27.5302 5.33105 27.4594 4.81211 27.2629C4.05403 26.9752 3.2962 26.6877 2.53863 26.4005C2.04696 26.2137 1.87423 25.9855 2.0659 25.4779C2.31388 24.8207 2.56438 24.1647 2.81741 23.51C2.8255 23.4894 2.84065 23.4773 2.86287 23.4738C3.2712 23.4151 3.76741 23.6116 3.58029 24.1027C3.42171 24.5189 3.26287 24.9349 3.10378 25.3506C3.09469 25.3752 3.10252 25.3923 3.12726 25.4019L3.63635 25.5932C3.66413 25.6037 3.68332 25.5949 3.69393 25.5668L4.20302 24.2352C4.2106 24.2157 4.22499 24.2041 4.2462 24.2006C4.61135 24.1464 5.1659 24.3347 4.97651 24.7926C4.82651 25.1561 4.68736 25.5231 4.55908 25.8937C4.54948 25.9228 4.55883 25.9426 4.58711 25.9532Z" fill="black"/>
<path d="M67.9962 27.9723C68.0644 28.0049 68.1305 28.0418 68.1947 28.083C70.0841 29.2961 71.9919 30.5259 73.9182 31.7726C73.9268 31.7782 73.9342 31.7856 73.9396 31.7943C73.945 31.803 73.9483 31.8128 73.9494 31.823C73.9505 31.8332 73.9493 31.8435 73.9459 31.8532C73.9424 31.8628 73.9368 31.8716 73.9295 31.8788C73.9002 31.909 73.8528 31.9208 73.7871 31.9142C73.4462 31.8796 73.1098 31.8284 72.7773 31.7478C72.1182 31.5874 71.7841 32.092 71.328 32.461C71.3189 32.4685 71.3075 32.4724 71.2957 32.4723C71.2839 32.4722 71.2726 32.4679 71.2636 32.4603C70.654 31.9431 70.0374 31.4403 69.4136 30.9517C68.4778 30.2192 67.7629 29.7191 67.2689 29.4515C66.603 29.0907 65.8924 28.7428 65.3068 28.3255C64.3775 27.6633 63.5396 26.8988 62.7932 26.0322C62.5841 25.789 61.9568 25.0479 62.0159 24.7323C62.0182 24.7204 62.0238 24.7093 62.0321 24.7004C62.0404 24.6914 62.0511 24.685 62.0629 24.6818C62.1836 24.6482 62.274 24.6399 62.3341 24.657C63.0896 24.8729 63.8576 25.2658 64.6379 25.8357C65.9295 26.7778 66.7962 27.3954 67.9962 27.9723Z" fill="#057A72"/>
<path d="M20.4833 26.5624C19.281 27.43 17.9954 28.2427 16.9439 29.3091C16.8151 29.4396 16.6535 29.5305 16.4591 29.5817C15.7328 29.775 15.006 29.9673 14.2788 30.1586C14.2439 30.1677 14.2199 30.1694 14.2068 30.1639C14.196 30.1592 14.1863 30.1525 14.1781 30.144C14.17 30.1356 14.1636 30.1257 14.1594 30.1148C14.1551 30.1039 14.1531 30.0924 14.1535 30.0808C14.1538 30.0691 14.1565 30.0577 14.1614 30.0472C14.331 29.6781 14.5932 29.3801 14.9477 29.1532C15.6371 28.7134 16.2992 28.2371 16.9341 27.7245C17.5846 27.1993 17.9793 26.8865 18.1182 26.7861C18.8788 26.2368 19.6737 25.7397 20.503 25.2949C20.7343 25.1714 20.975 25.0704 21.225 24.9921C21.2573 24.9821 21.2689 24.9931 21.2598 25.0252C21.1927 25.2698 21.1257 25.509 21.0591 25.743C20.9626 26.0814 20.7707 26.3545 20.4833 26.5624Z" fill="#057A72"/>
<path d="M5.22801 29.2534C5.05882 30.117 4.88433 30.9791 4.70453 31.8396C4.61968 32.2471 4.34089 32.2742 3.96968 32.2011C2.84594 31.9787 1.72347 31.7548 0.602257 31.5293C0.574479 31.5238 0.560338 31.5072 0.559832 31.4796C0.557307 31.3129 0.582812 31.1086 0.636348 30.8666C0.741651 30.3906 1.02347 30.4117 1.44392 30.4975C2.26615 30.6642 3.08862 30.8279 3.91135 30.9886C3.93963 30.9941 3.95655 30.9828 3.96211 30.9547L4.20074 29.7708C4.20579 29.7452 4.19569 29.7298 4.17044 29.7248L1.07726 29.108C1.05049 29.1025 1.03786 29.0862 1.03938 29.0591C1.04594 28.9335 1.07044 28.7473 1.11286 28.5002C1.20377 27.973 1.49544 27.9911 1.95074 28.0822C2.77044 28.2459 3.5914 28.4098 4.41362 28.574C4.41961 28.5751 4.42577 28.5749 4.43168 28.5735C4.43759 28.572 4.4431 28.5694 4.44784 28.5657C4.45259 28.5619 4.45645 28.5573 4.45918 28.552C4.4619 28.5466 4.46341 28.5408 4.46362 28.5349C4.4712 28.2336 4.58761 28.0534 4.81286 27.9941C5.07953 27.9241 5.59695 28.0852 5.92044 28.1462C5.94569 28.1508 5.95882 28.1656 5.95983 28.1907C5.97498 28.5974 5.9068 29.3648 5.2818 29.2187C5.2515 29.2117 5.23357 29.2232 5.22801 29.2534Z" fill="black"/>
<path d="M60.8349 36.1122H60.3629C60.3487 36.1122 60.3347 36.1156 60.3221 36.1222C60.3096 36.1287 60.2989 36.1382 60.2909 36.1499L58.8318 38.3385C58.8238 38.3505 58.8132 38.3606 58.8007 38.368C58.7883 38.3754 58.7743 38.38 58.7599 38.3814C58.1379 38.4439 57.3061 38.337 57.2371 37.5522C57.2068 37.2133 57.3152 36.9746 57.5296 36.6846C57.7897 36.3316 58.0576 35.9884 58.3333 35.6551C58.3373 35.6503 58.3402 35.6448 58.3419 35.6388C58.3436 35.6328 58.3439 35.6265 58.343 35.6204C58.3421 35.6142 58.3399 35.6083 58.3365 35.603C58.3331 35.5977 58.3287 35.5931 58.3235 35.5895C57.4422 35.0031 57.1167 34.1734 57.347 33.1004C57.4434 32.65 57.6982 32.2622 58.1114 31.9368C59.1303 31.134 61.0318 31.2417 62.2326 31.5489C62.5515 31.6303 62.8439 31.7681 62.8455 32.1213C62.854 34.1669 62.8596 36.2091 62.8621 38.2481C62.8621 38.2612 62.8577 38.2738 62.8495 38.2839C62.8414 38.2941 62.8301 38.3011 62.8174 38.3038C62.4548 38.3817 62.0902 38.4083 61.7235 38.3837C61.1159 38.3438 60.8849 38.0749 60.8894 37.492C60.8929 37.0481 60.8912 36.6043 60.8841 36.1604C60.8836 36.1283 60.8672 36.1122 60.8349 36.1122ZM60.9083 34.5562V32.9807C60.9083 32.9631 60.9013 32.9462 60.8888 32.9338C60.8763 32.9214 60.8594 32.9144 60.8417 32.9144H60.1144C59.8922 32.9144 59.6791 32.9939 59.5219 33.1354C59.3648 33.2769 59.2765 33.4689 59.2765 33.669V33.8679C59.2765 34.068 59.3648 34.2599 59.5219 34.4015C59.6791 34.543 59.8922 34.6225 60.1144 34.6225H60.8417C60.8594 34.6225 60.8763 34.6155 60.8888 34.6031C60.9013 34.5907 60.9083 34.5738 60.9083 34.5562Z" fill="#057A72"/>
<path d="M39.0636 34.2128C38.9023 34.9132 38.9485 35.7891 39.4235 36.3487C40.0932 37.1372 41.347 37.0981 42.1705 36.5935C42.2029 36.5739 42.2414 36.567 42.2785 36.5741C42.3156 36.5812 42.3487 36.6018 42.3712 36.6319C43.0871 37.5861 42.4326 38.3023 41.4447 38.4703C39.3879 38.8198 37.3758 37.9695 37.0152 35.7349C36.5538 32.8737 38.5833 30.789 41.5068 31.4548C42.1303 31.5964 42.825 32.0634 42.6076 32.8135C42.5414 33.0419 42.3998 33.2254 42.1826 33.364C42.1725 33.3703 42.1607 33.3735 42.1488 33.3732C42.1368 33.373 42.1251 33.3692 42.1152 33.3625C41.0432 32.6305 39.4 32.7555 39.0636 34.2128Z" fill="#057A72"/>
<path d="M54.3932 36.9256L52.4439 36.9331C52.4307 36.9331 52.4179 36.9375 52.4074 36.9457C52.397 36.9539 52.3896 36.9654 52.3864 36.9783L52.0568 38.2782C52.0513 38.3013 52.0369 38.3169 52.0136 38.3249C51.4023 38.5418 49.9432 38.5727 50.1894 37.5063C50.2682 37.1653 50.3601 36.8272 50.4651 36.4918C50.9763 34.855 51.5048 33.304 52.0508 31.8389C52.0917 31.7297 52.1689 31.7139 52.2674 31.6747C52.9871 31.3885 54.6886 31.2017 55.025 32.1793C55.6848 34.0983 56.2614 36.2357 56.7576 38.0583C56.7646 38.0834 56.7598 38.1063 56.7432 38.1268C56.4227 38.5252 55.4727 38.4936 55.0848 38.3483C54.6848 38.1984 54.5401 37.3526 54.4545 36.9745C54.4516 36.9607 54.4439 36.9483 54.4327 36.9394C54.4215 36.9305 54.4076 36.9256 54.3932 36.9256ZM52.7326 35.3365C52.7302 35.344 52.7297 35.352 52.731 35.3598C52.7322 35.3676 52.7353 35.3749 52.7399 35.3814C52.7445 35.3878 52.7506 35.393 52.7576 35.3967C52.7646 35.4005 52.7724 35.4025 52.7803 35.4027L54.0667 35.4253C54.0747 35.4254 54.0827 35.4236 54.0899 35.4201C54.0971 35.4166 54.1034 35.4114 54.1082 35.4051C54.1131 35.3987 54.1164 35.3913 54.1179 35.3834C54.1193 35.3756 54.1189 35.3675 54.1167 35.3598L53.5106 33.236C53.5075 33.2254 53.5011 33.2162 53.4924 33.2095C53.4836 33.2029 53.4729 33.1992 53.4619 33.199C53.4509 33.1989 53.4401 33.2022 53.4311 33.2086C53.4222 33.215 53.4155 33.224 53.4121 33.2345L52.7326 35.3365Z" fill="#057A72"/>
<path d="M45.697 35.8893L45.703 38.2488C45.703 38.277 45.6894 38.294 45.6621 38.3001C45.0439 38.4431 43.7212 38.6028 43.7159 37.6192C43.7083 36.1837 43.7081 34.1784 43.7151 31.6032C43.7151 31.578 43.7275 31.5625 43.7523 31.5565C44.3689 31.4081 45.6576 31.2394 45.675 32.2162C45.6856 32.8353 45.6879 33.4606 45.6818 34.0923C45.6819 34.0978 45.6836 34.1031 45.6868 34.1077C45.6899 34.1122 45.6943 34.1157 45.6995 34.1177C45.7046 34.1196 45.7101 34.12 45.7153 34.1187C45.7206 34.1174 45.7253 34.1145 45.7288 34.1103L47.9841 31.5308C48.0013 31.5113 48.0227 31.5002 48.0485 31.4977C49.2273 31.3923 49.9598 32.3909 49.0515 33.3437C48.5257 33.8955 47.9962 34.4302 47.4629 34.9478C47.4522 34.9581 47.4459 34.9721 47.4455 34.9869C47.4451 35.0017 47.4505 35.0161 47.4606 35.0269L49.6515 37.3737C49.6646 37.3878 49.6712 37.4046 49.6712 37.4242C49.6704 38.3053 48.7454 38.6171 48.0295 38.3129C47.8007 38.215 47.4932 37.9032 47.2924 37.6674C46.7788 37.0659 46.2606 36.4679 45.7379 35.8734C45.7101 35.8423 45.6965 35.8476 45.697 35.8893Z" fill="#057A72"/>
<path d="M23.0008 36.7509C23.6 36.7328 24.1462 36.8548 24.144 37.6004C24.1424 38.0924 24.1369 38.585 24.1273 39.078C24.1273 39.1016 24.1157 39.1162 24.0924 39.1217C23.5667 39.2543 22.5205 39.3673 22.247 38.8069C22.2 38.71 22.1738 38.5539 22.1682 38.3385C22.1672 38.3093 22.1523 38.2948 22.1235 38.2948L17.8803 38.2955C17.8556 38.2955 17.8432 38.3081 17.8432 38.3332L17.8417 39.0841C17.8417 39.1077 17.8303 39.1222 17.8076 39.1278C17.3515 39.2347 16.3227 39.356 16.0121 38.9018C15.9414 38.7984 15.8982 38.6267 15.8826 38.3867C15.8318 37.6155 15.7659 36.6055 16.928 36.7659C16.95 36.7688 16.9722 36.765 16.992 36.7552C17.0117 36.7454 17.0279 36.73 17.0387 36.7109C17.1235 36.5618 17.175 36.3939 17.1932 36.2071C17.3089 35.0292 17.4243 33.8513 17.5394 32.6734C17.5717 32.3455 17.6311 32.1108 17.7174 31.9692C18.0106 31.4894 18.4553 31.5226 19.0515 31.5211C19.9859 31.5196 20.9205 31.518 21.8553 31.5165C22.3477 31.516 22.6768 31.6928 22.8424 32.0468C22.9197 32.2114 22.9573 32.5172 22.9553 32.9641C22.9498 34.2128 22.9505 35.4612 22.9576 36.7094C22.9576 36.738 22.972 36.7519 23.0008 36.7509ZM19.0614 36.7155C19.0611 36.719 19.0615 36.7226 19.0626 36.7259C19.0638 36.7293 19.0656 36.7324 19.0681 36.735C19.0705 36.7377 19.0734 36.7398 19.0767 36.7412C19.08 36.7426 19.0836 36.7433 19.0871 36.7433L20.9576 36.7463C20.9644 36.7463 20.971 36.7436 20.9758 36.7388C20.9806 36.734 20.9834 36.7275 20.9834 36.7207L20.9841 33.126C20.9841 33.1192 20.9814 33.1127 20.9766 33.1079C20.9717 33.1031 20.9652 33.1004 20.9583 33.1004L19.4553 33.1011C19.4489 33.1011 19.4426 33.1035 19.4379 33.1078C19.4331 33.1122 19.4301 33.1181 19.4296 33.1245L19.0614 36.7155Z" fill="#057A72"/>
<path d="M32.3613 33.123C31.8356 33.118 31.3098 33.1205 30.7841 33.1306C30.7179 33.1316 30.6732 33.0964 30.65 33.0251C30.4538 32.4173 30.306 31.5369 31.2689 31.5332C32.8588 31.5271 34.4576 31.5211 36.0651 31.5151C36.0805 31.5151 36.0956 31.5193 36.1088 31.5271C36.122 31.5349 36.1328 31.5461 36.1401 31.5595C36.3613 31.9526 36.4932 32.7638 36.0045 33.0334C35.8995 33.0916 35.7174 33.1208 35.4583 33.1208C35.1093 33.1213 34.7603 33.1218 34.4113 33.1223C34.3871 33.1223 34.375 33.1343 34.375 33.1584L34.3757 38.2406C34.3757 38.2557 34.3704 38.2703 34.3607 38.282C34.351 38.2937 34.3376 38.3017 34.3227 38.3046C33.9737 38.3779 33.6184 38.4088 33.2568 38.3973C32.6826 38.3787 32.397 38.0819 32.4 37.507C32.4076 36.059 32.4086 34.6115 32.403 33.1644C32.403 33.1368 32.3891 33.123 32.3613 33.123Z" fill="#057A72"/>
<path d="M26.8227 34.1224C27.6227 34.145 28.423 34.1415 29.2235 34.1119C29.3311 34.1081 29.3629 34.2166 29.3977 34.2971C29.603 34.7716 29.6189 35.64 28.8833 35.6483C28.1975 35.6563 27.5121 35.6578 26.8273 35.6528C26.796 35.6523 26.7803 35.6679 26.7803 35.6995V36.7802C26.7803 36.8114 26.796 36.8269 26.8273 36.8269L29.625 36.8247C29.6528 36.8247 29.6735 36.8367 29.6871 36.8608C29.8886 37.2168 29.9361 37.5766 29.8295 37.9401C29.7182 38.3212 29.4061 38.3701 29.0227 38.3709C28.0045 38.3724 26.9859 38.3721 25.9667 38.3701C25.0992 38.3686 24.8667 37.8919 24.8667 37.1222C24.8667 35.6053 24.8664 34.0893 24.8659 32.574C24.8659 32.1296 25.0328 31.8291 25.3667 31.6725C25.5308 31.5951 25.8351 31.5562 26.2795 31.5557C27.3821 31.5537 28.4848 31.5532 29.5879 31.5542C29.6136 31.5542 29.6328 31.5658 29.6455 31.5889C29.9212 32.0935 29.9977 33.1057 29.1477 33.1012C28.3745 33.0966 27.601 33.0924 26.8273 33.0884C26.7954 33.0884 26.7795 33.1042 26.7795 33.1358L26.7803 34.0795C26.7803 34.0907 26.7847 34.1015 26.7927 34.1096C26.8006 34.1176 26.8114 34.1222 26.8227 34.1224Z" fill="#057A72"/>
<path d="M36.9061 47.1246C36.9394 46.967 36.9172 46.9587 36.8394 47.0998C36.3349 48.0118 35.197 49.7237 33.9235 48.9962C32.3659 48.1059 32.0295 46.5718 32.4902 44.9111C32.7848 43.8462 33.1644 42.8174 33.3697 41.7276C33.3715 41.7174 33.3708 41.7069 33.3676 41.6971C33.3644 41.6872 33.3588 41.6783 33.3514 41.6711C33.3439 41.6638 33.3347 41.6586 33.3247 41.6557C33.3147 41.6528 33.3041 41.6524 33.2939 41.6546C33.1242 41.69 32.9697 41.7788 32.8455 41.9144C31.9697 42.8747 31.1008 44.1294 30.8962 45.4361C30.697 46.7141 30.3947 47.9749 30.1909 49.2552C30.1384 49.5861 30.1086 49.9193 30.1015 50.2547C30.101 50.2797 30.0931 50.3038 30.0788 50.3239C29.9146 50.5554 29.6828 50.6807 29.3833 50.6998C28.5414 50.7545 27.7174 50.6561 26.9114 50.4045C26.8891 50.3975 26.8593 50.3767 26.822 50.342C26.7977 50.3189 26.7765 50.2903 26.7583 50.2562C26.1394 49.0948 26.2295 47.9342 26.4598 46.6863C26.4606 46.6824 26.4598 46.6785 26.4578 46.6751C26.4558 46.6718 26.4525 46.6693 26.4488 46.6682C26.445 46.6671 26.441 46.6674 26.4374 46.6691C26.4339 46.6707 26.4311 46.6736 26.4295 46.6772C26.1391 47.2913 25.8227 47.8908 25.4803 48.4757C25.0934 49.138 24.8295 49.5658 24.6886 49.7591C24.3159 50.2702 23.8591 50.706 23.3182 51.0665C22.8485 51.3798 22.3447 51.4328 21.8068 51.2254C20.6917 50.7939 20.203 49.7026 20.197 48.5767C20.1902 47.3566 20.4568 46.2103 20.8038 45.0572C20.9682 44.5097 21.0773 43.99 21.2114 43.4508C21.2129 43.4441 21.2122 43.437 21.2092 43.4308C21.2063 43.4245 21.2013 43.4194 21.1951 43.4163C21.189 43.4132 21.1819 43.4122 21.1751 43.4136C21.1683 43.4149 21.1621 43.4185 21.1576 43.4237C21.1086 43.4819 21.0644 43.5497 21.025 43.627C20.4381 44.7773 19.9588 45.97 19.5871 47.2052C19.4735 47.5813 19.2995 48.3106 19.0652 49.3931C18.9545 49.9059 18.8136 50.2509 18.4826 50.6071C17.9705 51.1577 17.1576 51.0823 16.8568 50.3623C16.3114 49.0541 16.3795 47.6563 16.575 46.2849C16.677 45.5704 16.7783 44.8717 16.8788 44.1889C16.9076 43.9951 16.8843 43.9885 16.8091 44.1693C16.5129 44.8833 16.2886 45.7305 16.0318 46.3978C15.5598 47.6239 15.1053 49.1054 14.2008 50.0046C14.0472 50.1572 13.6841 50.4866 13.1114 50.9927C12.6061 51.4401 11.8447 51.8626 11.1924 51.9643C9.49545 52.2294 8.75303 50.583 8.75985 49.1792C8.76136 48.8543 8.75631 48.5292 8.7447 48.2039C8.74419 48.1868 8.7404 48.1725 8.73333 48.1609C8.72374 48.1459 8.71288 48.1353 8.70076 48.1293C8.69541 48.1266 8.68957 48.1251 8.68361 48.1248C8.67766 48.1245 8.67171 48.1253 8.66616 48.1274C8.6606 48.1294 8.65556 48.1326 8.65134 48.1367C8.64712 48.1408 8.64383 48.1457 8.64167 48.1511C8.19091 49.2229 7.79318 50.336 7.26591 51.3723C6.32576 53.219 3.59545 53.3967 1.87197 52.7649C0.267424 52.1774 0.0712113 49.7086 0.0962113 48.295C0.121464 46.9193 0.199494 45.8365 0.330303 45.0467C0.63409 43.2105 0.994697 41.3819 1.11061 39.5209C1.12955 39.2106 1.1697 38.5215 0.840151 38.3468C0.829397 38.3412 0.820418 38.3327 0.814204 38.3223C0.80799 38.3119 0.804784 38.3 0.804941 38.288C0.805098 38.2759 0.808611 38.2641 0.815092 38.2539C0.821573 38.2436 0.83077 38.2354 0.841666 38.23C1.33409 37.9875 1.85505 37.8442 2.40454 37.8C3.55202 37.7071 4.68182 37.8065 5.79394 38.0982C6.13838 38.1886 6.4298 38.2978 6.66818 38.4259C7.23258 38.7309 6.83864 40.5618 6.72045 41.0897C6.53207 41.9317 6.33561 42.9718 6.13106 44.21C5.8851 45.6997 5.78359 47.1992 5.82652 48.7085C5.8447 49.3401 5.94672 49.9469 6.13258 50.5288C6.13868 50.5483 6.14981 50.5658 6.16487 50.5797C6.17993 50.5936 6.19838 50.6033 6.21838 50.6079C6.23839 50.6124 6.25925 50.6117 6.27889 50.6058C6.29853 50.5998 6.31625 50.5889 6.3303 50.574C6.57828 50.3134 6.79646 50.0237 6.98485 49.7049C7.57929 48.6982 8.00808 47.707 8.27121 46.7315C8.46136 46.0273 8.55985 45.1311 8.72045 44.3998C9.1149 42.5977 9.44066 40.8698 9.69773 39.2159C9.72853 39.0181 9.7048 38.8162 9.62652 38.6104C9.61692 38.5863 9.61793 38.5624 9.62955 38.5388C9.67651 38.4419 9.75 38.3844 9.85 38.3664C11.0432 38.1525 12.5667 38.6699 12.6644 40.0489C12.7583 41.3849 12.5083 42.7632 12.3235 44.0849C12.1295 45.4722 12.0477 46.8098 12.0364 48.182C12.0338 48.5254 12.0636 48.9018 12.1258 49.311C12.1583 49.5226 12.2273 49.6732 12.4591 49.7177C13.3144 49.8803 14.1788 48.9118 14.5038 48.2347C14.7553 47.7106 15.0068 47.1871 15.2583 46.6644C15.3982 46.3737 15.5328 45.9196 15.6621 45.302C15.9207 44.0679 16.1162 43.2766 16.2485 42.9281C16.4924 42.2887 17.2409 41.4422 18.0326 41.6064C18.4341 41.69 18.8947 41.995 19.1447 42.349C19.3492 42.6389 19.3667 43.029 19.3136 43.3619C19.1854 44.1758 19.0712 44.9915 18.9712 45.8089C18.9237 46.201 18.9098 46.5876 18.9295 46.9687C18.9297 46.9751 18.9321 46.9811 18.9363 46.9859C18.9405 46.9906 18.9463 46.9936 18.9527 46.9945C18.9591 46.9954 18.9656 46.9941 18.9712 46.9907C18.9768 46.9874 18.9811 46.9823 18.9833 46.9762C19.478 45.5634 20.0826 44.1874 20.6515 42.8023C20.7808 42.4875 20.9841 42.1559 21.2614 41.8075C21.3912 41.6438 21.5222 41.5423 21.6545 41.5032C22.1439 41.3578 23.025 41.8188 23.4121 42.0251C24.6712 42.6984 24.7061 44.0345 24.425 45.2628C24.076 46.7842 23.827 48.3131 23.678 49.8495C23.6771 49.8596 23.6794 49.8698 23.6846 49.8786C23.6899 49.8874 23.6978 49.8943 23.7072 49.8983C23.7166 49.9023 23.7271 49.9032 23.7371 49.901C23.7471 49.8987 23.7561 49.8933 23.7629 49.8856C24.0599 49.5412 24.3258 49.1731 24.5606 48.7815C25.2308 47.6634 25.7588 46.7706 26.1447 46.1034C26.3045 45.8262 26.4621 45.4903 26.6439 45.183C26.7258 45.0444 26.7861 44.868 26.825 44.6536C27.1152 43.0584 27.4008 41.87 27.4008 40.7086C27.4007 40.6684 27.415 40.6295 27.4411 40.5987C27.4671 40.568 27.5033 40.5474 27.5432 40.5407C27.7864 40.4993 27.9977 40.5362 28.2402 40.564C28.8457 40.6338 29.4336 40.7711 30.0038 40.976C30.6939 41.223 30.8485 41.5476 31.0023 42.2021C31.0841 42.5531 31.1227 42.9068 31.1182 43.2633C31.118 43.2685 31.1197 43.2736 31.1228 43.2778C31.1259 43.282 31.1304 43.285 31.1354 43.2864C31.1405 43.2878 31.1458 43.2874 31.1507 43.2854C31.1555 43.2834 31.1595 43.2799 31.1621 43.2753C31.6182 42.4986 32.2136 41.8574 32.9485 41.3518C33.4258 41.0242 33.7909 40.9722 34.2932 41.2418C35.575 41.928 35.5492 43.2527 35.2538 44.4901C35.0684 45.2674 34.8836 46.0446 34.6992 46.8218C34.5942 47.2672 34.6694 47.6506 34.925 47.9719C35.3258 48.4757 35.8606 47.7392 36.0735 47.4206C36.5088 46.7694 36.9361 46.1129 37.3553 45.4511C37.4578 45.289 37.5472 45.1024 37.6235 44.8916C38.1462 43.45 39.0538 41.8677 40.3818 41.0671C41.3356 40.4917 42.5803 40.9052 43.5401 41.2968C44.1765 41.5567 44.4265 41.928 44.2962 42.6231C43.9447 44.4931 42.6871 46.0311 41.0523 46.9725C41.0422 46.9782 41.0334 46.9858 41.0264 46.9948C41.0194 47.0039 41.0143 47.0142 41.0114 47.0252C40.8015 47.8536 40.6833 48.6655 40.6379 49.5753C40.5932 50.4836 41.5242 50.0573 41.9114 49.8359C43.3379 49.0203 44.5182 47.7151 45.5167 46.3767C45.6864 46.1485 45.825 45.9685 45.8826 45.6771C46.1098 44.5273 46.2874 43.3705 46.4151 42.2066C46.4177 42.18 46.4326 42.1657 46.4599 42.1637C46.6649 42.1486 46.8689 42.1243 47.072 42.0906C47.88 41.9551 48.5944 42.1426 49.2152 42.6532C49.5129 42.898 49.5 43.5796 49.4712 43.9238C49.4699 43.9344 49.4726 43.9452 49.4788 43.954C49.4851 43.9627 49.4944 43.9688 49.5049 43.9711C49.5155 43.9734 49.5265 43.9716 49.5358 43.9662C49.5452 43.9608 49.5521 43.9521 49.5553 43.9418C49.725 43.4809 49.9114 42.9613 50.1773 42.5952C50.6144 41.9927 51.4674 41.4859 52.2348 41.6704C52.9833 41.8511 53.4871 42.721 53.6735 43.4071C53.772 43.7706 53.8109 44.2459 53.7902 44.8328C53.7609 45.6768 53.6354 46.5078 53.4136 47.3257C53.4123 47.3294 53.4123 47.3334 53.4137 47.3371C53.4151 47.3408 53.4178 47.3439 53.4213 47.3458C53.4247 47.3477 53.4288 47.3483 53.4326 47.3475C53.4365 47.3467 53.44 47.3446 53.4424 47.3415C53.853 46.9022 54.2427 46.4445 54.6114 45.9685C54.7033 45.85 54.772 45.7177 54.8174 45.5716C55.1563 44.4786 55.4455 43.3735 55.6848 42.2563C55.7278 42.056 55.6833 41.8941 55.5515 41.7705C55.5449 41.7643 55.5402 41.7563 55.538 41.7475C55.5359 41.7387 55.5364 41.7295 55.5394 41.7209C55.5425 41.7124 55.548 41.7049 55.5552 41.6994C55.5625 41.6939 55.5712 41.6906 55.5803 41.69C56.4894 41.6146 58.8053 41.7608 59.0818 42.9357C59.1187 43.0913 59.1025 43.3361 59.0333 43.67C58.7939 44.8313 58.5879 45.9045 58.2992 47.1495C58.1977 47.5855 57.6955 49.6115 58.0371 49.8608C58.4583 50.1695 59.3242 48.7461 59.4947 48.4117C59.8553 47.7053 60.2066 46.9941 60.5485 46.2781C60.7354 45.8859 60.8836 45.54 60.9932 45.2403C61.1654 44.7693 61.2684 44.4068 61.3023 44.1527C61.3614 43.7124 61.4207 43.4119 61.4803 43.2512C61.678 42.7157 62.4727 43.1541 62.7682 43.3514C63.3326 43.728 63.3288 44.4389 63.2364 45.0422C63.0763 46.087 62.9265 47.1336 62.7871 48.182C62.7674 48.3291 62.7778 48.4735 62.8182 48.6151C62.8217 48.6273 62.828 48.6386 62.8365 48.6481C62.845 48.6576 62.8556 48.6651 62.8674 48.67C63.0909 48.7672 63.422 48.6038 63.5811 48.4644C63.7492 48.3163 63.9987 48.0264 64.3295 47.5946C64.9472 46.7877 65.5371 45.9608 66.0992 45.1137C66.2013 44.9601 66.2697 44.8014 66.3045 44.6377C66.31 44.6119 66.3214 44.5877 66.3378 44.5669C66.3542 44.5462 66.3752 44.5295 66.3992 44.5181C66.4232 44.5068 66.4494 44.501 66.476 44.5014C66.5025 44.5018 66.5286 44.5082 66.5523 44.5203C66.6553 44.573 66.6992 44.7259 66.7015 44.8479C66.7136 45.608 66.7073 46.368 66.6826 47.1276C66.6697 47.5132 66.6159 48.5044 66.8932 48.7378C66.9135 48.7547 66.9396 48.7631 66.9659 48.7612C67.179 48.7441 67.3422 48.6364 67.4553 48.4381C67.9462 47.5818 68.1689 46.5628 68.4053 45.6055C68.407 45.5989 68.4072 45.592 68.4059 45.5853C68.4047 45.5786 68.402 45.5722 68.398 45.5667C68.3941 45.5611 68.3889 45.5564 68.383 45.553C68.3771 45.5496 68.3705 45.5474 68.3636 45.5468C67.6485 45.4745 67.4758 44.698 67.4735 44.103C67.4684 42.9 67.7182 41.814 68.2227 40.8449C68.5553 40.2063 70.0144 40.6574 70.2098 41.2562C70.2184 41.2828 70.2364 41.2931 70.2636 41.287C70.4083 41.2547 70.5682 41.1861 70.6977 41.1718C71.5848 41.0716 72.1333 41.8082 72.2386 42.596C72.2644 42.7873 72.2455 43.071 72.1818 43.447C71.9672 44.7143 71.8553 45.9914 71.8462 47.2782C71.8417 47.9237 71.8856 48.8049 72.2682 49.2582C72.8553 49.9541 73.8773 48.0593 74.0682 47.691C74.6096 46.6491 75.2187 45.6477 75.8954 44.6867C75.9535 44.6044 76.0255 44.5413 76.1114 44.4977C76.1302 44.488 76.1512 44.4835 76.1724 44.4846C76.1935 44.4856 76.2141 44.4922 76.2319 44.5036C76.2498 44.515 76.2643 44.5309 76.2741 44.5497C76.284 44.5685 76.2887 44.5895 76.2879 44.6106C76.2849 44.6789 76.2679 44.7505 76.2371 44.8253C75.6932 46.1327 74.999 47.454 74.1545 48.789C73.6455 49.5934 72.8727 50.4859 71.9886 50.7623C70.4523 51.2435 69.4985 49.6258 69.4068 48.3605C69.325 47.2459 69.4909 46.1011 69.6432 45.0008C69.6435 44.9963 69.6423 44.9918 69.6397 44.9881C69.6371 44.9843 69.6333 44.9816 69.629 44.9804C69.6246 44.9792 69.6199 44.9795 69.6157 44.9813C69.6116 44.983 69.6082 44.9862 69.6061 44.9902C69.0515 46.2028 68.5 47.4161 67.7947 48.5495C67.5068 49.012 66.8667 49.8336 66.4114 48.9043C66.223 48.5197 66.128 48.1218 66.1265 47.7105C66.1235 47.0759 66.1492 46.4302 66.2038 45.7735C66.2046 45.7663 66.2029 45.759 66.199 45.7528C66.1951 45.7467 66.1892 45.7421 66.1822 45.7398C66.1753 45.7375 66.1678 45.7377 66.161 45.7402C66.1541 45.7428 66.1484 45.7476 66.1447 45.7539C65.577 46.6416 64.9396 47.4854 64.2326 48.2852C63.9821 48.5684 63.6543 48.8696 63.2492 49.189C62.6563 49.6564 62.0432 49.6951 61.4098 49.3049C60.6273 48.8229 60.6886 48.0826 60.703 47.2602C60.7029 47.2545 60.7009 47.2491 60.6972 47.2448C60.6936 47.2405 60.6886 47.2375 60.6831 47.2364C60.6775 47.2352 60.6718 47.236 60.6667 47.2386C60.6617 47.2411 60.6577 47.2453 60.6553 47.2504C60.2967 48.0844 59.8563 48.8842 59.3341 49.6499C59.0043 50.1339 58.5788 50.5122 58.0576 50.7849C57.2765 51.1938 56.5364 51.0244 55.7356 50.7931C55.0205 50.5875 54.7114 50.2403 54.5348 49.5369C54.3379 48.7521 54.3182 47.9591 54.4758 47.1577C54.4768 47.1514 54.4758 47.1449 54.4728 47.1392C54.4698 47.1335 54.4651 47.129 54.4592 47.1262C54.4534 47.1235 54.4468 47.1227 54.4405 47.1241C54.4342 47.1254 54.4285 47.1288 54.4242 47.1336C53.6035 48.1278 52.7674 49.1184 51.9159 50.1055C51.3864 50.7193 50.6803 51.4717 49.8727 50.6621C49.3871 50.1748 49.4136 49.5105 49.6538 48.9141C49.7124 48.7685 49.7985 48.72 49.9121 48.7687C49.9322 48.7772 49.9502 48.7899 49.9651 48.8058C49.9799 48.8218 49.9913 48.8407 49.9985 48.8613L50.2258 49.5369C50.2314 49.5537 50.2407 49.569 50.253 49.5817C50.2652 49.5945 50.2802 49.6044 50.2968 49.6107C50.3134 49.617 50.3311 49.6196 50.3489 49.6183C50.3666 49.617 50.3838 49.6119 50.3992 49.6032C50.7174 49.4247 51.0735 48.5646 51.1955 48.2136C51.7247 46.6873 52.0217 45.1142 52.0864 43.4945C52.1005 43.1365 52.0727 42.828 52.003 42.5689C51.7818 41.7434 50.8697 42.5064 50.6098 42.8543C49.7735 43.9772 49.5311 45.1574 49.2985 46.5816C48.9732 48.5774 48.7048 50.6792 48.4932 52.8869C48.4167 53.692 48.3606 54.4037 48.3977 55.1425C48.4674 56.5531 46.4023 56.4974 45.4727 56.3438C45.3298 56.3202 45.2402 56.2649 45.2038 56.1781C45.0851 55.8969 45.0146 55.6037 44.9924 55.2984C44.9379 54.5588 44.9258 53.8182 44.9561 53.0767C45.0232 51.4187 45.1078 50.2514 45.2099 49.5746C45.3124 48.8942 45.4182 48.2141 45.5273 47.5343C45.5369 47.4741 45.523 47.4683 45.4856 47.517C44.5856 48.6821 43.4053 49.6356 42.1833 50.4407C41.702 50.758 41.2848 50.9691 40.9318 51.0741C39.2136 51.5839 37.2652 50.8413 36.8561 48.9894C36.7129 48.3432 36.7727 47.7572 36.9061 47.1246ZM69.0121 42.8302C69.2136 42.3053 69.2303 41.6937 69.0606 41.1628C69.0596 41.1598 69.0498 41.1201 69.0311 41.0438C69.0159 40.9815 68.9881 40.9383 68.9477 40.9142C68.914 40.894 68.8736 40.8877 68.8352 40.8967C68.7968 40.9057 68.7635 40.9293 68.7424 40.9624C68.1652 41.8707 67.9455 42.8395 68.0833 43.8688C68.1144 44.103 68.2083 44.3229 68.3402 44.5052C68.3501 44.5187 68.3637 44.5291 68.3794 44.5352C68.3951 44.5413 68.4123 44.5429 68.4288 44.5396C68.4454 44.5364 68.4606 44.5285 68.4728 44.5169C68.485 44.5054 68.4937 44.4906 68.4977 44.4743C68.6336 43.9175 68.8051 43.3695 69.0121 42.8302ZM42.1227 43.4915C41.8338 44.1176 41.5818 44.7585 41.3667 45.4142C41.3298 45.5277 41.3098 45.6326 41.3068 45.729C41.3053 45.7752 41.3242 45.7858 41.3636 45.7607C42.3076 45.1544 43.2515 44.1957 43.5144 43.0893C43.6053 42.7062 43.6502 42.3156 43.6492 41.9174C43.6492 41.7984 43.553 41.6636 43.4258 41.7419C42.7674 42.1479 42.4841 42.7097 42.1227 43.4915Z" fill="#EF7F1B"/>
<path d="M63.9538 54.8081C63.9805 54.5892 63.9528 54.5822 63.8704 54.787C63.5184 55.6637 63.2237 56.5702 62.9864 57.5066C62.622 58.9428 62.7447 60.468 62.153 61.8402C61.9333 62.3508 61.378 62.7793 60.8318 62.4148C60.0614 61.9004 59.8303 60.9786 59.7326 60.1381C59.6204 59.1731 59.5843 58.4199 59.6242 57.8787C59.6778 57.1526 59.7215 56.4349 59.7553 55.7254C59.7557 55.719 59.7537 55.7127 59.7496 55.7078C59.7455 55.7028 59.7398 55.6995 59.7334 55.6986C59.727 55.6976 59.7205 55.6991 59.7152 55.7027C59.7098 55.7062 59.706 55.7117 59.7045 55.7179C59.4904 56.5675 59.2937 57.4125 59.1144 58.253C58.9568 58.991 58.3871 61.4877 57.4682 61.6112C57.0068 61.6737 56.6417 61.316 56.5182 60.8897C56.297 60.1215 56.353 59.2893 56.3508 58.5105C56.351 58.5029 56.3484 58.4955 56.3435 58.4897C56.3386 58.4839 56.3318 58.4801 56.3242 58.4789C56.3166 58.4777 56.3087 58.4793 56.3021 58.4833C56.2954 58.4873 56.2904 58.4935 56.2879 58.5008C55.7508 60.1034 55.2265 61.6971 54.2477 63.131C54.2339 63.1516 54.2271 63.1758 54.228 63.2003C54.3076 65.2308 53.7182 67.5143 52.7788 69.3008C52.3962 70.0275 51.6151 70.9185 50.8424 71.1399C50.1061 71.3508 49.2288 70.9893 48.8273 70.3235C48.2242 69.3211 48.6894 67.9059 49.2098 66.9781C49.5803 66.3168 50.2083 65.6179 50.7394 64.9725C50.7555 64.9529 50.7644 64.9305 50.7659 64.9054C50.8114 64.1694 50.8914 63.4393 51.0061 62.7153C51.0477 62.4532 50.9348 62.2627 50.7818 62.0736C50.6083 61.8598 50.5591 61.731 50.5886 61.4741C50.623 61.1759 50.7007 60.8892 50.822 60.6141C51.2103 59.7319 51.4752 58.8143 51.6167 57.8613C51.6924 57.3477 51.6523 56.1314 50.9811 56.0425C50.5015 55.98 50.1098 56.4003 49.8545 56.7738C49.5687 57.1926 49.2861 57.6133 49.0068 58.0361C48.7836 58.3735 48.5255 58.8045 48.2326 59.3292C47.7621 60.1735 47.2636 61.0396 46.6735 61.807C46.3982 62.165 46.1889 62.4088 46.0454 62.5383C45.4197 63.1032 43.9545 63.4346 43.578 62.3478C43.4215 61.8964 43.3187 61.501 43.2697 61.1616C43.251 61.0361 43.2154 60.9306 43.1629 60.8453C43.1592 60.8395 43.154 60.8349 43.1477 60.832C43.1415 60.8291 43.1345 60.8281 43.1277 60.829C43.1209 60.83 43.1145 60.8329 43.1093 60.8374C43.1041 60.8419 43.1004 60.8477 43.0985 60.8543C42.8379 61.8299 42.5427 62.6184 42.2129 63.2199C41.8629 63.8586 41.4404 64.3429 40.9454 64.6727C40.3311 65.0824 39.6962 65.0922 38.9939 64.9408C38.028 64.7315 37.3689 64.5003 37.1182 63.4218C36.9523 62.7085 36.9932 62.3568 37.0227 61.7573C37.0247 61.7101 37.0134 61.7069 36.9886 61.7475C36.7992 62.0608 36.6167 62.396 36.4235 62.6829C35.8386 63.5528 35.2856 64.4972 34.5265 65.2278C34.2591 65.4846 33.8076 65.7979 33.4386 65.5298C33.2356 65.3817 33.0394 65.2255 32.85 65.0613C32.4492 64.7134 32.6189 63.9881 32.7811 63.5618C32.7885 63.5426 32.7998 63.525 32.8144 63.5103C32.829 63.4955 32.8465 63.4838 32.8659 63.476C32.9664 63.4353 33.0417 63.475 33.0917 63.595C33.1679 63.7803 33.2561 63.9758 33.3561 64.1817C33.4076 64.2871 33.475 64.2984 33.5583 64.2156C34.0197 63.7577 34.2409 62.7236 34.3568 62.097C34.6204 60.6761 34.6962 59.2446 34.5841 57.8026C34.5606 57.5006 34.4545 56.709 34.0083 56.7874C32.9174 56.9779 32.4523 58.6868 32.3045 59.6049C32.0227 61.3559 32.0303 63.1115 32.1121 64.864C32.2106 66.9753 32.2462 68.3435 32.2189 68.9686C32.1836 69.787 32.1442 70.3245 32.1008 70.5811C31.9712 71.3485 29.9553 71.4879 29.3553 71.4736C28.8394 71.4608 28.7659 70.8259 28.7015 70.3988C28.5747 69.5628 28.4957 68.7221 28.4644 67.8766C28.3962 66.0324 28.4106 64.264 28.5076 62.5715C28.5273 62.231 28.4912 62.225 28.3992 62.5534C28.0912 63.653 27.6131 64.7152 26.9651 65.7399C26.8954 65.8499 26.8505 65.9664 26.8303 66.0894C26.697 66.9028 26.6114 67.8736 26.3606 68.5695C26.2151 68.9731 25.922 69.3384 25.6076 69.7383C24.8318 70.7249 22.6424 72.8149 21.2856 71.4954C20.7462 70.9705 20.7864 70.3107 21.0265 69.648C21.2629 68.9952 21.6088 68.4121 22.0644 67.8984C22.3811 67.5422 22.6841 67.3599 23.1091 67.149C23.2704 67.0685 23.2818 66.8967 23.3045 66.6911C23.4561 65.3362 23.3439 63.9098 23.3697 62.5677C23.3722 62.4352 23.352 62.4316 23.3091 62.5572C23.1576 63 22.9884 63.4489 22.8015 63.9038C22.4568 64.7435 21.828 65.0869 20.9242 64.9235C19.9204 64.742 19.3454 63.7599 19.2621 62.811C19.197 62.0676 19.1061 61.4621 19.1735 60.7835C19.2518 59.9957 19.346 59.2097 19.4561 58.4254C19.4788 58.2638 19.4419 58.0697 19.3454 57.8433C19.1167 57.3055 20.0447 57.2174 20.3454 57.231C20.8621 57.2536 21.7636 57.7182 21.953 58.2326C22.0252 58.4305 22.0389 58.6393 21.9939 58.8593C21.6917 60.3286 21.4856 61.7347 22.0061 63.1582C22.0328 63.232 22.0674 63.2794 22.1098 63.3005C22.1568 63.3236 22.1889 63.3105 22.2061 63.2613C22.5356 62.3177 22.9583 61.2738 23.2045 60.4416C23.4444 59.6317 23.6278 58.809 23.7545 57.9736C23.8288 57.484 23.9606 57.1775 24.5311 57.4027C25.2674 57.6934 26.8757 58.4262 27.1848 59.2125C27.2439 59.3631 27.2654 59.5813 27.2492 59.867C27.1624 61.3813 27.0694 62.8921 26.9704 64.3993C26.9694 64.4129 26.972 64.4134 26.978 64.4008C27.3745 63.5518 27.7811 62.7063 28.1977 61.8643C28.3442 61.5685 28.48 61.192 28.6053 60.7346C28.674 60.4855 28.7159 60.2096 28.7311 59.9069C28.7694 59.1316 28.8055 58.3564 28.8394 57.5812C28.8404 57.5569 28.8354 57.5326 28.825 57.5104C28.7401 57.3281 28.8553 57.234 29.0333 57.2121C29.4611 57.1584 29.8896 57.1308 30.3189 57.1293C31.0189 57.1263 31.5432 57.0818 31.8538 57.6957C31.9757 57.9359 32.0242 58.3253 32.0462 58.5987C32.0629 58.807 32.1028 58.8116 32.1659 58.6122C32.4492 57.7122 32.703 56.9659 33.5288 56.4424C35.0106 55.5018 35.9159 56.6089 36.1954 57.9766C36.4454 59.1987 36.4884 60.429 36.3242 61.6677C36.3187 61.7089 36.329 61.7134 36.3553 61.6813C36.6053 61.3755 36.8422 61.0634 37.0659 60.7451C37.1376 60.6427 37.1848 60.5285 37.2076 60.4024C37.4364 59.1166 37.603 57.9527 37.7076 56.9109C37.7318 56.6689 37.7156 56.3965 37.6591 56.0937C37.654 56.0691 37.6432 56.0475 37.6265 56.029L37.5364 55.9311C37.5324 55.9267 37.5294 55.9216 37.5277 55.916C37.526 55.9104 37.5256 55.9045 37.5264 55.8988C37.5273 55.893 37.5295 55.8875 37.5327 55.8826C37.536 55.8778 37.5404 55.8738 37.5454 55.8708C38.378 55.3865 40.8189 55.7872 41.1704 56.8408C41.3083 57.2558 41.2401 57.8847 41.1689 58.3117C40.9757 59.4753 40.7348 60.657 40.6341 61.8311C40.578 62.4934 40.6485 63.1295 40.8454 63.7396C40.8493 63.7515 40.8557 63.7624 40.8641 63.7717C40.8726 63.781 40.8829 63.7883 40.8945 63.7932C40.9061 63.7981 40.9186 63.8005 40.9311 63.8003C40.9437 63.8 40.9561 63.797 40.9674 63.7916C41.153 63.7019 41.3007 63.5897 41.4242 63.4127C42.128 62.405 42.4795 61.2497 42.9015 60.1117C43.2384 59.2034 43.4535 58.1704 43.547 57.0126C43.5732 56.6852 43.7677 56.521 44.1303 56.52C45.4644 56.5155 45.5076 58.2545 45.4932 59.159C45.479 60.0075 45.4369 60.8548 45.3667 61.7008C45.348 61.9253 45.427 62.0583 45.6038 62.1C45.9795 62.1896 46.5326 61.4327 46.7621 61.078C47.4894 59.9523 48.1184 58.7764 48.6492 57.5503C49.0424 56.6405 49.6674 55.0401 50.5439 54.7095C51.3515 54.4052 52.7886 55.2442 53.3826 55.7405C54.0013 56.2567 54.3053 56.8938 54.2947 57.652C54.2765 58.9127 54.0258 60.3527 53.1886 61.3499C53.1851 61.3541 53.1827 61.3591 53.1815 61.3645C53.1802 61.3699 53.1803 61.3754 53.1816 61.3808C53.1829 61.3861 53.1855 61.391 53.1891 61.3952C53.1927 61.3994 53.1972 61.4027 53.2023 61.4049C53.6212 61.5811 53.9273 61.6993 54.0144 62.2002C54.0166 62.2123 54.0225 62.2234 54.0313 62.2321C54.0401 62.2408 54.0513 62.2466 54.0635 62.2486C54.0756 62.2507 54.0881 62.249 54.0991 62.2437C54.1101 62.2383 54.1192 62.2297 54.125 62.219C55.0124 60.6058 55.6907 58.9273 56.1598 57.1835C56.1972 57.0439 56.2765 56.9618 56.3977 56.9372C56.4106 56.9346 56.424 56.936 56.4362 56.9412C56.4484 56.9465 56.4587 56.9553 56.4659 56.9666C56.6836 57.3146 56.7939 57.6751 56.797 58.0481C56.8045 58.8901 56.8609 59.6498 56.9659 60.3271C56.9927 60.4983 57.0508 60.6806 57.1401 60.8739C57.5235 61.7046 57.9947 60.2977 58.0447 60.0997C58.4947 58.3132 58.6364 56.3445 59.0076 54.6763C59.0841 54.3329 59.2932 53.8697 59.5326 53.6121C60.1901 52.9064 61.3257 53.2107 61.8712 53.89C61.9985 54.0497 62.0576 54.2222 62.0659 54.4398C62.1121 55.5982 61.9757 56.7188 62.0038 57.8967C62.0088 58.0971 62.0311 58.2768 62.0704 58.436C62.0717 58.4412 62.0746 58.4458 62.0788 58.4492C62.083 58.4525 62.0883 58.4544 62.0936 58.4545C62.099 58.4546 62.1043 58.4529 62.1086 58.4497C62.1129 58.4465 62.116 58.4419 62.1174 58.4367C62.4745 57.2217 62.824 56.0064 63.1659 54.7908C63.2477 54.5011 63.3793 54.1162 63.5606 53.6362C63.6515 53.3957 63.7558 53.2162 63.8735 53.0977C64.4598 52.5058 65.4583 52.627 66.1242 53.0315C66.8419 53.4673 67.2364 54.1165 67.3076 54.9791C67.4689 56.9312 67.0674 58.8156 67.0811 60.7602C67.0821 60.845 67.124 60.8782 67.2068 60.8596C67.23 60.8541 67.2576 60.8209 67.2894 60.7602C67.6187 60.1255 67.9356 59.4851 68.2401 58.8389C68.3225 58.6642 68.3861 58.4704 68.431 58.2575C68.7386 56.8039 69.2417 55.3685 69.9841 54.0972C70.378 53.4223 70.9 53.1256 71.703 53.0759C72.9598 52.9976 74.1227 53.3335 75.2879 53.8253C75.2961 53.8287 75.3034 53.834 75.3093 53.8406C75.3153 53.8472 75.3196 53.8551 75.3221 53.8636C75.3245 53.8721 75.3251 53.8811 75.3236 53.8898C75.3221 53.8986 75.3187 53.9069 75.3136 53.9141C74.9621 54.418 74.3258 54.2207 73.9508 54.6018C73.5651 54.9926 73.3106 55.7217 73.1636 56.2022C72.798 57.3997 72.5858 58.6238 72.5273 59.8745C72.5126 60.1888 72.5323 60.5101 72.5864 60.8385C72.5887 60.8524 72.5938 60.8656 72.6015 60.8774C72.6092 60.8891 72.6192 60.8992 72.631 60.9069C72.6427 60.9146 72.6559 60.9198 72.6698 60.9222C72.6836 60.9245 72.6978 60.924 72.7114 60.9206C73.325 60.77 73.6394 59.8752 73.8917 59.3044C74.1379 58.7485 74.0841 58.3712 74.1174 57.8116C74.1507 57.2566 74.3053 56.6947 74.4129 56.1427C74.4621 55.8911 74.5818 55.4927 74.6098 55.1508C74.611 55.1389 74.6156 55.1277 74.6232 55.1187C74.6308 55.1097 74.641 55.1033 74.6523 55.1003C75.353 54.9256 76.0735 55.0363 76.4311 55.7413C76.5083 55.8939 76.5326 56.0473 76.5038 56.2014C76.2295 57.6761 76.2318 59.2833 76.2977 60.7782C76.3023 60.8792 76.3207 60.9811 76.353 61.084C76.3598 61.1052 76.3714 61.1246 76.3869 61.1405C76.4024 61.1565 76.4215 61.1687 76.4425 61.1762C76.4636 61.1836 76.4861 61.1861 76.5083 61.1834C76.5305 61.1808 76.5518 61.173 76.5704 61.1608C76.9189 60.9334 77.1083 60.4853 77.3326 60.0236C77.4508 59.7816 77.5704 59.518 77.6917 59.2328C78.3002 57.8023 78.8485 56.4033 79.3364 55.0356C79.3939 54.8736 79.5583 54.5144 79.7864 54.7584C79.8591 54.8357 79.8795 54.9264 79.8477 55.0303C79.4068 56.4492 79.0566 57.5192 78.797 58.2402C78.4626 59.168 78.002 60.0972 77.4151 61.0275C77.3444 61.1395 77.2265 61.2683 77.0614 61.4139C75.8364 62.4924 74.5341 61.0554 74.1326 59.9905C74.1299 59.9833 74.1252 59.9771 74.119 59.9725C74.1129 59.968 74.1056 59.9652 74.0979 59.9647C74.0902 59.9641 74.0826 59.9658 74.0759 59.9694C74.0691 59.973 74.0635 59.9785 74.0598 59.9852C73.7356 60.5598 73.3879 61.1661 72.8826 61.5028C72.3227 61.8771 70.853 61.6775 70.2167 61.5419C69.2704 61.3408 68.7394 60.8641 68.5174 59.9219C68.5161 59.9162 68.5131 59.9109 68.5087 59.907C68.5043 59.903 68.4988 59.9004 68.4929 59.8997C68.487 59.899 68.4811 59.9 68.4758 59.9028C68.4706 59.9056 68.4663 59.9099 68.4636 59.9151C67.9894 60.849 67.4962 61.7008 66.6295 62.2491C65.4712 62.9812 63.8901 61.795 63.6144 60.6201C63.5952 60.5377 63.5808 60.3025 63.5712 59.9144C63.5631 59.5654 63.5091 59.2218 63.4091 58.8834C63.3788 58.7824 63.3682 58.5173 63.3879 58.4119C63.6232 57.1662 63.8119 55.9649 63.9538 54.8081ZM49.6015 67.384C49.2765 68.0852 48.85 69.5531 49.4917 70.1879C49.5061 70.2024 49.5238 70.2133 49.5433 70.2196C49.5628 70.226 49.5836 70.2277 49.6039 70.2246C49.6243 70.2216 49.6436 70.2138 49.6604 70.2019C49.6773 70.19 49.6911 70.1744 49.7008 70.1563C49.8356 69.9048 49.9331 69.659 49.9932 69.419C50.2704 68.3008 50.4641 67.1721 50.5742 66.0329C50.5746 66.0285 50.5737 66.0242 50.5715 66.0204C50.5693 66.0166 50.5659 66.0136 50.5619 66.0118C50.558 66.01 50.5535 66.0095 50.5492 66.0103C50.5449 66.0111 50.5409 66.0132 50.5379 66.0163C50.148 66.422 49.8359 66.8779 49.6015 67.384ZM23.125 68.095C22.4379 68.409 21.772 69.6781 21.8614 70.4018C21.8646 70.4269 21.8738 70.4507 21.8883 70.4715C21.9027 70.4922 21.9219 70.5093 21.9443 70.5211C21.9667 70.533 21.9916 70.5394 22.017 70.5397C22.0423 70.5401 22.0674 70.5344 22.0901 70.5231C22.8076 70.1676 23.1788 68.8654 23.1977 68.1424C23.198 68.1338 23.1961 68.1253 23.1921 68.1177C23.1882 68.11 23.1822 68.1035 23.175 68.0987C23.1677 68.094 23.1593 68.0912 23.1505 68.0905C23.1418 68.0898 23.133 68.0914 23.125 68.095Z" fill="#057A72"/>
<path d="M12.5606 59.7171C12.561 59.725 12.5641 59.7326 12.5695 59.7386C12.5748 59.7445 12.5821 59.7484 12.59 59.7497C12.5979 59.7509 12.606 59.7494 12.613 59.7454C12.6199 59.7414 12.6252 59.7351 12.628 59.7276C13.1977 57.9683 13.8114 56.2474 14.4689 54.5649C14.5437 54.3721 14.6316 54.1855 14.7326 54.0053C15.0765 53.3887 15.5891 53.1482 16.2705 53.2838C17.2038 53.4691 17.6955 54.7735 17.8212 55.6388C17.8838 56.0676 17.9033 56.8268 17.8796 57.9163C17.8493 59.2916 17.8078 60.6663 17.7553 62.0405C17.6977 63.5506 17.7674 65.1163 17.9015 66.5774C17.9841 67.4797 18.2417 68.4701 18.7796 69.245C18.9765 69.529 19.2962 69.4341 19.5758 69.3987C19.5931 69.3966 19.6106 69.3988 19.6268 69.4052C19.643 69.4115 19.6574 69.4217 19.6687 69.4349C19.6799 69.4481 19.6877 69.4639 19.6913 69.4809C19.695 69.4978 19.6943 69.5154 19.6894 69.532C19.5326 70.0599 19.1614 70.5562 18.5796 70.6429C17.5341 70.7995 16.3447 69.8182 15.7424 69.0575C15.3359 68.5439 15.0631 67.9491 14.9243 67.2733C14.6796 66.0856 14.6508 64.8949 14.6212 63.5084C14.5753 61.373 14.621 59.2391 14.7583 57.1067C14.8003 56.453 14.8556 55.9132 14.9243 55.4875C14.999 55.0215 14.9563 55.0105 14.7962 55.4543C14.2543 56.9576 13.778 58.5317 13.3674 60.1765C13.2482 60.6555 13.1513 61.0891 13.0765 61.4772C12.8962 62.4209 12.9038 63.6116 12.8538 64.4671C12.8121 65.1856 12.453 66.0246 11.7932 66.3718C11.2886 66.6369 10.6386 66.5578 10.1947 66.2016C9.59774 65.7219 9.23637 64.6855 9.09774 63.9588C8.85935 62.708 8.7591 61.3652 8.79698 59.9302C8.82577 58.8261 8.86642 57.7203 8.91895 56.6127C8.91924 56.6051 8.91695 56.5977 8.91244 56.5917C8.90794 56.5856 8.9015 56.5813 8.89418 56.5794C8.88686 56.5774 8.8791 56.578 8.87217 56.5811C8.86524 56.5841 8.85956 56.5894 8.85607 56.5961C7.81061 58.6981 7.65455 61.1925 7.54774 63.4896C7.47097 65.1399 7.58637 66.7735 7.89395 68.3902C7.99142 68.9029 8.03309 69.2593 8.01895 69.4597C7.87804 71.4081 5.77122 71.9963 4.82274 70.1074C4.51062 69.486 4.31137 68.8798 4.16895 68.1665C3.91743 66.9048 3.80531 65.6282 3.83258 64.3368C3.85304 63.3886 3.91668 62.3952 3.9341 61.4998C3.96794 59.763 4.02678 58.027 4.11061 56.2918C4.13637 55.7526 4.11213 55.2058 4.11137 54.6537C4.11144 54.637 4.11518 54.6205 4.12235 54.6054C4.12952 54.5903 4.13993 54.5769 4.15285 54.5662C4.16578 54.5555 4.1809 54.5477 4.19716 54.5435C4.21343 54.5392 4.23043 54.5386 4.24698 54.5415C4.83107 54.644 5.43183 54.6327 5.96516 54.9143C6.77425 55.3414 7.24774 55.9416 7.27198 56.8793C7.2841 57.3176 7.2038 57.6881 7.27198 58.1528C7.27406 58.1687 7.2812 58.1836 7.29236 58.1952C7.30352 58.2068 7.31811 58.2145 7.334 58.2173C7.3499 58.22 7.36627 58.2177 7.38073 58.2106C7.3952 58.2035 7.40699 58.1919 7.4144 58.1777C7.60152 57.8312 7.66365 57.2634 7.76668 56.8732C8.1894 55.2653 8.97955 52.2844 11.3591 54.0316C11.9778 54.486 12.3551 55.0916 12.4909 55.8482C12.5273 56.0486 12.548 56.5494 12.553 57.3507C12.5576 58.146 12.5601 58.9348 12.5606 59.7171Z" fill="#057A72"/>
</g>
<defs>
<clipPath id="clip0_660_32072">
<rect width="80" height="72" fill="white"/>
</clipPath>
</defs>
</svg>
