<svg width="770" height="174" viewBox="0 0 770 174" fill="none" xmlns="http://www.w3.org/2000/svg">
<g clip-path="url(#clip0_553_930)">
<path d="M856 -12C840.123 -9.9017 824.246 -7.80338 808.369 -5.70508C802.873 -5.00564 797.29 -4.21878 792.056 -2.29534C785.775 0.0652523 780.105 4.17443 773.649 6.01044C769.2 7.23446 764.577 7.49674 760.215 9.07047C751.753 12.1305 745.734 24.9991 737.359 28.3214C730.816 30.9443 723.401 30.4197 716.771 32.6929C702.29 37.7638 693.392 62.2497 678.039 63.5611C673.59 63.9108 669.053 62.7743 664.604 63.124C657.8 63.5611 651.606 67.3206 645.063 69.1566C637.997 71.1675 630.582 71.1675 623.342 72.3915C610.169 74.5772 598.043 88.9596 586.179 95.167C576.67 100.151 564.981 98.5768 554.251 99.6259C540.031 101.025 526.771 116.369 512.552 116.631C502.781 116.806 493.098 113.571 483.502 114.708C474.255 115.844 465.532 120.828 456.285 120.216C449.044 119.691 442.414 115.844 435.174 115.32C423.222 114.533 412.667 123.363 400.803 125.112C395.219 125.986 389.462 125.199 383.879 125.636C378.208 126.074 372.276 128.084 369.136 132.806C359.976 146.969 338.254 148.368 321.418 149.592C313.479 150.204 305.366 149.067 297.515 150.641C288.268 152.477 280.068 157.985 270.908 159.646C260.789 161.482 250.233 158.772 240.201 160.958C229.122 163.406 219.788 171.712 208.534 173.111C202.166 173.897 194.228 173.11 191 178.619V217H855.477L856 -12Z" fill="#EEEADE"/>
<path fill-rule="evenodd" clip-rule="evenodd" d="M244 192.171C234.647 187.881 224.88 183.591 222.444 182.835C217.597 181.348 212.311 180.495 207.294 180.641C205.272 179.593 203.202 178.472 201.132 177.326C198.842 175.498 196.431 173.572 194.214 173.377C183.96 167.38 175.24 161.701 175.24 161.701L157.654 153.73L151.979 156.436C151.565 155.802 151.127 155.095 150.688 154.802C145.379 151.39 146.207 144.418 139.046 144.418C134.905 144.418 132.494 143.272 130.058 139.957C128.329 137.617 121.753 135.472 120.096 138.47C119.268 139.957 115.517 141.663 113.91 141.639C113.349 141.615 108.424 142.614 106.5 144.418L97 149.5L87.5 158.5L73.5 161.701L61 167L30 193H243.489C242.807 192.756 242.051 192.464 241.199 192.171H244Z" fill="#EEEADE"/>
</g>
<defs>
<clipPath id="clip0_553_930">
<rect width="770" height="174" fill="white" transform="matrix(-1 0 0 1 770 0)"/>
</clipPath>
</defs>
</svg>
