<svg width="725" height="478" viewBox="0 0 725 478" fill="none" xmlns="http://www.w3.org/2000/svg">
<path d="M99.8077 29.0427C97.6158 24.2675 90.6486 25.9897 86.8128 27.3205C81.333 29.2776 76.4795 32.9568 73.2699 37.8103C65.4417 49.3961 68.8861 63.4087 77.5755 73.3506C86.1866 83.1359 99.5729 87.5197 111.785 81.6486C122.901 76.3253 128.851 64.1916 126.893 52.1361C124.623 37.7321 111.863 27.8685 97.6941 27.1639C95.189 27.0074 95.189 30.9215 97.6941 31.078C110.846 31.7826 122.431 41.5679 123.292 55.1108C124.154 68.184 114.133 80.0046 100.825 80.3961C87.2825 80.8657 73.8962 68.184 72.7219 54.7194C72.174 48.2219 74.3659 41.7245 78.828 36.9492C80.8633 34.7573 83.3684 33.0351 86.03 31.7826C88.0653 30.8432 94.8759 27.9468 96.285 30.9998C97.4592 33.27 100.825 31.3129 99.8077 29.0427Z" fill="#E0DCD0"/>
<path d="M100.747 21.2146C100.512 14.7171 100.825 8.29795 101.53 1.87878C101.843 -0.62626 97.9289 -0.62626 97.6157 1.87878C96.9112 8.29795 96.5981 14.7171 96.8329 21.2146C96.9112 23.7196 100.825 23.7196 100.747 21.2146Z" fill="#E0DCD0"/>
<path d="M74.679 26.3814C70.7649 21.1365 66.1462 16.5961 60.7447 12.8385C58.6311 11.4294 56.674 14.7956 58.7877 16.2047C63.6412 19.4925 67.8684 23.6415 71.3129 28.3384C72.8002 30.3738 76.1664 28.4167 74.679 26.3814Z" fill="#E0DCD0"/>
<path d="M126.346 32.5656C132.138 29.0428 137.462 24.9721 142.315 20.2752C144.116 18.553 141.376 15.7348 139.575 17.5353C134.957 21.9974 129.947 25.9115 124.388 29.1994C122.197 30.5302 124.154 33.8964 126.346 32.5656Z" fill="#E0DCD0"/>
<path d="M39.765 55.424C45.7144 56.0502 51.5856 55.8154 57.4568 54.9543C59.9619 54.5629 58.8659 50.8053 56.4392 51.1968C50.8811 52.0579 45.323 52.1361 39.765 51.5099C37.2599 51.275 37.3382 55.1891 39.765 55.424Z" fill="#E0DCD0"/>
<path d="M59.4139 96.9921C64.0326 91.5906 68.6513 86.1891 73.27 80.7876C74.9139 78.9088 72.174 76.0906 70.5301 78.0477C65.9114 83.4492 61.2927 88.8507 56.6741 94.2522C55.0301 96.131 57.77 98.8709 59.4139 96.9921Z" fill="#E0DCD0"/>
<path d="M100.277 91.8256C100.277 96.9923 100.825 102.159 101.843 107.247C102.313 109.752 106.07 108.656 105.6 106.23C104.661 101.454 104.191 96.6792 104.191 91.9039C104.191 89.3206 100.277 89.3206 100.277 91.8256Z" fill="#E0DCD0"/>
<path d="M119.222 85.4066C124.78 90.0253 130.416 94.5656 135.974 99.1843C137.931 100.75 140.671 98.0101 138.714 96.4444C133.156 91.8257 127.52 87.2854 121.962 82.6667C120.083 81.1011 117.265 83.8409 119.222 85.4066Z" fill="#E0DCD0"/>
<path d="M134.174 57.5379C139.106 58.0076 144.116 58.5556 149.048 59.0253C151.553 59.2601 151.553 55.346 149.048 55.1112C144.116 54.6415 139.106 54.0935 134.174 53.6238C131.669 53.3106 131.669 57.2248 134.174 57.5379Z" fill="#E0DCD0"/>
<path d="M215.886 416.21C238.352 404.528 261.537 394.224 285.321 385.417C287.118 384.758 286.34 381.882 284.542 382.541C260.519 391.468 237.094 401.832 214.388 413.634C212.651 414.473 214.149 417.109 215.886 416.21Z" fill="#E0DCD0"/>
<path d="M216.725 390.21C240.27 396.38 263.694 402.911 287.059 409.8C288.916 410.339 289.695 407.464 287.838 406.925C264.473 400.035 241.048 393.505 217.504 387.334C215.647 386.855 214.868 389.731 216.725 390.21Z" fill="#E0DCD0"/>
<path d="M246.081 386.436C240.928 384.159 235.836 381.403 232.002 377.21C227.089 371.818 226.79 365.348 227.808 358.398C228.467 353.905 230.624 350.31 230.384 345.637C230.025 339.527 228.407 333.536 224.873 328.503C223.794 326.946 221.158 328.443 222.297 330.001C225.891 335.093 228.767 343.361 227.269 349.711C226.79 351.688 225.711 353.486 225.292 355.522C224.633 358.698 224.214 362.112 224.274 365.407C224.513 377.389 234.578 384.638 244.583 389.012C246.32 389.791 247.878 387.214 246.081 386.436Z" fill="#E0DCD0"/>
<path d="M275.496 323.711C271.961 329.342 269.865 335.752 269.445 342.402C269.086 348.273 270.823 353.366 271.662 359.057C272.68 365.827 270.224 373.016 265.491 377.869C260.279 383.141 252.85 385.118 245.721 386.196C243.804 386.496 244.643 389.371 246.5 389.072C253.21 388.113 260.039 386.256 265.431 381.883C270.584 377.749 273.819 371.698 274.597 365.168C275.316 359.117 272.98 353.905 272.441 347.974C271.722 339.946 273.759 332.038 278.012 325.268C279.151 323.591 276.515 322.093 275.496 323.711Z" fill="#E0DCD0"/>
<path d="M247.818 378.887C244.463 376.73 242.186 373.136 242.067 369.062C241.947 365.168 243.385 361.573 242.786 357.619C241.947 358.098 241.108 358.578 240.269 359.057C242.186 361.393 244.163 363.73 246.081 366.066C246.8 366.905 248.357 366.486 248.597 365.407C249.436 361.034 250.214 356.721 250.993 352.347C250.035 352.347 249.076 352.347 248.118 352.347C248.896 354.803 249.436 357.499 250.454 359.836C250.873 360.794 251.293 361.873 252.311 362.292C255.247 363.49 257.763 358.039 259.021 356.361C258.122 356.241 257.224 356.121 256.265 356.002C257.344 360.375 257.583 365.048 255.666 369.242C254.767 371.159 253.509 372.836 252.131 374.454C250.993 375.832 249.555 377.928 247.698 378.168C245.781 378.468 246.62 381.343 248.477 381.044C250.574 380.744 251.892 379.127 253.27 377.629C255.127 375.592 256.924 373.495 258.122 370.979C260.579 366.007 260.459 360.435 259.141 355.163C258.781 353.785 257.104 353.845 256.385 354.803C255.666 355.762 255.007 356.661 254.288 357.619C253.33 358.937 253.569 359.357 252.91 357.919C252.012 355.942 251.592 353.545 250.933 351.508C250.514 350.19 248.297 349.951 248.058 351.508C247.339 355.882 246.56 360.255 245.661 364.569C246.5 364.329 247.339 364.149 248.177 363.91C246.26 361.573 244.283 359.237 242.366 356.9C241.288 355.642 239.67 357.08 239.85 358.338C240.629 363.251 238.173 367.864 239.61 372.836C240.689 376.491 243.025 379.366 246.2 381.403C247.938 382.482 249.436 379.906 247.818 378.887Z" fill="#E0DCD0"/>
<path d="M223.615 329.821C226.55 329.162 229.785 333.356 231.103 335.632C232.302 337.729 233.26 339.946 234.578 341.983C235.597 343.6 238.233 342.102 237.154 340.485C234.039 335.632 230.384 325.268 222.836 326.945C220.919 327.365 221.757 330.3 223.615 329.821Z" fill="#E0DCD0"/>
<path d="M237.034 340.186C236.735 334.554 241.707 330.301 244.104 325.568C246.56 320.715 247.818 315.443 249.016 310.171C248.058 310.051 247.039 309.931 246.081 309.752C246.68 314.485 247.399 319.098 249.855 323.291C252.611 327.904 257.224 332.457 256.145 338.328C255.786 340.186 258.662 341.024 259.021 339.107C259.92 334.255 257.943 330.061 255.247 326.047C253.689 323.711 252.012 321.494 250.993 318.858C249.855 315.982 249.436 312.807 249.076 309.752C248.896 308.194 246.56 307.535 246.141 309.332C244.703 315.323 243.265 321.434 239.97 326.766C237.334 331.02 233.739 334.854 234.039 340.186C234.159 342.043 237.154 342.103 237.034 340.186Z" fill="#E0DCD0"/>
<path d="M257.763 340.725C261.657 339.526 263.934 336.531 266.33 333.476C269.445 329.522 273.22 326.526 277.952 324.789C279.75 324.13 278.971 321.194 277.174 321.913C273.16 323.411 269.505 325.627 266.51 328.743C263.514 331.858 261.357 336.591 256.984 337.909C255.127 338.388 255.906 341.264 257.763 340.725Z" fill="#E0DCD0"/>
<path d="M287.298 309.392C287.718 311.609 285.741 313.825 283.584 313.885C281.667 313.945 281.667 316.941 283.584 316.881C287.837 316.761 290.953 312.747 290.174 308.613C289.814 306.696 286.939 307.475 287.298 309.392Z" fill="#E0DCD0"/>
<path d="M291.612 307.774C291.432 309.811 291.552 312.208 293.409 313.526C295.026 314.664 297.183 314.484 298.322 312.807C298.801 312.148 298.441 311.129 297.782 310.77C297.004 310.351 296.225 310.65 295.745 311.309C295.685 311.429 295.026 311.01 294.907 310.83C294.308 310.051 294.547 308.673 294.607 307.774C294.787 305.857 291.791 305.857 291.612 307.774Z" fill="#E0DCD0"/>
<path d="M288.137 320.835C288.916 319.816 289.934 318.678 291.252 318.438C292.391 318.199 293.589 318.738 293.828 319.936C294.188 321.793 297.123 321.015 296.704 319.157C296.285 317.001 294.308 315.563 292.151 315.383C289.635 315.203 287.478 316.821 286.04 318.678C284.842 320.176 286.939 322.333 288.137 320.835Z" fill="#E0DCD0"/>
<path d="M201.628 357.499C203.485 358.817 205.582 360.016 207.918 359.476C210.315 358.937 211.273 356.96 211.753 354.744C212.232 352.886 209.296 352.048 208.877 353.965C208.577 355.283 208.218 356.661 206.6 356.601C205.282 356.541 204.144 355.642 203.126 354.923C201.568 353.785 200.07 356.361 201.628 357.499Z" fill="#E0DCD0"/>
<path d="M212.292 357.919C210.494 358.158 208.937 359.656 208.577 361.453C208.218 363.37 209.116 365.168 210.734 366.246C212.352 367.324 213.849 364.688 212.232 363.67C210.794 362.711 211.633 361.034 213.07 360.854C213.849 360.734 214.329 359.716 214.089 358.997C213.909 358.098 213.07 357.799 212.292 357.919Z" fill="#E0DCD0"/>
<path d="M201.448 364.149C203.964 363.131 204.743 366.965 205.043 368.643C205.402 370.56 208.278 369.721 207.918 367.864C207.559 365.947 207.08 363.97 205.642 362.532C204.324 361.274 202.347 360.615 200.609 361.274C198.872 361.993 199.651 364.868 201.448 364.149Z" fill="#E0DCD0"/>
<path d="M84.6742 365.79L86.191 372.809C86.239 373.034 86.3599 373.206 86.5538 373.327C91.7434 376.605 97.1206 379.527 102.685 382.093C104.056 382.721 106.61 384.024 106.314 385.69C106.084 386.953 105.232 387.408 103.988 387.022C97.7982 385.095 92.8909 382.05 87.4029 378.75C87.1328 378.591 87.0251 378.665 87.0798 378.973L88.6475 388.205C88.6806 388.418 88.7996 388.56 89.0045 388.63C94.7621 390.615 100.439 392.792 106.035 395.163C108.046 396.012 109.834 397.002 111.399 398.133C111.671 398.33 111.87 398.613 111.963 398.936C112.056 399.259 112.038 399.605 111.912 399.916C111.541 400.855 110.884 401.225 109.942 401.027C103.036 399.571 96.539 396.446 90.0837 393.682C89.8715 393.591 89.7809 393.661 89.812 393.892C90.3463 397.965 90.8595 400.79 91.3514 402.368C92.4472 405.859 93.4031 409.995 92.1725 412.439C92.0806 412.623 91.9437 412.78 91.7746 412.896C91.6055 413.012 91.4097 413.084 91.2055 413.104C91.0013 413.124 90.7954 413.092 90.6068 413.011C90.4183 412.93 90.2533 412.803 90.1273 412.641C88.5642 410.63 87.6573 408.328 87.4065 405.737C87.2318 403.974 86.5193 400.145 85.269 394.25C85.2157 393.986 85.1104 393.962 84.9529 394.179C81.2351 399.237 76.8817 403.665 71.8928 407.463C71.7327 407.585 71.5345 407.647 71.3333 407.637C71.1321 407.627 70.941 407.546 70.7939 407.408C70.6468 407.27 70.5532 407.085 70.5297 406.885C70.5062 406.685 70.5544 406.483 70.6657 406.315C71.9614 404.355 73.1954 402.283 74.7265 400.438C77.9258 396.579 81.0879 392.691 84.2129 388.774C84.3695 388.585 84.4249 388.368 84.3789 388.126L82.6476 378.57C82.5475 378.024 82.3319 377.973 82.0007 378.417C78.3943 383.246 74.2405 387.49 69.5391 391.147C69.3461 391.298 69.152 391.39 68.9568 391.425C68.6793 391.476 68.4565 391.471 68.2882 391.409C68.1602 391.36 68.044 391.284 67.9474 391.187C67.8507 391.09 67.7759 390.974 67.7278 390.846C67.6797 390.718 67.6595 390.582 67.6685 390.446C67.6775 390.31 67.7155 390.178 67.7801 390.058C71.2398 383.575 76.4173 378.421 81.3026 373.027C81.4496 372.865 81.511 372.677 81.4866 372.462L80.6895 365.146C80.6654 364.901 80.5725 364.871 80.411 365.057C78.4706 367.377 73.5046 374.748 70.5725 374.896C69.6369 374.942 69.2675 374.507 69.4643 373.592C69.9849 371.17 70.7605 370.446 72.6497 368.093C74.9894 365.175 77.3267 362.256 79.6614 359.334C80.2472 358.602 81.0439 358.482 82.0517 358.973C87.5918 361.653 92.9282 364.685 98.0609 368.068C100.876 369.922 98.3833 373.142 95.7854 371.613C92.2281 369.505 88.6111 367.5 84.9345 365.595C84.7051 365.475 84.6183 365.54 84.6742 365.79Z" fill="#E0DCD0"/>
<path d="M650.729 336.354C648.468 336.914 645.678 336.757 643.796 338.282C641.333 340.303 641.258 343.709 641.202 346.616C640.949 355.289 641.277 364.029 642.619 372.589C643.602 378.556 644.493 388.427 651.75 389.807C655.238 390.496 659.144 390.023 662.7 389.849C667.435 389.594 672.138 389.206 676.875 388.669C686.082 387.661 695.19 386.253 704.298 384.846C710.631 383.914 719.868 384.168 721.034 376.046C721.556 372.741 720.817 369.183 720.293 365.926C719.607 360.873 718.639 355.82 717.537 350.8C716.699 347.126 715.843 343.385 714.822 339.827C713.948 336.868 712.74 334.556 709.919 333.137C706.617 331.484 702.645 331.691 699.023 331.599C693.358 331.519 687.742 331.639 682.109 331.975C671.54 332.615 661.02 334.019 650.729 336.354C648.585 336.814 649.408 340.139 651.552 339.679C666.647 336.225 682.135 334.932 697.62 335.052C700.727 335.059 704.2 334.835 707.188 335.789C710.791 336.944 711.349 340.052 712.155 343.31C713.916 350.426 715.594 357.491 716.69 364.771C717.198 367.962 717.971 371.37 717.714 374.609C717.42 379.41 713.481 380.032 709.525 380.588C702.096 381.65 694.7 382.846 687.254 383.842C679.957 384.872 672.562 385.785 665.184 386.199C661.777 386.407 658.304 386.632 654.898 386.557C653.419 386.571 651.941 386.584 650.68 385.767C648.755 384.549 648.263 381.989 647.736 379.861C645.512 372.014 644.734 363.738 644.553 355.596C644.463 351.808 644.14 347.653 644.697 343.916C645.305 339.814 648.277 340.419 651.552 339.679C653.68 339.152 652.857 335.827 650.729 336.354Z" fill="#E0DCD0"/>
<path d="M690.976 341.283C691.336 343.594 691.712 345.97 692.073 348.281C692.4 350.458 695.725 349.635 695.397 347.458C695.037 345.148 694.661 342.771 694.301 340.46C693.973 338.283 690.649 339.106 690.976 341.283Z" fill="#E0DCD0"/>
<path d="M692.734 342.683C695.759 342.075 698.801 341.534 701.859 341.06C702.607 340.945 703.355 340.831 704.169 340.7C705.366 340.403 705.881 340.77 705.795 341.85C706.424 342.964 706.186 345.14 706.216 346.403C706.261 348.58 709.75 348.704 709.622 346.478C709.512 343.753 709.842 337.672 706.172 337.099C704.195 336.812 701.851 337.604 699.889 337.948C697.246 338.39 694.554 338.916 691.927 339.425C689.75 339.752 690.573 343.077 692.734 342.683Z" fill="#E0DCD0"/>
<path d="M693.497 350.045C698.269 348.511 703.123 347.875 708.089 348.269C710.316 348.423 710.39 345.017 708.164 344.863C702.848 344.485 697.713 345.121 692.608 346.737C690.596 347.447 691.419 350.771 693.497 350.045Z" fill="#E0DCD0"/>
<path d="M674.254 344.434C669.55 345.104 666.042 346.043 663.341 350.24C660.94 353.94 659.865 358.722 660.171 363.093C660.812 372.814 669.82 378.983 679.193 378.074C700.913 376.015 693.241 339.029 672.99 344.747C670.879 345.34 671.702 348.665 673.813 348.072C690.323 343.491 695.864 375.289 677.173 374.763C669.564 374.529 663.429 369.414 663.547 361.622C663.571 358.299 664.477 354.829 666.261 352.058C668.395 348.707 671.47 348.299 675.093 347.825C677.254 347.432 676.365 344.123 674.254 344.434Z" fill="#E0DCD0"/>
<path d="M650.427 337.699C650.165 336.07 649.953 334.358 649.691 332.729C649.291 333.393 648.841 334.14 648.44 334.803C651.815 333.897 655.223 333.125 658.713 332.684C659.744 332.57 663.85 331.483 664.779 332.1C665.642 332.734 665.456 333.979 665.769 334.96C666.362 337.072 669.687 336.249 669.094 334.137C668.649 332.624 668.952 330.997 667.792 329.731C666.648 328.532 665.136 328.695 663.607 328.791C658.19 329.144 652.854 330.112 647.634 331.545C646.703 331.775 646.219 332.671 646.383 333.619C646.645 335.248 646.857 336.96 647.119 338.588C647.43 340.699 650.754 339.876 650.427 337.699Z" fill="#E0DCD0"/>
<path d="M645.115 378.393C652.925 378.013 660.586 377.034 668.249 375.49C670.394 375.03 669.571 371.705 667.426 372.165C660.112 373.693 652.65 374.623 645.189 374.987C643.012 375.032 642.938 378.438 645.115 378.393Z" fill="#E0DCD0"/>
<path d="M689.639 372.948C698.995 372.255 708.35 371.563 717.706 370.87C719.85 370.693 719.991 367.27 717.781 367.464C708.425 368.157 699.069 368.849 689.713 369.542C687.553 369.653 687.428 373.142 689.639 372.948Z" fill="#E0DCD0"/>
<path d="M644.565 357.64C650.715 356.541 656.948 355.775 663.212 355.424C665.373 355.312 665.514 351.89 663.287 352.018C656.74 352.368 650.241 353.2 643.742 354.315C641.582 354.708 642.404 358.033 644.565 357.64Z" fill="#E0DCD0"/>
<path d="M688.651 354.703C697.361 353.111 706.12 352.002 714.927 351.375C717.071 351.197 717.212 347.775 715.002 347.969C705.846 348.612 696.821 349.787 687.829 351.378C685.668 351.771 686.491 355.096 688.651 354.703Z" fill="#E0DCD0"/>
<path d="M375.92 312.745C385.112 314.848 394.412 316.477 403.784 317.248C405.75 317.386 405.571 314.349 403.664 314.225C394.543 313.449 385.494 311.815 376.598 309.78C374.641 309.333 373.963 312.298 375.92 312.745Z" fill="#E0DCD0"/>
<path d="M374.777 310.924C373.317 317.579 372.404 324.297 372.111 331.033C371.948 333.928 371.289 337.897 372.143 340.713C372.84 343.119 375.618 343.255 377.693 343.73C383.861 345.141 390.55 347.545 396.946 347.136C398.847 347.01 401.528 346.749 402.825 345.174C404.54 343.132 404.605 339.028 405.189 336.478C405.623 334.581 402.658 333.902 402.223 335.8C401.749 337.876 401.548 342.573 399.489 343.662C397.503 344.705 393.963 344.082 391.92 343.74C386.989 342.924 382.062 341.547 377.199 340.434C375.361 340.014 375.228 340.046 374.956 338.236C374.772 337.133 374.924 335.92 374.931 334.798C375 332.318 375.068 329.837 375.255 327.383C375.664 322.048 376.502 316.748 377.651 311.456C378.117 309.691 375.152 309.012 374.777 310.924Z" fill="#E0DCD0"/>
<path d="M402.919 315.303C402.54 317.775 402.281 320.274 402.14 322.8C402.109 323.48 402.726 324.058 403.319 324.193C405.928 324.79 408.596 325.401 411.192 326.057C412.971 326.464 415.189 327.408 416.985 327.195C420.254 326.82 419.769 321.03 420.047 318.722C420.303 316.784 417.338 316.105 417.082 318.044C416.921 319.567 416.714 321.017 416.552 322.541C416.328 324.611 416.318 324.11 414.183 323.621C410.803 322.848 407.436 322.015 404.056 321.242C404.449 321.706 404.842 322.17 405.235 322.635C405.368 320.419 405.573 318.156 405.943 315.994C406.199 314.056 403.234 313.378 402.919 315.303Z" fill="#E0DCD0"/>
<path d="M418.226 319.865C429.09 321.477 439.556 324.558 449.632 328.798C451.389 329.574 452.884 326.858 451.054 326.128C440.695 321.761 430.006 318.566 418.845 316.887C416.979 316.585 416.301 319.55 418.226 319.865Z" fill="#E0DCD0"/>
<path d="M403.904 337.183C406.412 337.133 408.77 337.735 410.92 338.975C412.636 339.93 414.059 337.26 412.342 336.305C409.686 334.824 406.794 334.1 403.725 334.146C401.792 334.141 401.957 337.237 403.904 337.183Z" fill="#E0DCD0"/>
<path d="M410.561 337.271C410.1 341.471 408.477 348.838 413.214 351.046C419.471 353.975 426.765 355.644 433.48 357.117C435.555 357.592 437.69 358.081 439.324 356.395C441.276 354.408 442.328 350.904 443.34 348.39C446.127 341.663 448.348 334.683 451.641 328.197C452.536 326.467 449.88 324.986 448.971 326.775C446.813 331.024 445.057 335.428 443.406 339.917C442.453 342.445 441.5 344.973 440.429 347.474C439.471 349.751 438.308 354.29 435.285 354.41C433.133 354.542 430.363 353.284 428.301 352.75C425.6 352.007 422.899 351.264 420.239 350.344C417.921 349.564 414.031 349.111 413.269 346.44C412.571 344.034 413.235 340.316 413.467 337.936C413.769 336.07 410.745 335.378 410.561 337.271Z" fill="#E0DCD0"/>
<path d="M420.608 326.09C419.499 330.392 418.449 334.707 417.34 339.009C416.671 341.664 415.586 344.224 418.307 345.97C421.37 347.857 425.799 348.683 429.252 349.41C432.29 350.043 434.64 350.955 436.381 347.983C438.435 344.459 440.083 340.53 441.69 336.779C442.634 334.561 444.799 331.374 442.469 329.281C440.245 327.275 435.807 326.759 433.001 325.93C429.84 325.019 425.24 323.03 421.922 323.894C420.058 324.404 420.957 327.293 422.821 326.783C424.817 326.241 428.153 327.753 430.156 328.274C432.692 328.917 435.261 329.692 437.757 330.512C438.573 330.761 439.376 331.07 440.134 331.306C440.254 332.144 440.137 332.929 439.65 333.691C439.347 334.745 438.793 335.804 438.311 336.817C437.153 339.423 435.95 341.956 434.687 344.475C432.983 347.83 430.095 346.545 427.097 345.735C425.569 345.323 419.986 344.357 419.632 342.903C419.375 341.846 420.138 340.148 420.428 339.154C420.726 337.849 421.098 336.499 421.396 335.194C422.107 332.361 422.804 329.587 423.514 326.754C424.067 324.884 421.102 324.206 420.608 326.09Z" fill="#E0DCD0"/>
<path d="M378.229 318.204C377.597 322.053 377.454 325.952 377.548 329.905C377.59 332.723 377.364 336.166 379.78 338.154C382.045 339.983 385.89 340.363 388.658 340.809C391.13 341.188 395.19 341.992 397.266 340.283C399.269 338.619 399.111 334.402 399.449 332.107C399.732 330.05 400.015 327.993 400.239 325.923C400.387 324.459 401.053 322.365 400.627 320.957C399.778 318.391 395.369 318.568 393.089 318.171C388.838 317.386 384.573 316.66 380.295 315.993C378.37 315.677 377.691 318.642 379.616 318.958C382.754 319.426 385.819 319.94 388.93 320.527C391.863 321.073 395.643 321.189 398.354 322.434C398.08 321.996 397.805 321.559 397.577 321.195C398.149 324.696 396.808 329.194 396.317 332.701C396.029 334.508 396.16 336.66 394.722 337.766C393.064 339.009 390.126 338.212 388.201 337.897C386.646 337.603 385.031 337.296 383.517 336.825C380.651 335.982 380.62 333.666 380.569 331.158C380.489 327.146 380.468 323.147 381.139 319.119C381.509 316.957 378.544 316.279 378.229 318.204Z" fill="#E0DCD0"/>
<path d="M380.259 325.97C382.867 323.571 385.658 321.464 388.646 319.588C390.322 318.536 388.721 315.986 387.045 317.038C383.839 319.05 380.815 321.354 378.048 323.904C376.555 325.247 378.825 327.327 380.259 325.97Z" fill="#E0DCD0"/>
<path d="M379.895 333.562C382.764 331.66 385.633 329.758 388.515 327.796C389.768 326.959 391.093 326.077 392.345 325.24C392.928 324.874 396.119 322.109 396.74 322.126C396.379 321.794 396.018 321.462 395.598 321.116C395.643 321.189 395.689 321.262 395.721 321.394C396.436 323.18 399.385 322.295 398.611 320.495C398.565 320.422 398.519 320.349 398.487 320.217C398.285 319.734 397.892 319.27 397.345 319.207C394.609 318.893 391.414 322.219 389.214 323.65C385.53 326.115 381.919 328.533 378.235 330.998C376.618 332.064 378.219 334.614 379.895 333.562Z" fill="#E0DCD0"/>
<path d="M385.61 339.675C390.598 336.697 395.324 333.223 399.644 329.344C401.123 328.06 398.853 325.98 397.433 327.278C393.273 331.006 388.792 334.225 384.023 337.065C382.301 338.044 383.948 340.668 385.61 339.675Z" fill="#E0DCD0"/>
<path d="M421.757 333.342C424.864 331.494 428.093 329.924 431.388 328.618C430.798 327.922 430.222 327.166 429.573 326.456C429.46 326.679 429.333 326.962 429.219 327.186C428.324 328.916 431.04 330.411 431.889 328.608C432.003 328.385 432.13 328.102 432.244 327.878C432.811 326.76 431.732 325.202 430.429 325.716C426.857 327.145 423.349 328.839 420.038 330.765C418.435 331.771 420.036 334.321 421.757 333.342Z" fill="#E0DCD0"/>
<path d="M420.124 340.207C423.373 338.829 426.621 337.45 429.824 335.999C431.273 335.394 432.722 334.79 434.125 334.112C435.442 333.54 438.019 331.82 439.451 331.836C438.907 331.212 438.423 330.602 437.879 329.978C437.865 330.038 437.852 330.097 437.852 330.097C438.435 329.731 439.091 329.32 439.673 328.954C439.614 328.94 439.614 328.94 439.555 328.927C437.684 328.374 437.006 331.339 438.876 331.892C438.936 331.905 438.936 331.905 438.995 331.919C439.812 332.168 440.581 331.533 440.817 330.775C440.83 330.716 440.844 330.657 440.844 330.657C441.193 329.676 440.202 328.825 439.272 328.799C437.899 328.797 436.501 329.726 435.317 330.266C433.517 331.04 431.718 331.814 429.918 332.588C426.319 334.136 422.719 335.684 419.12 337.232C417.425 338.092 418.325 340.981 420.124 340.207Z" fill="#E0DCD0"/>
<path d="M421.534 345.772C427.156 342.752 433.5 341.208 439.588 339.418C441.466 338.849 440.567 335.96 438.689 336.529C432.382 338.456 425.773 340.064 419.934 343.222C418.18 344.069 419.767 346.678 421.534 345.772Z" fill="#E0DCD0"/>
<path d="M380.851 313.561C386.833 310.873 392.888 308.139 398.028 303.948C400.263 302.088 402.475 299.786 405.305 298.873C409.351 297.553 412.612 300.483 414.406 303.826C415.312 305.594 417.876 303.934 416.957 302.226C413.794 296.135 407.369 293.667 401.394 297.417C398.188 299.429 395.558 302.198 392.397 304.283C388.448 306.812 384.207 308.712 379.952 310.672C378.152 311.446 379.051 314.335 380.851 313.561Z" fill="#E0DCD0"/>
<path d="M388.969 314.357C392.307 312.313 395.705 310.282 399.057 308.178C400.574 307.277 402.104 306.317 403.621 305.416C404.7 304.789 406.81 304.023 408.038 304.928C408.308 305.115 408.46 306.086 408.643 306.377C411.155 310.946 416.446 306.914 417.556 303.424C418.168 301.567 415.203 300.889 414.591 302.746C414.187 303.964 412.608 305.412 411.161 304.644C410.937 304.531 410.712 303.606 410.648 303.341C410.25 302.626 409.825 302.03 409.122 301.557C407.656 300.597 405.846 300.87 404.265 301.507C401.559 302.697 399 304.608 396.463 306.15C393.416 308.011 390.442 309.827 387.395 311.688C385.706 312.8 387.306 315.35 388.969 314.357Z" fill="#E0DCD0"/>
<path d="M448.23 337.651C453.028 333.319 457.839 328.928 462.637 324.597C464.854 322.545 467.006 320.229 469.465 318.483C474.324 314.976 475.339 321.449 474.981 324.925C474.798 326.817 477.749 327.555 477.946 325.603C478.25 322.365 478.517 318.744 476.105 316.195C473.797 313.733 470.642 313.884 468.037 315.722C464.326 318.306 461.15 321.823 457.832 324.87C453.89 328.462 449.961 331.994 446.019 335.585C444.54 336.869 446.751 338.935 448.23 337.651Z" fill="#E0DCD0"/>
<path d="M474.717 324.989C474.071 325.902 474.03 326.08 473.654 327.18C474.118 326.787 474.583 326.394 475.047 326.001C472.307 326.247 472.672 321.65 469.524 322.865C468.016 323.456 467.002 325.159 465.933 326.287C464.272 328.091 462.552 329.882 460.845 331.613C454.337 338.237 447.482 344.469 440.325 350.383C438.8 351.594 441.07 353.674 442.536 352.449C449.387 346.778 455.997 340.801 462.246 334.492C463.707 333.017 465.167 331.541 466.583 329.993C467.333 329.166 468.144 328.353 468.894 327.526C469.299 327.119 469.645 326.699 470.05 326.293C470.647 325.868 470.569 325.662 469.711 325.591C471.083 327.777 472.163 329.335 475.094 329.069C475.801 328.981 476.278 328.529 476.487 327.89C476.714 327.443 477.014 326.95 477.241 326.503C478.492 324.854 475.822 323.432 474.717 324.989Z" fill="#E0DCD0"/>
<path d="M19.6377 253.896C17.4013 259.562 15.0158 265.227 12.4067 270.744C11.4376 272.906 14.6431 274.769 15.6122 272.607C18.2959 266.793 20.8305 260.829 23.216 254.865C24.1105 252.703 20.5323 251.734 19.6377 253.896Z" fill="#E0DCD0"/>
<path d="M20.3087 255.387C23.0669 261.425 25.7506 267.538 28.2107 273.725C29.1052 273.054 29.9998 272.309 30.9689 271.638C27.838 270.073 24.9306 268.656 22.1724 270.967C21.3524 271.638 21.576 272.085 20.2342 271.787C19.2651 271.563 18.3705 270.743 17.4014 270.445C15.6868 269.849 14.4941 269.923 12.854 270.743C10.6922 271.862 12.6304 275.067 14.7177 273.949C16.5814 272.98 20.0105 276.334 22.5451 275.664C23.5142 275.44 23.8124 274.769 24.5579 274.247C25.1543 273.874 24.7815 273.651 25.527 273.502C26.4215 273.353 28.658 274.62 29.1052 274.844C30.3725 275.514 32.5344 274.396 31.8635 272.756C29.2543 266.271 26.4961 259.86 23.5888 253.523C22.4706 251.361 19.2651 253.225 20.3087 255.387Z" fill="#E0DCD0"/>
<path d="M14.7178 272.458C12.4814 278.422 10.3195 284.46 8.08312 290.424C7.48675 292.138 10.0214 293.704 11.2141 292.213C11.5123 291.84 13.7487 288.486 14.196 288.635C14.8669 288.784 14.9414 290.275 15.2396 290.722C16.0596 291.989 17.7742 292.66 19.116 291.84C19.787 291.467 19.8615 290.573 20.3833 290.2C22.4707 288.635 24.1852 290.796 26.1235 290.946C28.0617 291.095 28.658 290.126 29.7017 288.709C29.1799 289.007 28.658 289.306 28.0617 289.604C28.9562 289.604 31.2672 291.766 32.0127 292.362C33.1309 293.182 34.8454 292.064 34.8454 290.722C34.6963 287.666 33.1309 284.758 32.0872 281.925C30.8199 278.496 29.4781 275.067 28.2108 271.713C27.3907 269.476 23.738 270.445 24.6325 272.682C25.7507 275.663 26.8689 278.571 27.9871 281.553C29.0308 284.311 31.0435 287.815 31.1181 290.722C32.0872 290.2 32.9818 289.678 33.9509 289.082C32.6836 288.113 30.8944 286.249 29.2544 285.876C27.838 285.504 27.6144 286.398 26.4962 286.771C25.378 287.144 27.6889 287.964 25.1543 286.696C24.3343 286.324 23.3652 285.951 22.4706 285.876C21.0543 285.727 19.4888 285.951 18.296 286.92C17.9979 287.144 17.3269 287.74 17.2524 288.187C17.1033 289.38 18.0724 288.262 18.2215 287.666C18.5197 286.473 17.1033 285.056 16.1342 284.684C12.7796 283.342 10.3195 287.516 8.60496 289.604C9.64862 290.2 10.6923 290.796 11.7359 291.393C13.9723 285.429 16.1342 279.391 18.3706 273.427C19.1906 271.191 15.6123 270.222 14.7178 272.458Z" fill="#E0DCD0"/>
<path d="M13.0033 286.696C11.3633 293.406 9.64871 300.115 8.00868 306.824C7.5614 308.613 9.79781 309.955 11.1397 308.613C13.9724 306.004 18.2216 305.78 21.2035 308.24C22.0235 308.911 22.9926 308.986 23.8126 308.24C25.5272 306.75 24.9308 305.333 27.6145 306.377C29.7018 307.197 31.64 308.39 33.6528 309.359C34.9946 310.03 36.9328 308.911 36.411 307.271C34.3237 300.637 32.0127 294.077 29.5527 287.516C28.7327 285.28 25.0799 286.249 25.9745 288.486C28.4345 294.971 30.7455 301.531 32.8328 308.24C33.7273 307.57 34.6219 306.824 35.591 306.153C32.8328 304.737 29.4782 302.277 26.3472 301.829C23.3653 301.382 22.9926 303.917 21.2035 305.557C22.098 305.557 22.9926 305.557 23.8126 305.557C19.2653 301.755 12.8542 301.829 8.45596 305.929C9.49962 306.526 10.5433 307.122 11.5869 307.719C13.227 301.009 14.9415 294.3 16.5816 287.591C17.1779 285.355 13.5997 284.311 13.0033 286.696Z" fill="#E0DCD0"/>
<path d="M16.8052 304.513C16.8052 306.899 16.8052 309.21 16.8052 311.595C16.8052 313.682 16.4324 316.217 16.8797 318.304C17.6252 322.032 21.9489 321.062 24.8562 321.062C25.8253 321.062 26.7944 320.242 26.7199 319.199C26.5708 314.502 26.2726 309.88 25.8253 305.259C25.6017 302.873 21.8744 302.873 22.098 305.259C22.4707 309.88 22.7689 314.577 22.9926 319.199C23.5889 318.602 24.2599 317.931 24.8562 317.335C24.0362 317.335 20.8307 317.857 20.2343 317.335C20.8307 317.857 20.5325 316.888 20.5325 316.515C20.6071 315.621 20.5325 314.726 20.5325 313.831C20.5325 310.775 20.5325 307.644 20.5325 304.588C20.5325 302.128 16.8052 302.128 16.8052 304.513Z" fill="#E0DCD0"/>
<path d="M169.212 105.681C167.147 110.912 164.944 116.144 162.535 121.237C161.64 123.233 164.6 124.954 165.495 122.958C167.973 117.589 170.313 112.083 172.515 106.576C173.341 104.58 170.038 103.685 169.212 105.681Z" fill="#E0DCD0"/>
<path d="M169.831 107.058C172.378 112.633 174.856 118.277 177.127 123.991C177.953 123.371 178.779 122.683 179.674 122.063C176.783 120.618 174.099 119.31 171.552 121.444C170.795 122.063 171.001 122.476 169.762 122.201C168.867 121.994 168.041 121.237 167.147 120.962C165.563 120.411 164.462 120.48 162.948 121.237C160.952 122.27 162.741 125.23 164.669 124.197C166.389 123.302 169.556 126.4 171.896 125.78C172.791 125.574 173.066 124.954 173.754 124.472C174.305 124.128 173.961 123.922 174.649 123.784C175.475 123.646 177.54 124.817 177.953 125.023C179.123 125.643 181.12 124.61 180.5 123.096C178.091 117.107 175.544 111.188 172.86 105.337C171.827 103.341 168.867 105.062 169.831 107.058Z" fill="#E0DCD0"/>
<path d="M164.669 122.82C162.604 128.327 160.608 133.902 158.543 139.409C157.992 140.992 160.332 142.438 161.434 141.061C161.709 140.717 163.774 137.619 164.187 137.757C164.806 137.895 164.875 139.271 165.151 139.684C165.908 140.855 167.491 141.474 168.73 140.717C169.349 140.373 169.418 139.547 169.9 139.203C171.827 137.757 173.41 139.753 175.2 139.891C176.99 140.029 177.54 139.134 178.504 137.826C178.022 138.101 177.54 138.377 176.99 138.652C177.816 138.652 179.95 140.648 180.638 141.199C181.67 141.956 183.253 140.923 183.253 139.684C183.116 136.862 181.67 134.178 180.707 131.562C179.537 128.396 178.298 125.23 177.127 122.132C176.37 120.067 172.997 120.962 173.823 123.027C174.856 125.78 175.888 128.465 176.921 131.218C177.885 133.765 179.743 137 179.812 139.684C180.707 139.203 181.533 138.721 182.427 138.17C181.257 137.275 179.605 135.554 178.091 135.21C176.783 134.866 176.577 135.692 175.544 136.036C174.512 136.38 176.646 137.138 174.305 135.967C173.548 135.623 172.653 135.279 171.827 135.21C170.519 135.073 169.074 135.279 167.973 136.174C167.697 136.38 167.078 136.931 167.009 137.344C166.871 138.445 167.766 137.413 167.904 136.862C168.179 135.761 166.871 134.453 165.976 134.109C162.879 132.87 160.608 136.725 159.024 138.652C159.988 139.203 160.952 139.753 161.915 140.304C163.98 134.797 165.976 129.222 168.041 123.715C168.799 121.65 165.495 120.755 164.669 122.82Z" fill="#E0DCD0"/>
<path d="M163.085 135.967C161.571 142.162 159.988 148.357 158.474 154.552C158.061 156.204 160.126 157.443 161.365 156.204C163.98 153.795 167.904 153.588 170.657 155.86C171.414 156.479 172.309 156.548 173.066 155.86C174.649 154.483 174.099 153.175 176.577 154.139C178.504 154.896 180.294 155.997 182.152 156.892C183.391 157.512 185.181 156.479 184.699 154.965C182.772 148.839 180.638 142.782 178.366 136.724C177.609 134.659 174.236 135.554 175.062 137.619C177.334 143.608 179.468 149.665 181.395 155.86C182.221 155.24 183.047 154.552 183.942 153.932C181.395 152.625 178.297 150.353 175.407 149.94C172.653 149.527 172.309 151.867 170.657 153.382C171.483 153.382 172.309 153.382 173.066 153.382C168.867 149.871 162.948 149.94 158.887 153.726C159.85 154.277 160.814 154.827 161.778 155.378C163.292 149.183 164.875 142.988 166.389 136.793C166.94 134.728 163.636 133.765 163.085 135.967Z" fill="#E0DCD0"/>
<path d="M166.596 152.418C166.596 154.621 166.596 156.755 166.596 158.957C166.596 160.885 166.252 163.225 166.665 165.152C167.353 168.594 171.345 167.699 174.03 167.699C174.925 167.699 175.819 166.942 175.751 165.978C175.613 161.642 175.338 157.374 174.925 153.107C174.718 150.904 171.276 150.904 171.483 153.107C171.827 157.374 172.102 161.711 172.309 165.978C172.86 165.428 173.479 164.808 174.03 164.258C173.273 164.258 170.313 164.739 169.762 164.258C170.313 164.739 170.037 163.845 170.037 163.5C170.106 162.674 170.037 161.848 170.037 161.022C170.037 158.2 170.037 155.309 170.037 152.487C170.037 150.216 166.596 150.216 166.596 152.418Z" fill="#E0DCD0"/>
<path d="M11.0366 120.236C8.97167 125.467 6.76902 130.698 4.35988 135.792C3.46506 137.788 6.42487 139.509 7.31969 137.513C9.79767 132.144 12.138 126.637 14.3406 121.131C15.1666 119.134 11.8626 118.24 11.0366 120.236Z" fill="#E0DCD0"/>
<path d="M11.6562 121.612C14.203 127.188 16.6809 132.832 18.9524 138.545C19.7784 137.926 20.6044 137.237 21.4992 136.618C18.6083 135.172 15.9238 133.864 13.377 135.998C12.6198 136.618 12.8263 137.031 11.5873 136.755C10.6925 136.549 9.86651 135.792 8.97169 135.516C7.38854 134.966 6.28721 135.035 4.7729 135.792C2.77675 136.824 4.5664 139.784 6.49371 138.752C8.21452 137.857 11.3808 140.954 13.7211 140.335C14.616 140.128 14.8913 139.509 15.5796 139.027C16.1303 138.683 15.7861 138.476 16.4744 138.338C17.3004 138.201 19.3654 139.371 19.7784 139.577C20.9486 140.197 22.9447 139.164 22.3252 137.65C19.9161 131.662 17.3692 125.742 14.6848 119.891C13.6523 117.895 10.6925 119.616 11.6562 121.612Z" fill="#E0DCD0"/>
<path d="M6.49386 137.375C4.42888 142.881 2.43274 148.457 0.367767 153.963C-0.182894 155.546 2.15742 156.992 3.25874 155.615C3.53407 155.271 5.59905 152.174 6.01204 152.311C6.63154 152.449 6.70036 153.826 6.97569 154.239C7.73285 155.409 9.31599 156.028 10.555 155.271C11.1745 154.927 11.2433 154.101 11.7251 153.757C13.6524 152.311 15.2356 154.307 17.0252 154.445C18.8149 154.583 19.3655 153.688 20.3292 152.38C19.8474 152.655 19.3655 152.931 18.8149 153.206C19.6409 153.206 21.7747 155.202 22.463 155.753C23.4955 156.51 25.0786 155.478 25.0786 154.239C24.941 151.416 23.4955 148.732 22.5319 146.116C21.3617 142.95 20.1227 139.784 18.9526 136.686C18.1954 134.621 14.8226 135.516 15.6486 137.581C16.6811 140.334 17.7136 143.019 18.7461 145.772C19.7097 148.319 21.5682 151.554 21.637 154.239C22.5318 153.757 23.3578 153.275 24.2527 152.724C23.0825 151.829 21.4305 150.109 19.9162 149.765C18.6084 149.42 18.4019 150.246 17.3694 150.59C16.3369 150.935 18.4707 151.692 16.1304 150.522C15.3733 150.177 14.4784 149.833 13.6524 149.765C12.3446 149.627 10.8992 149.833 9.79783 150.728C9.5225 150.935 8.90299 151.485 8.83416 151.898C8.6965 153 9.59133 151.967 9.729 151.416C10.0043 150.315 8.6965 149.007 7.80167 148.663C4.70421 147.424 2.43275 151.279 0.849603 153.206C1.81326 153.757 2.7769 154.307 3.74056 154.858C5.80553 149.351 7.80167 143.776 9.86665 138.269C10.6238 136.204 7.31985 135.31 6.49386 137.375Z" fill="#E0DCD0"/>
<path d="M4.91068 150.521C3.39637 156.716 1.81321 162.911 0.298894 169.106C-0.114101 170.758 1.95088 171.997 3.18987 170.758C5.80551 168.349 9.72896 168.143 12.4823 170.414C13.2394 171.033 14.1342 171.102 14.8914 170.414C16.4745 169.037 15.9239 167.73 18.4019 168.693C20.3292 169.45 22.1188 170.552 23.9773 171.446C25.2163 172.066 27.0059 171.033 26.5241 169.519C24.5968 163.393 22.463 157.336 20.1915 151.279C19.4343 149.214 16.0615 150.108 16.8875 152.173C19.159 158.162 21.2928 164.219 23.2201 170.414C24.0461 169.795 24.8721 169.106 25.7669 168.487C23.2201 167.179 20.1227 164.907 17.2317 164.494C14.4784 164.081 14.1342 166.422 12.4823 167.936C13.3083 167.936 14.1342 167.936 14.8914 167.936C10.6926 164.426 4.77301 164.494 0.711894 168.28C1.67555 168.831 2.63921 169.381 3.60287 169.932C5.11718 163.737 6.70032 157.542 8.21464 151.347C8.7653 149.282 5.46134 148.319 4.91068 150.521Z" fill="#E0DCD0"/>
<path d="M8.42104 166.973C8.42104 169.175 8.42104 171.309 8.42104 173.512C8.42104 175.439 8.07686 177.78 8.48986 179.707C9.17818 183.148 13.1705 182.254 15.8549 182.254C16.7498 182.254 17.6446 181.496 17.5758 180.533C17.4381 176.196 17.1628 171.929 16.7498 167.661C16.5433 165.459 13.1016 165.459 13.3081 167.661C13.6523 171.929 13.9276 176.265 14.1341 180.533C14.6848 179.982 15.3043 179.363 15.8549 178.812C15.0978 178.812 12.138 179.294 11.5873 178.812C12.138 179.294 11.8627 178.399 11.8627 178.055C11.9315 177.229 11.8627 176.403 11.8627 175.577C11.8627 172.755 11.8627 169.864 11.8627 167.042C11.8627 164.77 8.42104 164.77 8.42104 166.973Z" fill="#E0DCD0"/>
<path d="M262.742 199.001C260.677 204.232 258.475 209.463 256.066 214.557C255.171 216.553 258.131 218.274 259.025 216.278C261.503 210.909 263.844 205.402 266.046 199.896C266.872 197.899 263.568 197.005 262.742 199.001Z" fill="#E0DCD0"/>
<path d="M263.362 200.377C265.909 205.953 268.387 211.597 270.658 217.31C271.484 216.691 272.31 216.002 273.205 215.383C270.314 213.937 267.629 212.63 265.083 214.763C264.326 215.383 264.532 215.796 263.293 215.521C262.398 215.314 261.572 214.557 260.677 214.281C259.094 213.731 257.993 213.8 256.479 214.557C254.482 215.589 256.272 218.549 258.199 217.517C259.92 216.622 263.087 219.719 265.427 219.1C266.322 218.893 266.597 218.274 267.285 217.792C267.836 217.448 267.492 217.241 268.18 217.104C269.006 216.966 271.071 218.136 271.484 218.343C272.654 218.962 274.65 217.93 274.031 216.415C271.622 210.427 269.075 204.507 266.39 198.657C265.358 196.66 262.398 198.381 263.362 200.377Z" fill="#E0DCD0"/>
<path d="M258.2 216.14C256.135 221.646 254.138 227.222 252.073 232.728C251.523 234.312 253.863 235.757 254.964 234.38C255.24 234.036 257.305 230.939 257.718 231.076C258.337 231.214 258.406 232.591 258.681 233.004C259.438 234.174 261.022 234.793 262.261 234.036C262.88 233.692 262.949 232.866 263.431 232.522C265.358 231.076 266.941 233.073 268.731 233.21C270.521 233.348 271.071 232.453 272.035 231.145C271.553 231.421 271.071 231.696 270.521 231.971C271.347 231.971 273.48 233.967 274.169 234.518C275.201 235.275 276.784 234.243 276.784 233.004C276.647 230.182 275.201 227.497 274.237 224.881C273.067 221.715 271.828 218.549 270.658 215.451C269.901 213.386 266.528 214.281 267.354 216.346C268.387 219.1 269.419 221.784 270.452 224.537C271.415 227.084 273.274 230.319 273.343 233.004C274.237 232.522 275.063 232.04 275.958 231.489C274.788 230.595 273.136 228.874 271.622 228.53C270.314 228.185 270.108 229.011 269.075 229.356C268.043 229.7 270.176 230.457 267.836 229.287C267.079 228.943 266.184 228.598 265.358 228.53C264.05 228.392 262.605 228.598 261.503 229.493C261.228 229.7 260.609 230.25 260.54 230.663C260.402 231.765 261.297 230.732 261.435 230.182C261.71 229.08 260.402 227.772 259.507 227.428C256.41 226.189 254.138 230.044 252.555 231.971C253.519 232.522 254.483 233.073 255.446 233.623C257.511 228.117 259.507 222.541 261.572 217.035C262.329 214.97 259.025 214.075 258.2 216.14Z" fill="#E0DCD0"/>
<path d="M256.616 229.287C255.102 235.482 253.519 241.677 252.005 247.872C251.592 249.524 253.657 250.763 254.895 249.524C257.511 247.114 261.435 246.908 264.188 249.179C264.945 249.799 265.84 249.868 266.597 249.179C268.18 247.803 267.63 246.495 270.107 247.459C272.035 248.216 273.824 249.317 275.683 250.212C276.922 250.831 278.712 249.799 278.23 248.285C276.302 242.158 274.169 236.101 271.897 230.044C271.14 227.979 267.767 228.874 268.593 230.939C270.865 236.927 272.998 242.984 274.926 249.179C275.752 248.56 276.578 247.872 277.473 247.252C274.926 245.944 271.828 243.673 268.937 243.26C266.184 242.847 265.84 245.187 264.188 246.701C265.014 246.701 265.84 246.701 266.597 246.701C262.398 243.191 256.479 243.26 252.418 247.046C253.381 247.596 254.345 248.147 255.308 248.698C256.823 242.503 258.406 236.308 259.92 230.113C260.471 228.048 257.167 227.084 256.616 229.287Z" fill="#E0DCD0"/>
<path d="M260.127 245.738C260.127 247.941 260.127 250.074 260.127 252.277C260.127 254.204 259.782 256.545 260.195 258.472C260.884 261.914 264.876 261.019 267.561 261.019C268.455 261.019 269.35 260.262 269.281 259.298C269.144 254.961 268.868 250.694 268.455 246.426C268.249 244.224 264.807 244.224 265.014 246.426C265.358 250.694 265.633 255.03 265.84 259.298C266.39 258.747 267.01 258.128 267.561 257.577C266.803 257.577 263.844 258.059 263.293 257.577C263.844 258.059 263.568 257.164 263.568 256.82C263.637 255.994 263.568 255.168 263.568 254.342C263.568 251.52 263.568 248.629 263.568 245.807C263.568 243.535 260.127 243.535 260.127 245.738Z" fill="#E0DCD0"/>
<path d="M348.357 121.948C346.292 127.179 344.089 132.411 341.68 137.504C340.785 139.5 343.745 141.221 344.64 139.225C347.118 133.856 349.458 128.349 351.661 122.843C352.487 120.847 349.183 119.952 348.357 121.948Z" fill="#E0DCD0"/>
<path d="M348.976 123.324C351.523 128.9 354.001 134.544 356.272 140.257C357.098 139.638 357.924 138.949 358.819 138.33C355.928 136.884 353.244 135.577 350.697 137.71C349.94 138.33 350.146 138.743 348.907 138.468C348.013 138.261 347.187 137.504 346.292 137.229C344.709 136.678 343.607 136.747 342.093 137.504C340.097 138.536 341.886 141.496 343.814 140.464C345.535 139.569 348.701 142.666 351.041 142.047C351.936 141.84 352.211 141.221 352.9 140.739C353.45 140.395 353.106 140.188 353.794 140.051C354.62 139.913 356.685 141.083 357.098 141.29C358.269 141.909 360.265 140.877 359.645 139.362C357.236 133.374 354.689 127.454 352.005 121.604C350.972 119.607 348.013 121.328 348.976 123.324Z" fill="#E0DCD0"/>
<path d="M343.814 139.087C341.749 144.594 339.753 150.169 337.688 155.676C337.137 157.259 339.477 158.704 340.579 157.328C340.854 156.984 342.919 153.886 343.332 154.024C343.952 154.161 344.02 155.538 344.296 155.951C345.053 157.121 346.636 157.741 347.875 156.984C348.495 156.639 348.563 155.813 349.045 155.469C350.972 154.024 352.556 156.02 354.345 156.157C356.135 156.295 356.686 155.4 357.649 154.092C357.167 154.368 356.686 154.643 356.135 154.919C356.961 154.919 359.095 156.915 359.783 157.465C360.816 158.222 362.399 157.19 362.399 155.951C362.261 153.129 360.816 150.444 359.852 147.829C358.682 144.662 357.443 141.496 356.273 138.399C355.515 136.334 352.143 137.229 352.969 139.293C354.001 142.047 355.034 144.731 356.066 147.485C357.03 150.031 358.888 153.267 358.957 155.951C359.852 155.469 360.678 154.987 361.573 154.437C360.403 153.542 358.751 151.821 357.236 151.477C355.928 151.133 355.722 151.959 354.689 152.303C353.657 152.647 355.791 153.404 353.45 152.234C352.693 151.89 351.798 151.546 350.972 151.477C349.665 151.339 348.219 151.546 347.118 152.44C346.843 152.647 346.223 153.198 346.154 153.611C346.017 154.712 346.911 153.679 347.049 153.129C347.324 152.027 346.017 150.72 345.122 150.376C342.024 149.137 339.753 152.991 338.17 154.919C339.133 155.469 340.097 156.02 341.061 156.57C343.126 151.064 345.122 145.488 347.187 139.982C347.944 137.917 344.64 137.022 343.814 139.087Z" fill="#E0DCD0"/>
<path d="M342.231 152.234C340.716 158.429 339.133 164.624 337.619 170.819C337.206 172.471 339.271 173.71 340.51 172.471C343.126 170.061 347.049 169.855 349.802 172.126C350.559 172.746 351.454 172.815 352.211 172.126C353.795 170.75 353.244 169.442 355.722 170.406C357.649 171.163 359.439 172.264 361.297 173.159C362.536 173.778 364.326 172.746 363.844 171.232C361.917 165.105 359.783 159.048 357.512 152.991C356.754 150.926 353.382 151.821 354.208 153.886C356.479 159.874 358.613 165.931 360.54 172.126C361.366 171.507 362.192 170.819 363.087 170.199C360.54 168.891 357.443 166.62 354.552 166.207C351.798 165.794 351.454 168.134 349.802 169.648C350.628 169.648 351.454 169.648 352.211 169.648C348.013 166.138 342.093 166.207 338.032 169.993C338.996 170.543 339.959 171.094 340.923 171.645C342.437 165.45 344.02 159.255 345.535 153.06C346.085 150.995 342.781 150.031 342.231 152.234Z" fill="#E0DCD0"/>
<path d="M345.741 168.685C345.741 170.888 345.741 173.021 345.741 175.224C345.741 177.151 345.397 179.492 345.81 181.419C346.498 184.861 350.491 183.966 353.175 183.966C354.07 183.966 354.965 183.209 354.896 182.245C354.758 177.909 354.483 173.641 354.07 169.373C353.863 167.171 350.422 167.171 350.628 169.373C350.972 173.641 351.248 177.977 351.454 182.245C352.005 181.694 352.624 181.075 353.175 180.524C352.418 180.524 349.458 181.006 348.907 180.524C349.458 181.006 349.183 180.111 349.183 179.767C349.252 178.941 349.183 178.115 349.183 177.289C349.183 174.467 349.183 171.576 349.183 168.754C349.183 166.482 345.741 166.482 345.741 168.685Z" fill="#E0DCD0"/>
<path d="M365.5 488.405C361.896 488.031 357.874 490.14 355.957 493.243C353.728 496.951 354.944 501.905 356.022 505.774C356.874 508.754 357.82 511.699 359.051 514.536C359.842 516.349 360.799 518.316 362.65 519.351C364.566 520.415 366.681 519.997 368.785 519.692C372.163 519.178 375.523 518.616 378.883 518.054C384.916 516.973 390.895 515.75 396.791 514.017C399.771 513.165 402.651 512.189 405.506 511.006C407.668 510.137 409.89 509.139 411.357 507.287C414.351 503.454 412.204 497.606 410.876 493.506C409.477 489.217 407.625 482.717 402.833 481.058C400.396 480.19 397.694 480.774 395.229 481.27C392.047 481.873 388.87 482.636 385.694 483.399C378.311 485.205 370.952 487.218 363.491 488.675C361.933 488.991 362.126 491.516 363.732 491.182C373.26 489.325 382.563 486.58 392.068 484.516C396.263 483.586 401.826 481.545 404.826 485.773C407.504 489.581 408.993 494.973 409.936 499.489C410.372 501.652 410.82 504.135 409.222 505.927C407.671 507.701 404.993 508.493 402.86 509.296C398.452 510.956 393.902 512.237 389.345 513.357C384.373 514.526 379.36 515.44 374.358 516.241C372.112 516.599 369.884 517.005 367.62 517.317C364.526 517.724 362.954 516.855 361.611 514.005C359.631 509.61 357.751 504.473 357.341 499.649C357.161 497.444 357.424 495.126 359.028 493.494C360.555 491.945 362.866 490.75 365.053 490.955C366.707 491.035 367.124 488.551 365.5 488.405Z" fill="#E0DCD0"/>
<path d="M370.994 487.473C370.625 486.638 370.138 485.631 370.166 484.7C370.187 482.744 371.769 482.202 373.345 481.501C375.584 480.549 377.942 479.769 380.289 479.102C382.493 478.489 384.715 477.923 387.021 477.866C388.799 477.846 389.872 477.821 390.846 479.402C391.529 480.498 391.952 481.908 392.511 483.105C393.002 482.541 393.446 481.995 393.919 481.384C393.629 481.331 393.338 481.278 393.048 481.225C391.435 480.966 391.017 483.45 392.63 483.709C392.921 483.762 393.211 483.815 393.502 483.868C394.421 484.009 395.314 483.077 394.91 482.147C393.65 479.375 392.946 476.068 389.572 475.444C386.198 474.821 382.661 475.774 379.426 476.667C376.238 477.543 371.42 478.545 368.981 480.979C366.945 483.045 367.696 485.901 368.683 488.235C369.242 489.864 371.612 488.972 370.994 487.473Z" fill="#E0DCD0"/>
<path d="M373.975 487.054C373.748 486.165 373.551 485.211 373.325 484.322C373.088 484.844 372.822 485.431 372.586 485.953C374.097 485.222 387.087 478.761 387.471 482.513C387.645 484.125 390.152 483.884 389.978 482.272C389.09 474.165 375.011 481.902 371.694 483.584C371.019 483.946 370.782 484.468 370.955 485.215C371.181 486.103 371.378 487.057 371.605 487.946C371.986 489.534 374.338 488.595 373.975 487.054Z" fill="#E0DCD0"/>
<path d="M141.223 247.468C142.617 260.607 144.329 273.738 146.345 286.799C146.668 288.776 149.713 288.082 149.391 286.105C147.374 273.044 145.662 259.913 144.269 246.774C144.068 244.769 141.022 245.463 141.223 247.468Z" fill="#E0DCD0"/>
<path d="M153.388 255.012C149.462 252.126 146.184 248.708 143.309 244.814C142.572 243.829 141.03 244.372 140.69 245.411C139.264 249.837 136.777 253.544 133.392 256.687C131.909 258.051 134.029 260.323 135.512 258.959C139.329 255.462 142.023 251.259 143.657 246.337C142.804 246.531 141.89 246.74 141.037 246.934C144.089 251.044 147.653 254.589 151.756 257.691C153.369 258.861 155.015 256.243 153.388 255.012Z" fill="#E0DCD0"/>
<path d="M153.894 265.662C150.347 262.754 147.387 259.328 144.953 255.397C144.351 254.445 142.886 254.202 142.242 255.31C139.664 259.743 136.67 263.757 133.078 267.396C131.67 268.806 133.803 271.139 135.198 269.668C138.945 265.866 142.202 261.599 144.935 257.003C144.026 256.954 143.132 256.965 142.224 256.916C144.891 261.306 148.252 265.09 152.201 268.355C153.766 269.6 155.398 266.921 153.894 265.662Z" fill="#E0DCD0"/>
<path d="M395.413 407.18C396.806 420.319 398.518 433.45 400.535 446.511C400.857 448.488 403.903 447.794 403.581 445.817C401.564 432.756 399.852 419.625 398.459 406.486C398.258 404.481 395.212 405.175 395.413 407.18Z" fill="#E0DCD0"/>
<path d="M407.578 414.724C403.652 411.838 400.373 408.42 397.499 404.526C396.762 403.541 395.22 404.084 394.88 405.123C393.454 409.549 390.967 413.256 387.582 416.399C386.099 417.762 388.219 420.035 389.702 418.671C393.519 415.174 396.213 410.971 397.846 406.049C396.993 406.243 396.08 406.452 395.227 406.646C398.279 410.756 401.842 414.301 405.946 417.403C407.558 418.573 409.204 415.955 407.578 414.724Z" fill="#E0DCD0"/>
<path d="M408.083 425.374C404.537 422.466 401.577 419.039 399.143 415.109C398.541 414.156 397.076 413.914 396.432 415.022C393.854 419.454 390.86 423.469 387.268 427.108C385.859 428.518 387.993 430.851 389.388 429.38C393.135 425.578 396.391 421.311 399.124 416.715C398.216 416.666 397.322 416.677 396.413 416.628C399.08 421.018 402.442 424.802 406.39 428.067C407.956 429.312 409.588 426.633 408.083 425.374Z" fill="#E0DCD0"/>
<path d="M590.38 473.468C587.517 486.367 584.959 499.36 582.711 512.383C582.387 514.36 585.496 514.672 585.819 512.695C588.067 499.671 590.626 486.679 593.489 473.78C593.937 471.816 590.828 471.504 590.38 473.468Z" fill="#E0DCD0"/>
<path d="M599.51 484.493C596.707 480.507 594.688 476.224 593.203 471.617C592.818 470.448 591.183 470.472 590.53 471.349C587.769 475.09 584.231 477.812 580.022 479.714C578.181 480.534 579.468 483.363 581.308 482.543C586.039 480.443 589.932 477.317 593.048 473.171C592.177 473.084 591.245 472.99 590.374 472.903C591.958 477.771 594.208 482.266 597.11 486.513C598.266 488.136 600.66 486.178 599.51 484.493Z" fill="#E0DCD0"/>
<path d="M521.033 376.724C518.17 389.623 515.611 402.616 513.364 415.639C513.04 417.616 516.148 417.928 516.472 415.951C518.72 402.927 521.278 389.935 524.141 377.036C524.589 375.071 521.481 374.76 521.033 376.724Z" fill="#E0DCD0" stroke="#E0DCD0"/>
<path d="M530.163 387.749C527.36 383.763 525.34 379.479 523.856 374.872C523.471 373.704 521.836 373.728 521.183 374.604C518.421 378.346 514.883 381.068 510.674 382.969C508.834 383.79 510.12 386.619 511.96 385.798C516.692 383.698 520.584 380.572 523.7 376.427C522.83 376.339 521.897 376.246 521.027 376.159C522.611 381.027 524.86 385.522 527.762 389.769C528.918 391.392 531.312 389.434 530.163 387.749Z" fill="#E0DCD0" stroke="#E0DCD0"/>
<path d="M527.25 398.006C524.814 394.12 523.1 389.929 522.044 385.428C521.777 384.334 520.465 383.637 519.502 384.483C515.646 387.863 511.53 390.716 506.966 393.021C505.182 393.91 506.462 396.801 508.253 395.85C513.015 393.439 517.461 390.431 521.515 386.945C520.67 386.609 519.818 386.335 518.973 385.999C520.103 391.01 522.085 395.667 524.788 400.02C525.876 401.698 528.276 399.679 527.25 398.006Z" fill="#E0DCD0" stroke="#E0DCD0"/>
<path d="M524.736 411.873C522.3 407.987 520.585 403.797 519.53 399.296C519.263 398.201 517.951 397.505 516.987 398.35C513.132 401.731 509.016 404.583 504.452 406.889C502.668 407.777 503.947 410.668 505.738 409.718C510.501 407.307 514.947 404.299 519.001 400.812C518.155 400.476 517.304 400.203 516.458 399.867C517.589 404.878 519.57 409.535 522.274 413.887C523.361 415.566 525.761 413.546 524.736 411.873Z" fill="#E0DCD0" stroke="#E0DCD0"/>
</svg>
