<svg width="90" height="90" viewBox="0 0 90 90" fill="none" xmlns="http://www.w3.org/2000/svg">
<circle cx="45" cy="45" r="44" stroke="#E87000" stroke-width="2"/>
<path d="M60.1541 27.3631L60.3225 22.2845L60.8906 21.8502L64.6321 24.3905L67.2719 23.7229L69.9116 23.0554L68.7409 28.0001L70.4778 30.2725L71.7804 31.9769L66.5679 32.8109L63.5265 36.4854L63.0253 36.4185L61.0551 32.0744L57.1127 31.0376L56.2443 29.9014L60.1541 27.3631Z" fill="#E0DCD0"/>
<path d="M59.4185 22.9424L59.3997 22.6203C59.3897 22.4351 59.4258 22.2354 59.4989 22.0503C59.7834 21.3044 60.7734 20.9327 61.4923 21.3877L63.6466 22.8225C64.0055 23.0674 64.3644 23.3123 64.7423 23.5471L64.8522 23.6258L64.8657 23.6235L64.8792 23.6213L65.0285 23.562L65.3618 23.4444C66.1846 23.1073 67.004 22.7916 67.8077 22.4646L68.4049 22.2272L68.5542 22.1679C68.5923 22.1477 68.6518 22.1309 68.7629 22.0918C68.9549 22.0392 69.1726 22.0169 69.3801 22.0586C69.5845 22.0935 69.7783 22.1744 69.9469 22.295C70.1155 22.4156 70.2545 22.573 70.3535 22.7551C70.5676 23.0863 70.5335 23.6316 70.4345 23.8694C70.1802 24.6727 69.9372 25.4602 69.7054 26.232C69.5828 26.619 69.4658 26.9982 69.3487 27.3774L69.2643 27.6612C69.261 27.6825 69.2553 27.6903 69.2576 27.7038C69.28 27.7555 69.2183 27.6757 69.3853 27.8902C69.8584 28.4898 70.3292 29.0759 70.7843 29.6508C71.0107 29.9315 71.2315 30.2201 71.4501 30.4952L71.6205 30.6883C71.69 30.7737 71.7135 30.7905 71.8155 30.9466C71.9892 31.2015 72.045 31.5381 71.9977 31.8366C71.9164 32.4312 71.365 32.9032 70.7782 32.9105C70.4404 32.9181 70.1161 32.9234 69.7997 32.9344C69.1646 32.9428 68.5508 32.9547 67.9717 32.9677C67.6822 32.9741 67.3927 32.9806 67.1167 32.9849L66.7441 32.9913C66.688 32.9868 66.6364 33.0092 66.5926 33.0372C66.5387 33.0461 66.3567 33.3669 66.2196 33.5418C66.0871 33.7437 65.9466 33.9399 65.8118 34.1283L64.43 36.0595C64.3345 36.1929 64.2312 36.3207 64.1469 36.4385C64.0267 36.5899 63.8842 36.6896 63.727 36.7434C63.4184 36.843 63.1424 36.7642 62.9719 36.6541C62.6265 36.4069 62.6727 36.1433 62.7019 36.1523C62.7457 36.1243 62.8196 36.3196 63.0922 36.4197C63.2167 36.4613 63.3985 36.4727 63.5624 36.3763C63.6443 36.3281 63.7106 36.2687 63.7645 36.1767C63.8409 36.0534 63.9151 35.9165 63.9893 35.7797C64.3185 35.22 64.7163 34.5314 65.1849 33.7272C65.304 33.5276 65.4231 33.328 65.5535 33.1126L65.749 32.7896C65.7973 32.7055 65.903 32.5081 66.068 32.377C66.2196 32.248 66.4261 32.1584 66.6416 32.1227L67.0849 32.0838L67.9332 32.0262C68.5078 31.9863 69.1171 31.9475 69.7534 31.9043C70.0676 31.8798 70.3897 31.861 70.7252 31.84C70.8139 31.8322 70.8779 31.7593 70.8914 31.6741C70.8926 31.6393 70.8881 31.6123 70.8623 31.582L70.5608 31.2238C70.3366 30.9566 70.1101 30.6759 69.8702 30.3974L68.4275 28.6648C68.3524 28.5873 68.0307 28.1909 68.0209 27.8397C67.9919 27.6646 68.0089 27.475 68.0629 27.3L68.1473 27.0162C68.2643 26.637 68.3735 26.2522 68.4826 25.8674C68.701 25.0978 68.9361 24.3047 69.1691 23.4981C69.2029 23.368 69.1792 23.4341 69.1882 23.405C69.1939 23.3971 69.186 23.3915 69.186 23.3915C69.1838 23.378 69.1625 23.3747 69.1625 23.3747L69.149 23.3769C69.1546 23.369 69.1142 23.3757 69.057 23.406L68.9077 23.4653L68.3049 23.7106C67.5012 24.0376 66.6896 24.3589 65.859 24.6904L65.547 24.8113L65.3977 24.8706C65.3135 24.9054 65.208 24.9367 65.1002 24.9545C64.8904 24.9824 64.666 24.9643 64.4618 24.9013C64.353 24.8709 64.2554 24.8248 64.1634 24.7709L63.993 24.6608C63.6206 24.4181 63.2618 24.1731 62.9029 23.9282L60.8125 22.5037C60.8024 22.4846 60.7294 22.5036 60.7148 22.5406C60.7092 22.5484 60.7036 22.5563 60.7058 22.5698L60.7123 22.8593L60.7376 23.4708C60.7672 24.2754 60.7946 25.0665 60.8254 25.8363L60.844 26.4075L60.8472 26.5522C60.8483 26.6005 60.8471 26.7183 60.8392 26.7957C60.82 26.9719 60.7637 27.1334 60.6783 27.2859C60.5985 27.4306 60.4896 27.5663 60.3548 27.6717L60.1213 27.8488L59.6789 28.185C59.1018 28.6267 58.5359 29.0526 57.989 29.4684C57.7196 29.6792 57.4479 29.8764 57.184 30.0793C57.1043 30.141 57.0852 30.151 57.074 30.1667L57.0346 30.2217C57.0065 30.2609 57.0076 30.3092 57.0143 30.3496C57.021 30.39 57.0412 30.4282 57.0726 30.4506C57.0883 30.4619 57.104 30.4731 57.1332 30.4821L57.3429 30.5373C57.6402 30.6194 57.9297 30.696 58.2056 30.7747C58.7654 30.9379 59.3017 31.0842 59.8031 31.2294C60.0578 31.3048 60.299 31.3824 60.5379 31.4466C60.6602 31.4748 60.7769 31.5108 60.8936 31.5468C61.0635 31.5801 61.2229 31.6536 61.3587 31.7611C61.4944 31.8685 61.6026 32.0069 61.674 32.1646C61.7457 32.3464 61.7468 32.3947 61.7882 32.5193C61.8565 32.7224 61.9169 32.92 61.9695 33.1119C62.0746 33.4957 62.1731 33.8392 62.2671 34.1557C62.6217 35.4183 62.7726 36.1198 62.6884 36.1545C62.6043 36.1892 62.2749 35.5381 61.771 34.3348C61.6523 34.0362 61.5134 33.6995 61.3622 33.3302C61.2906 33.1483 61.2167 32.953 61.1349 32.7521C61.0386 32.5052 61.0095 32.4131 60.912 32.367C60.8514 32.3356 60.8592 32.3412 60.7156 32.3096C60.5933 32.2815 60.4789 32.259 60.3566 32.2308C60.1121 32.1745 59.8675 32.1182 59.6094 32.0641C59.0855 31.9503 58.5537 31.8309 57.9793 31.7048C57.7 31.6473 57.4049 31.5786 57.1099 31.5099L56.8731 31.4592C56.7508 31.4311 56.6241 31.376 56.5142 31.2974C56.2809 31.1423 56.1038 30.9088 56.0322 30.6439C55.9472 30.3812 55.9485 30.0974 56.0565 29.8304C56.1037 29.698 56.1801 29.5746 56.2722 29.4625C56.3643 29.3504 56.4744 29.2629 56.5238 29.2271C56.7798 29.0186 57.0493 28.8079 57.3109 28.5915C57.842 28.1644 58.3978 27.7194 58.9649 27.2587L59.3916 26.9112L59.5926 26.7464L59.6207 26.7072C59.6184 26.6937 59.6297 26.678 59.6274 26.6645L59.6175 26.4794L59.5854 25.9105C59.5412 25.1429 59.4925 24.3484 59.4494 23.5461L59.4185 22.9424Z" fill="#1C9197"/>
<path d="M51.4318 20.9664C51.2332 20.9786 51.0596 19.2638 50.3992 17.2839C49.7579 15.2939 48.8772 13.8209 49.0389 13.7111C49.1792 13.5979 50.363 14.9791 51.0491 17.0724C51.7408 19.1578 51.6058 20.9721 51.4318 20.9664Z" fill="#1C9197"/>
<path d="M53.7898 17.7872C53.9152 19.4199 53.4765 20.6965 53.3038 20.656C53.1175 20.6177 53.2476 19.3577 53.1131 17.8371C53.0056 16.3121 52.6868 15.0988 52.8686 15.0272C53.0291 14.9521 53.6644 16.1544 53.7898 17.7872Z" fill="#1C9197"/>
<path d="M59.4185 22.9424L59.3997 22.6203C59.3897 22.4351 59.4258 22.2354 59.4989 22.0503C59.7834 21.3044 60.7734 20.9327 61.4923 21.3877L63.6466 22.8225C64.0055 23.0674 64.3644 23.3123 64.7423 23.5471L64.8522 23.6258L64.8657 23.6235L64.8792 23.6213L65.0285 23.562L65.3618 23.4444C66.1846 23.1073 67.004 22.7916 67.8077 22.4646L68.4049 22.2272L68.5542 22.1679C68.5923 22.1477 68.6518 22.1309 68.7629 22.0918C68.9549 22.0392 69.1726 22.0169 69.3801 22.0586C69.5845 22.0935 69.7783 22.1744 69.9469 22.295C70.1155 22.4156 70.2545 22.573 70.3535 22.7551C70.5676 23.0863 70.5335 23.6316 70.4345 23.8694C70.1802 24.6727 69.9372 25.4602 69.7054 26.232C69.5828 26.619 69.4658 26.9982 69.3487 27.3774L69.2643 27.6612C69.261 27.6825 69.2553 27.6903 69.2576 27.7038C69.28 27.7555 69.2183 27.6757 69.3853 27.8902C69.8584 28.4898 70.3292 29.0759 70.7843 29.6508C71.0107 29.9315 71.2315 30.2201 71.4501 30.4952L71.6205 30.6883C71.69 30.7737 71.7135 30.7905 71.8155 30.9466C71.9892 31.2015 72.045 31.5381 71.9977 31.8366C71.9164 32.4312 71.365 32.9032 70.7782 32.9105C70.4404 32.9181 70.1161 32.9234 69.7997 32.9344C69.1646 32.9428 68.5508 32.9547 67.9717 32.9677C67.6822 32.9741 67.3927 32.9806 67.1167 32.9849L66.7441 32.9913C66.688 32.9868 66.6364 33.0092 66.5926 33.0372C66.5387 33.0461 66.3567 33.3669 66.2196 33.5418C66.0871 33.7437 65.9466 33.9399 65.8118 34.1283L64.43 36.0595C64.3345 36.1929 64.2312 36.3207 64.1469 36.4385C64.0267 36.5899 63.8842 36.6896 63.727 36.7434C63.4184 36.843 63.1424 36.7642 62.9719 36.6541C62.6265 36.4069 62.6727 36.1433 62.7019 36.1523C62.7457 36.1243 62.8196 36.3196 63.0922 36.4197C63.2167 36.4613 63.3985 36.4727 63.5624 36.3763C63.6443 36.3281 63.7106 36.2687 63.7645 36.1767C63.8409 36.0534 63.9151 35.9165 63.9893 35.7797C64.3185 35.22 64.7163 34.5314 65.1849 33.7272C65.304 33.5276 65.4231 33.328 65.5535 33.1126L65.749 32.7896C65.7973 32.7055 65.903 32.5081 66.068 32.377C66.2196 32.248 66.4261 32.1584 66.6416 32.1227L67.0849 32.0838L67.9332 32.0262C68.5078 31.9863 69.1171 31.9475 69.7534 31.9043C70.0676 31.8798 70.3897 31.861 70.7252 31.84C70.8139 31.8322 70.8779 31.7593 70.8914 31.6741C70.8926 31.6393 70.8881 31.6123 70.8623 31.582L70.5608 31.2238C70.3366 30.9566 70.1101 30.6759 69.8702 30.3974L68.4275 28.6648C68.3524 28.5873 68.0307 28.1909 68.0209 27.8397C67.9919 27.6646 68.0089 27.475 68.0629 27.3L68.1473 27.0162C68.2643 26.637 68.3735 26.2522 68.4826 25.8674C68.701 25.0978 68.9361 24.3047 69.1691 23.4981C69.2029 23.368 69.1792 23.4341 69.1882 23.405C69.1939 23.3971 69.186 23.3915 69.186 23.3915C69.1838 23.378 69.1625 23.3747 69.1625 23.3747L69.149 23.3769C69.1546 23.369 69.1142 23.3757 69.057 23.406L68.9077 23.4653L68.3049 23.7106C67.5012 24.0376 66.6896 24.3589 65.859 24.6904L65.547 24.8113L65.3977 24.8706C65.3135 24.9054 65.208 24.9367 65.1002 24.9545C64.8904 24.9824 64.666 24.9643 64.4618 24.9013C64.353 24.8709 64.2554 24.8248 64.1634 24.7709L63.993 24.6608C63.6206 24.4181 63.2618 24.1731 62.9029 23.9282L60.8125 22.5037C60.8024 22.4846 60.7294 22.5036 60.7148 22.5406C60.7092 22.5484 60.7036 22.5563 60.7058 22.5698L60.7123 22.8593L60.7376 23.4708C60.7672 24.2754 60.7946 25.0665 60.8254 25.8363L60.844 26.4075L60.8472 26.5522C60.8483 26.6005 60.8471 26.7183 60.8392 26.7957C60.82 26.9719 60.7637 27.1334 60.6783 27.2859C60.5985 27.4306 60.4896 27.5663 60.3548 27.6717L60.1213 27.8488L59.6789 28.185C59.1018 28.6267 58.5359 29.0526 57.989 29.4684C57.7196 29.6792 57.4479 29.8764 57.184 30.0793C57.1043 30.141 57.0852 30.151 57.074 30.1667L57.0346 30.2217C57.0065 30.2609 57.0076 30.3092 57.0143 30.3496C57.021 30.39 57.0412 30.4282 57.0726 30.4506C57.0883 30.4619 57.104 30.4731 57.1332 30.4821L57.3429 30.5373C57.6402 30.6194 57.9297 30.696 58.2056 30.7747C58.7654 30.9379 59.3017 31.0842 59.8031 31.2294C60.0578 31.3048 60.299 31.3824 60.5379 31.4466C60.6602 31.4748 60.7769 31.5108 60.8936 31.5468C61.0635 31.5801 61.2229 31.6536 61.3587 31.7611C61.4944 31.8685 61.6026 32.0069 61.674 32.1646C61.7457 32.3464 61.7468 32.3947 61.7882 32.5193C61.8565 32.7224 61.9169 32.92 61.9695 33.1119C62.0746 33.4957 62.1731 33.8392 62.2671 34.1557C62.6217 35.4183 62.7726 36.1198 62.6884 36.1545C62.6043 36.1892 62.2749 35.5381 61.771 34.3348C61.6523 34.0362 61.5134 33.6995 61.3622 33.3302C61.2906 33.1483 61.2167 32.953 61.1349 32.7521C61.0386 32.5052 61.0095 32.4131 60.912 32.367C60.8514 32.3356 60.8592 32.3412 60.7156 32.3096C60.5933 32.2815 60.4789 32.259 60.3566 32.2308C60.1121 32.1745 59.8675 32.1182 59.6094 32.0641C59.0855 31.9503 58.5537 31.8309 57.9793 31.7048C57.7 31.6473 57.4049 31.5786 57.1099 31.5099L56.8731 31.4592C56.7508 31.4311 56.6241 31.376 56.5142 31.2974C56.2809 31.1423 56.1038 30.9088 56.0322 30.6439C55.9472 30.3812 55.9485 30.0974 56.0565 29.8304C56.1037 29.698 56.1801 29.5746 56.2722 29.4625C56.3643 29.3504 56.4744 29.2629 56.5238 29.2271C56.7798 29.0186 57.0493 28.8079 57.3109 28.5915C57.842 28.1644 58.3978 27.7194 58.9649 27.2587L59.3916 26.9112L59.5926 26.7464L59.6207 26.7072C59.6184 26.6937 59.6297 26.678 59.6274 26.6645L59.6175 26.4794L59.5854 25.9105C59.5412 25.1429 59.4925 24.3484 59.4494 23.5461L59.4185 22.9424Z" stroke="#1C9197" stroke-width="0.7"/>
<path d="M51.4318 20.9664C51.2332 20.9786 51.0596 19.2638 50.3992 17.2839C49.7579 15.2939 48.8772 13.8209 49.0389 13.7111C49.1792 13.5979 50.363 14.9791 51.0491 17.0724C51.7408 19.1578 51.6058 20.9721 51.4318 20.9664Z" stroke="#1C9197" stroke-width="0.7"/>
<path d="M53.7898 17.7872C53.9152 19.4199 53.4765 20.6965 53.3038 20.656C53.1175 20.6177 53.2476 19.3577 53.1131 17.8371C53.0056 16.3121 52.6868 15.0988 52.8686 15.0272C53.0291 14.9521 53.6644 16.1544 53.7898 17.7872Z" stroke="#1C9197" stroke-width="0.7"/>
<path d="M25.509 63.8579L28.8047 60.9672L29.4132 61.0685L30.0221 64.9223L31.9999 66.1898L33.9777 67.4573L30.1748 69.6382L29.7693 72.0722L29.4653 73.8977L25.8647 71.1092L21.7573 71.3631L21.5038 71.0082L23.0753 67.2049L21.4016 64.1119L21.6043 62.8948L25.509 63.8579Z" fill="#E0DCD0"/>
<path d="M27.8573 60.7865L28.0489 60.5846C28.1596 60.4691 28.3066 60.3739 28.4662 60.3107C29.1036 60.0496 29.9217 60.4534 30.0595 61.1744L30.4277 63.3769C30.4853 63.7473 30.5429 64.1176 30.6181 64.4941L30.6334 64.6097L30.6428 64.6168L30.6522 64.624L30.7776 64.6829L31.0483 64.8234C31.7459 65.1423 32.4281 65.4718 33.1082 65.7847L33.6099 66.0204L33.7354 66.0794C33.7706 66.0915 33.8163 66.119 33.9065 66.1659C34.0528 66.2556 34.1953 66.3795 34.2915 66.5347C34.3901 66.684 34.4536 66.8536 34.4771 67.0309C34.5007 67.2082 34.4837 67.3886 34.4275 67.5584C34.3453 67.8885 33.982 68.1888 33.7739 68.2669C33.1184 68.5808 32.4793 68.8925 31.8568 69.202C31.5408 69.3532 31.2331 69.5033 30.9254 69.6534L30.697 69.7677C30.6816 69.7782 30.6733 69.7793 30.6662 69.7886C30.6469 69.8332 30.6607 69.7473 30.6243 69.979C30.526 70.6305 30.4349 71.2727 30.3416 71.8983C30.2985 72.2065 30.2472 72.5157 30.203 72.8156L30.182 73.0369C30.1693 73.1309 30.1726 73.1557 30.1345 73.312C30.0766 73.5717 29.8977 73.8055 29.6819 73.9518C29.2597 74.2515 28.6373 74.1829 28.2864 73.8179C28.0823 73.6098 27.8876 73.4089 27.694 73.2162C27.3139 72.8214 26.9443 72.4421 26.5945 72.0853C26.4195 71.9069 26.2446 71.7285 26.0791 71.5573L25.8552 71.3266C25.825 71.2886 25.7804 71.2694 25.7369 71.2583C25.6995 71.2297 25.3902 71.3044 25.1992 71.3214C24.994 71.357 24.7876 71.3844 24.5895 71.4108L22.5587 71.6805C22.4184 71.6992 22.2769 71.7096 22.1531 71.726C21.9869 71.7397 21.84 71.7088 21.7134 71.6416C21.4686 71.5061 21.3554 71.2859 21.3241 71.1137C21.2758 70.7504 21.469 70.624 21.4806 70.6476C21.5241 70.6587 21.4447 70.8204 21.5426 71.051C21.5899 71.154 21.69 71.2751 21.8473 71.3214C21.926 71.3445 22.0025 71.3512 22.0922 71.3309C22.2149 71.3062 22.3448 71.2721 22.4747 71.238C23.0212 71.115 23.6894 70.9591 24.472 70.7795C24.6679 70.7367 24.8639 70.6938 25.0763 70.6488L25.395 70.5813C25.4764 70.5621 25.663 70.5121 25.8429 70.5386C26.0135 70.5579 26.1918 70.635 26.3414 70.7496L26.6274 71.0056L27.1643 71.5055C27.5284 71.8436 27.9124 72.2042 28.315 72.5792C28.5158 72.7625 28.7177 72.9542 28.9289 73.1529C28.9861 73.2041 29.0697 73.2014 29.1314 73.1596C29.154 73.1398 29.1683 73.1211 29.1722 73.087L29.2197 72.6858C29.2556 72.387 29.2987 72.0789 29.3324 71.7636L29.5716 69.8332C29.576 69.7402 29.6357 69.3039 29.851 69.0904C29.944 68.9689 30.0734 68.8677 30.2154 68.7984L30.4438 68.684C30.7515 68.534 31.0581 68.3756 31.3647 68.2173C31.9779 67.9006 32.6159 67.5806 33.261 67.2513C33.3628 67.1958 33.3072 67.22 33.3309 67.2084C33.3392 67.2073 33.3381 67.1991 33.3381 67.1991C33.3452 67.1897 33.3348 67.1743 33.3348 67.1743L33.3254 67.1671C33.3337 67.166 33.3056 67.1446 33.2528 67.1264L33.1274 67.0674L32.6173 66.8328C31.9373 66.5199 31.2562 66.1987 30.5575 65.8715L30.2972 65.7464L30.1718 65.6875C30.1002 65.655 30.0183 65.6071 29.9435 65.5498C29.8021 65.4342 29.6811 65.2822 29.6003 65.1166C29.5552 65.0301 29.5266 64.9415 29.5063 64.8518L29.475 64.6795C29.4081 64.302 29.3505 63.9316 29.2929 63.5612L28.956 61.405C28.9621 61.3874 28.9071 61.3527 28.8751 61.3653C28.8669 61.3664 28.8586 61.3675 28.8515 61.3769L28.6731 61.5518L28.3031 61.9286C27.8142 62.4219 27.3324 62.906 26.8661 63.3796L26.5176 63.7283L26.4284 63.8158C26.3987 63.8449 26.3238 63.9137 26.2704 63.9544C26.1482 64.0462 26.0133 64.1061 25.8669 64.1424C25.7288 64.1775 25.5791 64.189 25.4333 64.1664L25.184 64.1239L24.7113 64.0439C24.0928 63.9412 23.4908 63.8364 22.9065 63.7376C22.6148 63.6923 22.3303 63.6377 22.0469 63.5913C21.9611 63.5775 21.9435 63.5715 21.927 63.5737L21.8692 63.5813C21.8279 63.5868 21.7982 63.616 21.7767 63.644C21.7552 63.6721 21.7431 63.7073 21.7475 63.7403C21.7497 63.7568 21.7519 63.7733 21.7634 63.797L21.8525 63.9616C21.9762 64.1972 22.0988 64.4245 22.2121 64.6447C22.4397 65.0933 22.664 65.5171 22.8685 65.9184C22.9713 66.1232 23.0648 66.3208 23.1654 66.509C23.2199 66.6026 23.266 66.6973 23.3122 66.792C23.3915 66.9186 23.4393 67.0623 23.4518 67.2112C23.4642 67.36 23.441 67.5097 23.3839 67.6477C23.3117 67.8001 23.282 67.8293 23.228 67.9289C23.1404 68.0917 23.0518 68.2463 22.962 68.3926C22.7825 68.6853 22.6244 68.9499 22.4806 69.1959C21.8952 70.1641 21.5428 70.673 21.4712 70.6405C21.3997 70.608 21.6152 70.0165 22.0752 68.9893C22.1931 68.7384 22.3231 68.4523 22.4663 68.1393C22.5385 67.9869 22.6178 67.8251 22.696 67.6551C22.7946 67.4488 22.8354 67.3762 22.8068 67.2876C22.7909 67.2309 22.792 67.2391 22.7271 67.1301C22.6726 67.0365 22.6193 66.9512 22.5649 66.8576C22.456 66.6705 22.3471 66.4833 22.2289 66.289C21.9914 65.8921 21.7527 65.487 21.4932 65.051C21.3645 64.8413 21.2337 64.6151 21.1028 64.3888L20.995 64.2099C20.9406 64.1163 20.9005 64.0041 20.8851 63.8885C20.845 63.6502 20.8875 63.4009 21.012 63.1996C21.1271 62.991 21.3066 62.8244 21.5383 62.7348C21.6495 62.6864 21.7722 62.6617 21.8972 62.6535C22.0221 62.6453 22.142 62.663 22.1938 62.6729C22.4761 62.711 22.7677 62.7563 23.0582 62.7933C23.6404 62.8756 24.2485 62.9628 24.873 63.0479L25.3435 63.1114L25.5658 63.1407L25.6071 63.1352C25.6143 63.1258 25.6308 63.1236 25.6379 63.1143L25.7486 62.9988L26.0878 62.6429C26.5447 62.1621 27.016 61.6627 27.4956 61.1621L27.8573 60.7865Z" fill="#1C9197" stroke="#1C9197" stroke-width="0.7"/>
<path d="M39.3459 52.2128L36.6274 47.4674L37.2688 45.4837C37.9757 45.0249 39.3962 44.0064 39.4236 43.6028C39.451 43.1993 41.5214 42.5628 42.5531 42.2949L43.9295 44.4155L46.648 49.1611L49.7432 48.3578L47.5634 43.1419L49.684 41.7655L52.9162 38.9442C53.5546 39.4944 54.9185 40.8032 55.2673 41.6378C55.7032 42.6809 57.0111 45.8104 58.892 47.9652C60.7728 50.12 65.2102 51.9416 67.664 53.1218C70.1177 54.302 68.0907 61.7661 67.415 64.2541C66.7393 66.7421 61.9937 69.4606 60.4803 69.3579C58.9669 69.2552 53.6826 72.4439 49.1083 72.6401C44.5339 72.8363 44.6709 70.8185 42.7901 68.6637C40.9092 66.5089 42.5938 64.0893 42.9363 59.0448C43.2788 54.0002 41.1925 54.8721 41.2267 54.3677C41.2541 53.9641 39.9843 52.763 39.3459 52.2128Z" fill="#E0DCD0"/>
<path d="M41.5851 64.4218C41.4067 68.5309 42.9514 71.6921 46.9607 72.6073C47.252 72.7264 47.527 72.837 47.7776 72.9143C50.8954 73.8887 54.6515 73.6049 57.7313 72.6407C62.198 71.2399 66.0761 68.0629 68.3204 63.9503C70.0079 60.8577 70.7045 56.8498 68.7488 53.9227C66.1897 50.0933 60.2042 49.5909 57.9817 45.5513C57.3282 44.3639 57.0851 43.0043 56.6306 41.7327C56.168 40.4569 55.3837 39.1813 54.1111 38.7121C53.3804 38.4392 52.5044 38.5893 51.8682 39.0186C50.3134 39.7005 49.4608 41.6364 48.2945 42.2488C44.7312 36.2422 41.168 30.2356 37.6089 24.2209C37.3544 23.7889 37.3923 23.3935 37.5498 22.9872C37.856 22.2322 37.7636 21.3651 37.2476 20.7361L36.8454 20.2486L37.2207 19.9027C37.3717 20.0324 37.5393 20.15 37.7072 20.2469C38.039 20.4283 38.461 20.3139 38.6506 19.9863L38.6633 19.9617C38.8323 19.6339 38.7136 19.2201 38.39 19.0429C38.0337 18.8488 37.7407 18.5318 37.5679 18.1627C37.4895 17.9971 37.3486 17.8695 37.1762 17.8078C37.0037 17.7462 36.8138 17.7555 36.6482 17.8339C36.4827 17.9122 36.355 18.0531 36.2933 18.2256C36.2317 18.3981 36.2411 18.588 36.3194 18.7535C36.3355 18.7826 36.3477 18.7992 36.3638 18.8283L35.9676 19.1946C35.4432 18.5819 34.9103 17.9857 34.3563 17.4305L34.5401 17.2348C34.6179 17.2852 34.6914 17.3439 34.7733 17.3861C35.1009 17.5757 35.5271 17.4531 35.7167 17.1255L35.7294 17.1009C35.8984 16.7731 35.7755 16.3675 35.4562 16.1821C35.1286 15.9925 34.8475 15.7128 34.666 15.3807C34.4845 15.0486 34.0613 14.9238 33.725 15.1135C33.565 15.2019 33.4463 15.3499 33.3947 15.5253C33.3432 15.7007 33.3629 15.8893 33.4496 16.0503C33.4858 16.1208 33.5305 16.175 33.5792 16.2416L33.3494 16.4861C32.925 16.1222 32.4966 15.7458 31.9045 15.6066C31.4009 15.3158 30.7703 15.2916 30.2265 15.5818C29.3382 16.0575 28.5015 16.6946 27.7917 17.4075C27.0109 18.1979 27.6985 19.9631 27.6982 19.9837C27.8382 20.3359 27.9663 20.6509 28.078 20.9574L27.0026 21.5545L26.8331 21.2596C26.6434 20.9233 26.2241 20.8109 25.8878 21.0006C25.5515 21.1903 25.4391 21.6095 25.6288 21.9459L26.4523 23.3869C26.7227 23.8686 27.4199 23.8441 27.6691 23.3606C27.762 23.1803 27.7648 22.9535 27.6682 22.7585L28.5692 22.2583C28.809 22.8798 29.053 23.4931 29.3663 24.1732C29.3497 24.1854 29.329 24.1851 29.3124 24.1973L28.3513 24.8947C27.7178 24.4334 26.9454 25.2074 27.3747 25.8436L28.1446 26.9458C28.4403 27.3783 29.0884 27.3285 29.3249 26.8696C29.439 26.6483 29.4341 26.3761 29.2759 26.1597L29.1664 26.0099L29.9778 25.4219C30.0018 25.4758 30.0301 25.5215 30.0542 25.5754C30.2114 25.8743 30.5561 26.0105 30.879 25.9072C31.3261 25.7643 32.6461 26.4032 32.9408 26.9181C36.4939 32.7431 38.1043 35.2536 41.5361 41.5555C40.2367 42.2653 39.0719 42.7541 38.0586 43.6736C35.7149 45.8056 35.5309 48.6981 37.5948 51.2142C38.7325 52.589 40.1215 53.3153 40.8961 54.7104C42.8766 58.314 41.7547 60.3497 41.5851 64.4218ZM34.1287 26.2234C33.6565 25.3888 32.1947 24.542 31.0569 24.5156C30.1145 22.6814 29.8028 21.5353 28.9623 19.4631C28.8062 19.0818 28.7353 18.4748 28.7529 18.3802C29.3668 17.7527 30.1034 17.2091 30.8673 16.7938C31.025 16.7091 31.21 16.7526 31.3195 16.9024C32.7477 18.8004 34.3255 20.6094 35.7329 22.1855C35.3591 23.0716 35.1594 24.2238 35.6398 25.0626L47.7608 46.0814C47.1195 46.2591 46.5298 46.5982 46.0374 47.0705C41.2434 37.8571 38.883 33.9642 34.1287 26.2234ZM42.092 54.0405C41.152 52.3424 39.7297 51.6404 38.6531 50.3282C37.0483 48.3704 37.1931 46.3186 38.982 44.6993C39.8411 43.9182 40.8233 43.522 42.1975 42.7677C43.1409 44.5195 44.1203 46.3625 45.1474 48.3544C44.3072 50.2863 45.0833 52.5639 46.9846 53.5439C48.9679 54.5662 51.4022 53.7879 52.4245 51.8046C53.7045 49.3214 52.134 46.2506 49.2593 45.9514C49.2474 45.9141 49.2479 45.8729 49.2236 45.8396L48.0366 43.7755C49.2219 43.6293 50.1128 42.6052 50.8492 41.74C52.0708 40.3159 52.625 39.8443 53.598 40.5326C54.7836 41.3719 54.6023 43.3737 55.0326 44.9336C55.8885 48.1029 58.8469 49.9701 61.4918 51.5201C63.2605 52.5563 64.9308 53.5418 66.1373 55.0246C67.3317 56.4908 67.7734 58.1292 67.4548 59.8943C66.5391 64.9511 59.2903 70.9444 52.0512 71.4452C49.2324 71.6414 46.0732 71.6727 44.2807 69.5559C42.5818 67.5392 42.8995 64.5081 43.1852 62.0621C43.5593 58.8008 43.7097 56.9593 42.092 54.0405Z" fill="#1C9197" stroke="#1C9197" stroke-width="0.4"/>
<path d="M57.4816 56.3821C57.5648 56.3213 57.6277 56.2396 57.6741 56.1494C58.0121 55.4938 57.2284 54.8409 56.6374 55.2831C54.4523 56.9349 51.9587 58.1325 49.3035 58.8053C48.9354 58.8956 48.708 59.2763 48.7983 59.6445C48.8886 60.0126 49.2693 60.2399 49.6375 60.1496C52.4771 59.4291 55.1441 58.1481 57.4816 56.3821ZM33.6405 23.669C33.8137 23.333 33.6787 22.9107 33.3427 22.7375L33.2033 22.6657C32.8673 22.4925 32.4451 22.6275 32.2719 22.9635C32.0987 23.2995 32.2337 23.7218 32.5697 23.895L32.709 23.9668C33.045 24.14 33.4631 24.0132 33.6405 23.669ZM32.2246 21.1031L32.1928 21.0038L31.5264 21.21L30.884 21.4702L31.5582 21.3094L30.8917 21.5156C31.0027 21.884 31.396 22.0868 31.7562 21.9716C32.137 21.8567 32.3398 21.4633 32.2246 21.1031ZM31.1004 19.2997C31.2162 18.9341 31.0231 18.5441 30.6575 18.4283C30.2919 18.3124 29.9101 18.5098 29.7861 18.8711C29.7819 18.8793 29.7645 18.9534 29.7602 18.9616C29.6486 19.3189 29.8629 19.668 30.2285 19.7838C30.5859 19.8954 30.9803 19.6734 31.1004 19.2997ZM27.5512 53.433C27.7451 53.7611 28.1643 53.8735 28.4964 53.692C34.0951 50.4371 33.9935 50.6544 34.1667 50.3184C34.4835 49.7038 33.8068 49.0645 33.2089 49.3994L27.806 52.4959C27.727 52.54 27.6576 52.5994 27.6019 52.6707C27.5462 52.7419 27.5053 52.8236 27.4816 52.9109C27.4579 52.9982 27.4518 53.0893 27.4637 53.1789C27.4757 53.2686 27.5054 53.355 27.5512 53.433ZM33.1889 46.6611C33.2101 46.2778 32.9214 45.9526 32.5381 45.9314L25.1162 45.5392C24.733 45.518 24.4118 45.8192 24.3866 46.1901C24.3654 46.5733 24.6542 46.8985 25.0374 46.9197L32.4593 47.3119C32.8425 47.3331 33.1638 47.0319 33.1889 46.6611ZM33.2979 40.8151L29.762 37.6129C29.6263 37.4893 29.447 37.4247 29.2636 37.4332C29.0802 37.4418 28.9077 37.5229 28.7841 37.6586C28.6605 37.7944 28.5959 37.9736 28.6045 38.157C28.613 38.3404 28.6941 38.5129 28.8299 38.6365L32.3657 41.8387C32.6471 42.0978 33.0845 42.0743 33.3436 41.7929C33.6027 41.5116 33.5835 41.066 33.2979 40.8151Z" fill="#1C9197" stroke="#1C9197" stroke-width="0.4"/>
</svg>
