<svg width="30" height="30" viewBox="0 0 30 30" fill="none" xmlns="http://www.w3.org/2000/svg">
<circle cx="15" cy="15" r="15" transform="matrix(-1 0 0 1 30 0)" fill="#1C9197"/>
<path d="M11.0569 13.92L11.0569 9.60001C11.0569 9.56001 11.0569 9.48001 11.0967 9.44001L11.0967 9.40001C11.0967 9.36001 11.1364 9.32001 11.1364 9.28001C11.1364 9.24001 11.1762 9.20001 11.216 9.20001C11.2557 9.16001 11.2557 9.16001 11.2955 9.12001C11.3353 9.08001 11.3751 9.08001 11.4148 9.04001C11.4546 9.04001 11.4944 9.00001 11.5342 9.00001C11.5342 9.00001 11.5342 9.00001 11.5739 9.00001C11.6137 9.00001 11.6137 9.00001 11.6535 9.00001L11.6932 9.00001C11.6932 9.00001 11.6932 9.00001 11.733 9.00001C11.7728 9.00001 11.8126 9.00001 11.8921 9.00001C11.9319 9.00001 12.0114 9.04001 12.0512 9.08001L17.2217 12.2L20.7217 14.32C20.8012 14.36 20.8807 14.44 20.9603 14.56C20.9603 14.6 21.0001 14.6 21.0001 14.64L21.0001 14.68C21.0001 14.72 21.0001 14.72 21.0001 14.76L21.0001 14.8C21.0001 14.84 21.0001 14.84 21.0001 14.88C21.0001 14.92 21.0001 14.92 21.0001 14.96L21.0001 15C21.0001 15.04 21.0001 15.04 21.0001 15.08L21.0001 15.12C21.0001 15.16 20.9603 15.2 20.9603 15.2C20.9205 15.28 20.841 15.36 20.7217 15.44L17.2217 17.56L12.0512 20.68C12.0114 20.72 11.9319 20.72 11.8921 20.76C11.8523 20.76 11.8126 20.76 11.733 20.76C11.733 20.76 11.733 20.76 11.6932 20.76L11.6535 20.76C11.6137 20.76 11.6137 20.76 11.5739 20.76C11.5739 20.76 11.5739 20.76 11.5342 20.76C11.4944 20.76 11.4546 20.72 11.4148 20.72C11.3751 20.72 11.3353 20.68 11.2955 20.64C11.2557 20.6 11.216 20.6 11.216 20.56C11.1762 20.52 11.1762 20.52 11.1364 20.48C11.0967 20.44 11.0967 20.4 11.0967 20.36L11.0967 20.32C11.0967 20.28 11.0569 20.2 11.0569 20.16L11.0569 15.84L11.0569 13.92ZM19.0512 14.76C19.0512 14.76 19.0512 14.72 19.0114 14.72L12.6478 10.88C12.608 10.88 12.608 10.88 12.5682 10.88C12.5682 10.88 12.5682 10.88 12.5285 10.88C12.4887 10.88 12.4887 10.92 12.4887 10.92L12.4489 10.96L12.4489 18.64C12.4489 18.68 12.4489 18.68 12.4887 18.68L12.5285 18.72C12.5285 18.72 12.5285 18.72 12.5682 18.72C12.608 18.72 12.608 18.72 12.6478 18.72L19.0114 14.88L19.0512 14.84L19.0512 14.8L19.0512 14.76Z" fill="#EEEADE" stroke="#EEEADE"/>
</svg>
