<svg width="90" height="90" viewBox="0 0 90 90" fill="none" xmlns="http://www.w3.org/2000/svg">
<circle cx="45" cy="45" r="44" stroke="#E87000" stroke-width="2"/>
<path d="M61.7739 15.9276C61.6144 15.8846 61.4443 15.9065 61.3009 15.9884C61.1575 16.0704 61.0523 16.2059 61.0084 16.3651C60.7 17.4993 60.6553 18.689 60.8777 19.843C60.9075 19.9974 60.9946 20.1348 61.1216 20.2276C61.2485 20.3204 61.4058 20.3617 61.562 20.3433L61.6079 20.3361C61.6882 20.3205 61.7646 20.2892 61.8328 20.2441C61.9009 20.1989 61.9596 20.1408 62.0053 20.073C62.051 20.0052 62.0829 19.9291 62.0992 19.8489C62.1155 19.7688 62.1158 19.6862 62.1002 19.606C61.914 18.6393 61.9518 17.6429 62.2106 16.6932C62.2539 16.5339 62.2323 16.3639 62.1504 16.2205C62.0686 16.0772 61.9331 15.9713 61.7739 15.9276ZM67.2803 18.1255C67.3789 17.9929 67.4208 17.8265 67.3967 17.663C67.3727 17.4996 67.2846 17.3523 67.152 17.2537C67.0194 17.1551 66.853 17.1133 66.6895 17.1373C66.5261 17.1614 66.3788 17.2494 66.2802 17.3821L63.8266 20.6908C63.7283 20.8234 63.6866 20.9896 63.7108 21.153C63.735 21.3163 63.8231 21.4633 63.9557 21.5617C64.0883 21.66 64.2545 21.7017 64.4178 21.6775C64.5812 21.6533 64.7282 21.5652 64.8266 21.4326L67.2803 18.1255ZM69.4246 23.0743L69.4197 23.0748L65.2959 23.5989C65.132 23.6192 64.9828 23.7037 64.8813 23.8339C64.7797 23.9641 64.734 24.1293 64.7542 24.2932C64.7744 24.4571 64.8589 24.6062 64.9891 24.7078C65.1193 24.8094 65.2846 24.8551 65.4484 24.8349L65.4534 24.8343L69.5771 24.3094C69.741 24.2891 69.8901 24.2046 69.9917 24.0744C70.0933 23.9442 70.139 23.779 70.1188 23.6151C70.0985 23.4512 70.014 23.3021 69.8838 23.2005C69.7536 23.0989 69.5885 23.054 69.4246 23.0743Z" fill="#1C9197" stroke="#1C9197" stroke-width="0.5"/>
<path d="M19.1617 47.5532C20.2338 53.4304 22.3624 59.2346 26.0355 63.6452C31.1051 69.7303 38.4441 72.4969 45.4458 75.0289C46.0663 75.2534 47.1127 75.354 47.79 75.0457L47.8001 75.0464C47.9205 75.032 48.0345 74.9786 48.1275 74.8888C51.6714 71.5006 56.5294 67.7668 59.4721 63.6221C67.2386 52.683 65.9648 43.3861 63.318 29.4381C62.9155 27.3132 62.4984 25.1152 62.1287 22.8518C62.1027 22.6947 62.0307 22.5506 61.9243 22.4428C61.8179 22.3351 61.6834 22.2701 61.5427 22.2584C47.6023 21.0898 33.6609 22.6974 20.3571 27.0076L20.3596 26.9372C19.5365 27.208 18.2843 27.638 18.0961 28.5834C16.8412 34.9024 18.0895 41.675 19.1617 47.5532ZM20.7995 28.3384C33.7859 24.1419 47.3859 22.5468 60.9934 23.6242C61.3427 25.71 61.7264 27.7329 62.0984 29.6937C64.6699 43.2488 65.9845 52.1656 58.4892 62.7217C55.726 66.6119 51.0888 70.2283 47.5585 73.5618C39.6828 70.8536 30.9234 67.2 25.7698 58.5899C20.7466 50.1965 20.7375 38.1501 20.7995 28.3384Z" fill="#1C9197" stroke="#1C9197" stroke-width="0.5"/>
<path d="M41.4684 43.3601C39.6606 43.5108 36.045 43.9024 36.0451 44.264L34.6892 45.1678V46.5237C34.6892 46.8853 35.5931 47.277 36.0451 47.4277L41.4684 46.9757C42.0711 49.0848 43.2765 53.3935 43.2765 53.7551C43.2765 54.1167 44.4817 53.9058 45.0843 53.7551L45.9883 51.9473L45.5363 46.9757L45.9883 46.5237L51.8638 45.1678L52.3157 43.36L50.5079 42.4561L45.0843 42.908L44.6324 39.2923L43.2765 36.5806H41.9206L40.5647 37.4845L41.4684 43.3601Z" fill="#E0DCD0"/>
<path d="M53.2865 35.4002C46.9562 29.7469 36.4805 30.5541 31.7651 37.482C28.4129 42.4064 28.5802 49.3777 32.2953 54.1917C36.6199 59.7946 44.5449 61.1005 50.0914 57.1374C55.0049 54.5838 57.8919 49.5974 57.804 44.8434C57.7397 41.3995 56.0513 37.8696 53.2865 35.4002ZM57.0663 44.8566C57.1998 52.0633 50.3014 58.6518 42.5383 57.9678C38.0879 57.5775 33.929 54.6988 31.9437 50.6326C29.9277 46.5036 30.2709 41.2645 32.7982 37.5945C37.2701 31.101 47.0645 30.8325 52.7948 35.9505C55.4092 38.2852 57.0058 41.615 57.0663 44.8566Z" fill="#1C9197" stroke="#1C9197" stroke-width="0.7"/>
<path d="M50.2169 41.9752L45.3122 42.5607C45.3386 40.8065 45.1307 39.1318 44.6714 37.5833C44.5216 36.4695 43.5025 35.6032 42.2993 35.7468C41.7364 35.8145 41.2234 36.1028 40.8729 36.5484C40.5224 36.994 40.3629 37.5604 40.4296 38.1234L41.0205 43.0731L36.0704 43.664C35.5075 43.7318 34.9945 44.02 34.644 44.4656C34.2935 44.9112 34.1341 45.4776 34.2008 46.0406C34.268 46.5987 34.552 47.108 34.9916 47.4584C35.4311 47.8088 35.9909 47.9723 36.55 47.9135C38.2012 47.9537 39.9615 47.8897 41.5378 47.4018L42.1196 52.2752C42.2594 53.4462 43.3252 54.2847 44.4957 54.1449C45.6662 54.0052 46.5051 52.9388 46.3679 51.8062C46.3406 50.0337 46.1539 48.408 45.8144 46.8461C47.3629 46.7851 49.1717 46.4889 50.7238 46.2214C51.929 46.0775 52.7297 44.986 52.5935 43.8448C52.5258 43.2819 52.2375 42.7689 51.7919 42.4184C51.3463 42.0679 50.7799 41.9085 50.2169 41.9752ZM50.6174 45.4913C46.4 46.2188 45.745 46.078 45.317 46.1291C45.3038 46.1307 45.291 46.1272 45.2776 46.1308C45.2679 46.133 45.2613 46.1397 45.2518 46.1428C44.5548 46.3638 45.5542 47.0328 45.6326 51.8558C45.7241 52.6228 45.1747 53.3206 44.4082 53.4121C43.6417 53.5036 42.9435 52.9548 42.8519 52.1878C42.1341 46.2375 42.2345 46.8167 42.1413 46.692C41.7115 46.1176 41.5631 47.3026 36.5426 47.1751C36.525 47.1747 36.5073 47.1755 36.4898 47.1775C35.7229 47.269 35.025 46.7196 34.9335 45.9531C34.842 45.1866 35.3914 44.4883 36.1579 44.3968L41.4744 43.7621C41.5716 43.7505 41.6602 43.7008 41.7207 43.6239C41.7812 43.5469 41.8087 43.4491 41.7971 43.352L41.1624 38.0359C41.014 36.7926 42.4602 36.0031 43.4179 36.7702C43.9012 37.15 43.918 37.6395 43.9559 37.7658C44.751 40.4248 44.5467 42.7606 44.5777 43.02C44.5796 43.0356 44.588 43.0485 44.5918 43.0629C44.6395 43.2554 44.8257 43.362 44.9874 43.3427L50.3044 42.7079C50.6731 42.6643 51.044 42.7687 51.3357 42.9983C51.6275 43.2278 51.8163 43.5637 51.8607 43.9323C51.8826 44.1165 51.8678 44.3032 51.817 44.4816C51.7662 44.66 51.6805 44.8266 51.5648 44.9716C51.4492 45.1167 51.3059 45.2373 51.1432 45.3265C50.9806 45.4157 50.8018 45.4717 50.6174 45.4913Z" fill="#1C9197" stroke="#1C9197" stroke-width="0.7"/>
<path d="M52.9746 29.1934C53.7849 29.4382 54.5015 29.9238 55.0293 30.5856L55.0285 30.5843C55.1247 30.7142 55.1759 30.8719 55.1745 31.0336C55.173 31.1952 55.1189 31.352 55.0203 31.4801C54.9217 31.6082 54.7841 31.7007 54.6282 31.7436C54.4724 31.7865 54.3068 31.7774 54.1566 31.7177C53.756 31.5659 53.6145 31.1194 53.2269 30.9142C52.4016 30.3325 51.2369 30.5487 50.4411 30.0529C50.3807 29.9991 50.3334 29.9323 50.3027 29.8575C50.2719 29.7828 50.2585 29.702 50.2635 29.6213C50.2685 29.5406 50.2917 29.4621 50.3314 29.3917C50.3711 29.3213 50.4262 29.2608 50.4927 29.2148C51.2987 28.956 52.1643 28.9485 52.9746 29.1934Z" fill="#1C9197"/>
<path d="M55.7342 32.0966C55.8861 32.1227 56.0222 32.2063 56.1143 32.3299C56.1934 32.4623 56.2186 32.6199 56.1847 32.7703C56.1508 32.9208 56.0605 33.0524 55.9323 33.1381C55.8042 33.2238 55.648 33.257 55.496 33.2308C55.3441 33.2046 55.208 33.1211 55.1159 32.9974C55.0369 32.8651 55.0117 32.7074 55.0455 32.557C55.0794 32.4066 55.1697 32.2749 55.2979 32.1893C55.4261 32.1036 55.5823 32.0704 55.7342 32.0966Z" fill="#1C9197"/>
</svg>
