<svg width="427" height="130" viewBox="0 0 427 130" fill="none" xmlns="http://www.w3.org/2000/svg">
<path d="M228.485 43.2592L229.821 49.4419C229.864 49.6397 229.97 49.7917 230.141 49.8978C234.712 52.7852 239.448 55.3589 244.35 57.6189C245.557 58.1727 247.807 59.3199 247.546 60.7871C247.344 61.9001 246.594 62.3004 245.497 61.9606C240.045 60.2637 235.723 57.5816 230.889 54.6747C230.651 54.5345 230.556 54.6001 230.604 54.8714L231.985 63.0026C232.014 63.1904 232.119 63.3152 232.3 63.3771C237.371 65.1251 242.371 67.0431 247.301 69.1311C249.072 69.879 250.647 70.7511 252.025 71.7475C252.265 71.9213 252.44 72.1703 252.522 72.4551C252.604 72.7398 252.588 73.0437 252.477 73.3184C252.15 74.145 251.572 74.4712 250.742 74.2971C244.659 73.0138 238.936 70.2616 233.25 67.8274C233.063 67.7468 232.984 67.8084 233.011 68.0121C233.482 71.5996 233.934 74.0881 234.367 75.4776C235.332 78.5525 236.174 82.1956 235.09 84.3487C235.009 84.5103 234.889 84.6487 234.74 84.7511C234.591 84.8534 234.418 84.9164 234.238 84.9342C234.058 84.9519 233.877 84.9238 233.711 84.8525C233.545 84.7812 233.4 84.669 233.289 84.5264C231.912 82.755 231.113 80.728 230.892 78.4451C230.738 76.8928 230.111 73.5202 229.009 68.3271C228.962 68.0948 228.87 68.074 228.731 68.2648C225.456 72.7197 221.622 76.62 217.227 79.9655C217.086 80.0732 216.912 80.1274 216.734 80.1185C216.557 80.1097 216.389 80.0383 216.259 79.9171C216.13 79.7959 216.047 79.6327 216.027 79.4565C216.006 79.2803 216.048 79.1025 216.146 78.9546C217.288 77.2281 218.375 75.4034 219.723 73.7782C222.541 70.3785 225.327 66.9539 228.079 63.5043C228.217 63.3371 228.266 63.1467 228.225 62.933L226.7 54.5159C226.612 54.0348 226.422 53.9899 226.131 54.3813C222.954 58.6352 219.295 62.3729 215.154 65.5944C214.984 65.7268 214.813 65.8085 214.641 65.8394C214.397 65.884 214.2 65.8791 214.052 65.8247C213.94 65.7816 213.837 65.7151 213.752 65.6296C213.667 65.5441 213.601 65.4417 213.559 65.3291C213.516 65.2165 213.498 65.0963 213.506 64.9766C213.514 64.8568 213.548 64.7403 213.605 64.6347C216.652 58.9249 221.213 54.3851 225.516 49.6335C225.645 49.4908 225.699 49.3251 225.678 49.1363L224.976 42.6922C224.954 42.4759 224.873 42.4498 224.73 42.6137C223.021 44.6571 218.647 51.1498 216.064 51.2799C215.24 51.3203 214.915 50.9375 215.088 50.1316C215.547 47.9981 216.23 47.3604 217.894 45.2878C219.955 42.7177 222.014 40.146 224.07 37.5726C224.586 36.9281 225.288 36.822 226.175 37.2543C231.055 39.615 235.756 42.2855 240.277 45.2658C242.756 46.8987 240.561 49.7352 238.272 48.3878C235.139 46.5318 231.953 44.765 228.715 43.0875C228.513 42.9816 228.436 43.0388 228.485 43.2592Z" fill="#E0DCD0" stroke="#E0DCD0"/>
<path d="M308.696 3.02678C305.336 8.74995 301.82 14.3289 298.08 19.8126C297.055 21.3777 299.322 23.2311 300.347 21.666C304.182 15.9591 307.852 10.1662 311.366 4.2291C312.342 2.59656 309.673 1.39425 308.696 3.02678Z" fill="#E0DCD0"/>
<path d="M309.091 4.28261C311.024 11.2104 312.822 18.2358 314.377 25.2822C315.159 24.8706 315.949 24.4008 316.789 23.9985C315.194 22.7892 313.259 21.466 311.301 21.0334C309.691 20.6567 309.259 21.1242 308.054 21.9451C307.178 22.58 306.871 23.0078 305.571 22.5613C304.668 22.2381 303.819 21.2079 303.003 20.7196C301.429 19.7522 299.945 19.3359 298.217 20.0731C296.489 20.8103 297.543 23.5428 299.271 22.8056C301.115 22.087 302.873 24.5148 304.368 25.2311C305.417 25.7567 306.668 26.1357 307.838 25.9054C309.017 25.6171 309.187 24.9287 310.054 24.352C310.719 23.9218 310.719 23.9218 311.719 24.3799C312.894 24.8659 313.915 25.5659 314.926 26.324C315.831 27.0054 317.598 26.3938 317.338 25.0403C315.703 17.7428 313.875 10.5336 311.873 3.29655C311.347 1.36403 308.605 2.47567 309.091 4.28261Z" fill="#E0DCD0"/>
<path d="M300.31 21.8986C296.961 27.9218 293.564 33.8775 290.215 39.9007C289.536 41.1634 291.317 42.7006 292.434 41.6867C293.406 40.8285 294.855 38.8541 296.052 38.4495C298.052 37.8751 297.31 39.9029 297.801 40.9355C298.734 42.9331 300.341 42.9517 301.882 41.8866C302.547 41.4563 302.334 41.3029 303.299 40.861C304.64 40.3006 305.282 40.761 306.438 41.3633C307.545 41.8982 308.529 42.8307 309.778 42.8516C310.668 42.8749 311.426 41.8633 311.794 41.8028C312.152 41.8005 314.708 44.8329 315.117 45.2562C315.936 46.1027 317.305 45.3678 317.531 44.3306C318.091 41.2005 316.645 37.5703 316.054 34.5541C315.294 30.7356 314.466 26.9659 313.705 23.1473C313.345 21.3009 310.375 21.6009 310.794 23.4567C311.494 26.9078 312.194 30.3588 312.903 33.7518C313.503 36.7099 315.166 40.8517 314.624 43.8656C315.445 43.5795 316.208 43.2842 317.038 42.94C315.801 41.7284 314.373 39.4726 312.752 38.7959C311.238 38.1959 311.117 38.9517 309.91 39.4145C309.273 39.6703 309.496 39.7656 308.582 39.1424C307.61 38.5099 306.58 37.8681 305.436 37.5657C304.233 37.2541 302.927 37.2239 301.759 37.8123C301.499 37.9495 300.499 38.982 300.257 39.0029C300.017 39.382 300.008 39.4402 300.238 39.1192C300.508 38.9239 300.554 38.6332 300.436 38.2565C300.564 37.0844 299.994 35.8006 299.013 35.2262C295.98 33.31 292.58 37.417 290.694 39.1425C291.434 39.7379 292.173 40.3332 292.913 40.9285C296.262 34.9054 299.659 28.9496 303.008 22.9265C303.957 21.4684 301.229 20.2568 300.31 21.8986Z" fill="#E0DCD0"/>
<path d="M296.099 36.6681C293.22 43.4819 290.273 50.3446 287.394 57.1584C286.822 58.4979 288.399 59.8235 289.613 58.9444C293.236 56.4235 298.273 56.991 301.131 60.37C301.678 61.0537 302.443 61.1165 303.166 60.6955C305.259 59.5397 305.082 57.663 307.88 59.1839C310.075 60.3699 312.052 62.1768 314.085 63.6349C315.047 64.3256 316.699 63.6954 316.496 62.3512C315.412 54.963 314.096 47.5376 312.578 40.2586C312.217 38.4122 309.247 38.7122 309.666 40.568C311.233 47.9143 312.559 55.2816 313.585 62.6606C314.366 62.2489 315.157 61.7791 315.996 61.3768C314.236 60.0815 312.466 58.8443 310.706 57.549C309.578 56.7723 308.389 55.6281 307.022 55.2305C304.22 54.484 303.55 57.1793 301.524 58.2862C302.222 58.3978 302.92 58.5095 303.559 58.6118C299.648 53.991 292.885 53.0283 287.913 56.5259C288.653 57.1212 289.392 57.7166 290.132 58.3119C293.011 51.4981 295.957 44.6354 298.836 37.8215C299.522 36.1425 296.852 34.9402 296.099 36.6681Z" fill="#E0DCD0"/>
<path d="M297.097 56.1468C296.669 58.8212 296.232 61.5536 295.804 64.228C295.469 66.321 294.576 68.921 294.841 70.9907C295.25 74.3953 299.836 74.0557 302.404 74.4069C303.159 74.5278 304.018 74.0092 304.09 73.186C304.706 68.2163 305.148 63.2187 305.531 58.2118C305.655 56.3235 302.748 55.8584 302.624 57.7467C302.241 62.7536 301.799 67.7512 301.183 72.7209C301.722 72.3302 302.329 71.8907 302.869 71.5C301.648 71.3046 299.48 71.4349 298.45 70.793C297.313 70.0744 298.134 68.2977 298.348 66.9605C298.906 63.4722 299.455 60.042 300.013 56.5537C300.301 54.7514 297.394 54.2864 297.097 56.1468Z" fill="#E0DCD0"/>
<path d="M340.51 60.4986C338.059 64.6381 335.492 68.759 332.768 72.7356C331.743 74.3007 334.01 76.1542 335.036 74.5891C337.854 70.3891 340.575 66.0543 343.18 61.7009C344.147 60.1265 341.477 58.9242 340.51 60.4986Z" fill="#E0DCD0"/>
<path d="M340.847 61.7451C342.245 66.7985 343.575 71.9007 344.722 77.0332C345.503 76.6215 346.294 76.1517 347.133 75.7494C344.887 74.1378 342.796 72.6705 340.357 74.1286C339.633 74.5495 339.752 74.9263 338.743 74.5263C338.015 74.2309 337.419 73.4798 336.701 73.1263C335.438 72.4472 334.499 72.3566 333.117 72.7914C331.292 73.3938 332.403 76.1356 334.171 75.524C335.745 75.0007 338.001 78.0448 340.061 77.8378C340.845 77.7843 341.161 77.2983 341.808 76.9843C342.319 76.768 342.057 76.5471 342.657 76.5239C343.373 76.5192 344.959 77.7866 345.28 78.0169C346.184 78.6982 348.01 78.0959 347.691 76.7331C346.466 71.3495 345.115 66.0055 343.638 60.7009C343.036 58.8754 340.303 59.9289 340.847 61.7451Z" fill="#E0DCD0"/>
<path d="M334.357 74.3612C331.868 78.7332 329.429 83.1727 326.941 87.5447C326.262 88.8075 328.043 90.3447 329.159 89.3307C329.438 89.0772 331.601 86.74 331.931 86.9121C332.436 87.1121 332.308 88.2842 332.485 88.6703C332.966 89.7609 334.22 90.4981 335.368 90.026C335.938 89.8191 336.108 89.1307 336.561 88.9051C338.385 87.9446 339.452 89.8446 340.945 90.2027C342.438 90.5608 343.024 89.8794 344.015 88.905C343.571 89.0725 343.126 89.24 342.624 89.3981C343.322 89.5097 344.854 91.4841 345.361 92.0422C346.131 92.8212 347.608 92.1631 347.775 91.1166C348.04 88.7144 347.182 86.2516 346.722 83.9121C346.161 81.0796 345.543 78.2378 344.973 75.4635C344.612 73.617 341.643 73.917 342.061 75.7727C342.561 78.2378 343.071 80.6447 343.571 83.1098C344.04 85.3912 345.173 88.3748 344.868 90.6515C345.689 90.3655 346.452 90.0701 347.282 89.7259C346.415 88.812 345.252 87.1353 344.019 86.64C342.961 86.1726 342.675 86.8423 341.757 86.9935C340.838 87.1446 342.538 88.0725 340.72 86.7679C340.126 86.3749 339.417 85.9633 338.729 85.7935C337.643 85.5005 336.394 85.4795 335.343 86.0865C335.082 86.2237 334.485 86.6052 334.371 86.9447C334.106 87.8563 335.001 87.1051 335.192 86.6586C335.573 85.7656 334.645 84.4842 333.936 84.0726C331.487 82.6075 329.048 85.5564 327.45 86.9703C328.19 87.5657 328.929 88.1609 329.669 88.7563C332.157 84.3842 334.596 79.9448 337.085 75.5728C338.003 73.9309 335.333 72.7287 334.357 74.3612Z" fill="#E0DCD0"/>
<path d="M331.243 85.2517C329.127 90.2796 326.952 95.2981 324.836 100.326C324.264 101.665 325.841 102.991 327.055 102.112C329.59 100.431 332.931 100.786 334.95 103.077C335.506 103.703 336.252 103.882 336.985 103.403C338.508 102.454 338.22 101.275 340.182 102.423C341.708 103.323 343.071 104.495 344.52 105.502C345.482 106.193 347.133 105.563 346.931 104.219C346.131 98.7839 345.147 93.3794 344.047 87.9562C343.687 86.1098 340.717 86.4098 341.136 88.2656C342.245 93.6306 343.229 99.0351 344.02 104.528C344.801 104.116 345.592 103.647 346.431 103.244C344.457 101.796 342.147 99.4583 339.761 98.7188C337.492 97.9979 336.885 99.9281 335.285 100.984C335.982 101.096 336.68 101.207 337.32 101.309C334.248 97.777 329.238 97.0352 325.297 99.684C326.036 100.279 326.776 100.875 327.515 101.47C329.631 96.4422 331.806 91.4237 333.922 86.3958C334.666 84.7261 332.006 83.4657 331.243 85.2517Z" fill="#E0DCD0"/>
<path d="M331.985 99.6212C331.687 101.482 331.399 103.284 331.101 105.144C330.841 106.772 330.234 108.702 330.322 110.386C330.438 113.386 333.931 113.17 336.199 113.532C336.955 113.653 337.813 113.135 337.885 112.312C338.355 108.63 338.699 104.988 338.927 101.328C339.05 99.4397 336.143 98.9746 336.02 100.863C335.734 104.514 335.38 108.214 334.978 111.846C335.517 111.456 336.124 111.016 336.664 110.626C336.024 110.523 333.459 110.53 333.059 110.049C333.459 110.53 333.348 109.737 333.394 109.447C333.564 108.758 333.617 108.051 333.729 107.354C334.11 104.97 334.501 102.528 334.882 100.144C335.189 98.2258 332.283 97.7607 331.985 99.6212Z" fill="#E0DCD0"/>
<path d="M22.7393 41.4371C12.7235 36.9776 -0.216572 43.7766 0.00275092 55.4007C0.0758587 60.7376 2.92707 66.0744 7.45975 68.9987C13.6739 73.0197 21.2771 71.2652 27.9299 69.4375C30.1963 68.8526 29.2459 65.2703 26.9795 65.9283C21.7889 67.3173 15.7209 69.145 10.5303 66.5862C6.72867 64.6854 4.24301 60.6645 3.80436 56.5704C2.70774 47.5051 12.8697 40.9985 20.9847 44.5808C23.0317 45.5312 24.8594 42.3875 22.7393 41.4371Z" fill="#E0DCD0"/>
<path d="M23.0318 44.9463C25.5174 38.1472 32.4627 32.3717 39.481 30.6902C46.3531 29.0819 54.1757 32.2255 56.0765 39.4632C56.6613 41.7295 60.1705 40.7791 59.5856 38.5127C57.4655 30.3247 48.985 25.7189 40.8701 26.7424C31.5854 27.9852 22.7393 35.2229 19.5226 43.9227C18.7184 46.1891 22.2276 47.1395 23.0318 44.9463Z" fill="#E0DCD0"/>
<path d="M58.7814 41.1446C63.972 38.2934 72.1601 39.0977 74.8651 44.9463C78.0818 51.8915 69.9669 60.372 63.314 55.1814C61.4864 53.7192 58.8545 56.278 60.7553 57.7402C65.3611 61.3955 69.6013 61.3955 74.3533 57.9594C78.0087 55.2544 79.9095 51.4528 79.1784 46.9202C77.6432 36.612 65.1417 33.4684 56.8806 38.0011C54.9067 39.0977 56.7344 42.3144 58.7814 41.1446Z" fill="#E0DCD0"/>
<path d="M24.9325 66.8055C29.3921 75.1398 39.4078 77.1868 47.9614 74.6281C56.1495 72.2155 66.677 66.1475 64.9224 56.2048C64.5569 53.8654 60.9746 54.8889 61.4133 57.1553C62.8023 65.124 51.9824 69.876 45.7682 71.4113C39.0423 73.0928 31.5122 71.4113 28.0761 64.9047C26.9795 62.8577 23.8359 64.6853 24.9325 66.8055Z" fill="#E0DCD0"/>
<path d="M83.9305 17.1654C77.7895 15.5571 70.1132 17.7503 68.9435 24.8417C67.9931 30.7635 73.9148 35.4424 79.3248 32.9567C81.4449 32.0063 79.6172 28.8626 77.4971 29.813C73.6955 31.4945 71.5753 26.5963 73.1106 23.7451C75.0114 20.1628 79.3979 19.7972 82.907 20.7476C85.2465 21.2594 86.1969 17.7503 83.9305 17.1654Z" fill="#E0DCD0"/>
<path d="M84.8079 21.1863C84.7347 10.9512 103.085 11.463 103.523 21.9174C103.597 24.2568 107.252 24.2568 107.179 21.9174C106.886 14.899 101.111 9.92766 94.1657 10.0008C87.8784 10.0739 81.1525 14.3142 81.1525 21.1863C81.1525 23.5257 84.8079 23.5257 84.8079 21.1863Z" fill="#E0DCD0"/>
<path d="M105.205 23.7451C108.422 19.7973 116.463 22.5023 116.463 27.766C116.463 32.518 108.641 32.7373 105.717 30.9827C103.67 29.7399 101.842 32.9566 103.889 34.1264C109.372 37.4162 120.996 35.2961 120.192 27.108C119.461 19.2124 107.837 14.826 102.646 21.1863C101.111 22.9409 103.67 25.5728 105.205 23.7451Z" fill="#E0DCD0"/>
<path d="M76.6198 29.4474C74.8652 37.2699 83.4919 40.1943 89.633 40.9254C96.5051 41.8027 103.597 39.3901 106.155 32.518C106.959 30.3247 103.45 29.3743 102.646 31.5675C101.038 35.954 96.2858 37.7086 91.8993 37.4892C88.2439 37.343 78.8861 36.0271 80.129 30.3978C80.6407 28.1315 77.1315 27.1811 76.6198 29.4474Z" fill="#E0DCD0"/>
<path d="M164.463 73.8821C163.645 78.736 162.71 83.6149 161.572 88.4135C161.168 90.285 164.015 91.2208 164.419 89.3492C165.565 84.3024 166.569 79.1628 167.454 74.0481C167.799 72.1891 164.808 72.0231 164.463 73.8821Z" fill="#E0DCD0"/>
<path d="M165.243 74.9481C168.437 79.259 171.583 83.6414 174.566 88.1202C175.16 87.4398 175.743 86.7004 176.396 86.0075C173.658 85.295 171.123 84.6629 169.33 86.9524C168.794 87.6203 169.046 87.9364 167.935 87.9257C167.131 87.9114 166.287 87.4132 165.47 87.34C164.015 87.156 163.085 87.415 161.926 88.3383C160.404 89.5848 162.474 91.7939 163.937 90.5599C165.247 89.4812 168.521 91.558 170.412 90.6026C171.141 90.2633 171.264 89.6829 171.766 89.1453C172.175 88.7506 171.842 88.6364 172.407 88.3935C173.089 88.1256 175.069 88.7524 175.46 88.8542C176.575 89.1721 178.096 87.9255 177.291 86.7415C174.141 82.052 170.885 77.4464 167.524 72.9247C166.277 71.4032 164.056 73.4141 165.243 74.9481Z" fill="#E0DCD0"/>
<path d="M163.687 89.3812C162.919 94.4709 162.222 99.6069 161.455 104.697C161.271 106.152 163.537 106.965 164.23 105.586C164.403 105.241 165.608 102.214 165.987 102.257C166.542 102.262 166.851 103.429 167.162 103.732C168.023 104.596 169.491 104.839 170.414 103.966C170.882 103.559 170.791 102.839 171.141 102.457C172.528 100.869 174.246 102.291 175.804 102.084C177.361 101.876 177.67 101.01 178.257 99.7156C177.895 100.039 177.532 100.362 177.111 100.698C177.818 100.548 180.007 101.869 180.697 102.216C181.718 102.676 182.886 101.505 182.661 100.444C182.031 98.053 180.306 96.0171 179.006 93.9527C177.429 91.4543 175.793 88.9685 174.228 86.5291C173.205 84.8987 170.48 86.2773 171.562 87.8953C172.946 90.065 174.318 92.1759 175.702 94.3456C176.989 96.3511 179.168 98.7834 179.715 101.069C180.393 100.494 181.013 99.9316 181.679 99.2976C180.515 98.744 178.788 97.5708 177.429 97.5512C176.246 97.4941 176.22 98.2387 175.398 98.7209C174.577 99.2031 176.541 99.4638 174.325 98.887C173.614 98.7299 172.786 98.5978 172.066 98.6889C170.921 98.8085 169.721 99.2478 168.941 100.214C168.742 100.441 168.312 101.025 168.328 101.391C168.41 102.359 168.989 101.312 169.007 100.816C169.042 99.8229 167.685 98.9407 166.857 98.8085C163.98 98.3103 162.735 102.023 161.73 103.961C162.655 104.257 163.58 104.554 164.505 104.85C165.273 99.7604 165.969 94.6244 166.737 89.5347C167.01 87.6292 164.019 87.4633 163.687 89.3812Z" fill="#E0DCD0"/>
<path d="M164.719 100.925C164.548 106.504 164.317 112.095 164.146 117.674C164.092 119.164 166.085 119.849 166.921 118.563C168.723 116.026 172.045 115.136 174.815 116.581C175.575 116.974 176.354 116.87 176.877 116.144C177.983 114.677 177.274 113.658 179.57 114.033C181.358 114.331 183.09 114.949 184.844 115.377C186.017 115.683 187.362 114.474 186.674 113.265C183.911 108.37 180.984 103.571 177.939 98.7977C176.916 97.1672 174.191 98.546 175.273 100.164C178.306 104.878 181.233 109.677 184.008 114.631C184.603 113.95 185.185 113.211 185.838 112.518C183.42 111.861 180.356 110.479 177.806 110.65C175.373 110.797 175.504 112.863 174.364 114.459C175.072 114.309 175.779 114.159 176.427 114.022C172.195 111.779 167.139 112.913 164.35 116.892C165.275 117.188 166.2 117.485 167.125 117.781C167.296 112.202 167.526 106.611 167.698 101.032C167.794 99.1639 164.79 98.939 164.719 100.925Z" fill="#E0DCD0"/>
<path d="M170.712 114.372C171.112 116.258 171.5 118.085 171.9 119.971C172.25 121.621 172.38 123.687 173.084 125.262C174.298 128.084 177.554 126.592 179.852 126.105C180.618 125.942 181.247 125.132 181.013 124.319C180.108 120.631 179.097 117.028 177.968 113.449C177.391 111.6 174.445 112.225 175.022 114.074C176.091 117.665 177.115 121.328 178.067 124.944C178.438 124.373 178.856 123.73 179.227 123.158C178.579 123.296 176.132 124.246 175.573 123.933C176.132 124.246 175.734 123.53 175.672 123.235C175.581 122.515 175.372 121.821 175.222 121.114C174.709 118.697 174.184 116.222 173.671 113.806C173.259 111.861 170.312 112.486 170.712 114.372Z" fill="#E0DCD0"/>
<path d="M412.709 70.5948C408.986 87.3681 405.659 104.263 402.736 121.198C402.315 123.768 406.357 124.174 406.778 121.603C409.701 104.668 413.027 87.7733 416.75 71.0001C417.333 68.4457 413.291 68.0405 412.709 70.5948Z" fill="#E0DCD0"/>
<path d="M424.58 84.931C420.936 79.7482 418.31 74.1777 416.379 68.1869C415.879 66.667 413.753 66.6988 412.903 67.8384C409.313 72.704 404.712 76.2436 399.239 78.7159C396.846 79.7824 398.518 83.461 400.911 82.3945C407.064 79.6638 412.125 75.5988 416.177 70.2079C415.045 70.0944 413.833 69.9728 412.701 69.8594C414.761 76.1896 417.685 82.0351 421.459 87.5574C422.962 89.6677 426.075 87.1221 424.58 84.931Z" fill="#E0DCD0"/>
<path d="M420.794 98.2684C417.626 93.2151 415.396 87.766 414.023 81.9128C413.676 80.49 411.971 79.5841 410.717 80.6832C405.704 85.0796 400.352 88.7887 394.417 91.7863C392.097 92.9417 393.761 96.7012 396.09 95.465C402.283 92.33 408.064 88.4189 413.336 83.8851C412.236 83.4483 411.129 83.0923 410.03 82.6555C411.499 89.1716 414.077 95.2271 417.592 100.887C419.006 103.07 422.127 100.443 420.794 98.2684Z" fill="#E0DCD0"/>
<path d="M417.524 116.301C414.356 111.248 412.126 105.799 410.754 99.9455C410.406 98.5227 408.701 97.6168 407.448 98.7159C402.434 103.112 397.082 106.821 391.147 109.819C388.827 110.974 390.491 114.734 392.82 113.498C399.013 110.363 404.794 106.452 410.066 101.918C408.967 101.481 407.859 101.125 406.76 100.688C408.23 107.204 410.807 113.26 414.322 118.92C415.736 121.103 418.857 118.476 417.524 116.301Z" fill="#E0DCD0"/>
</svg>
