<svg width="90" height="90" viewBox="0 0 90 90" fill="none" xmlns="http://www.w3.org/2000/svg">
<circle cx="45" cy="45" r="44" stroke="#E87000" stroke-width="2"/>
<circle cx="58.6516" cy="58.6516" r="7.07865" fill="#E0DCD0"/>
<path d="M61.3807 14.9962C59.1499 14.1715 56.7332 13.8965 54.2236 14.538C47.0664 16.4624 40.374 27.1838 38.7939 34.3314C38.0503 35.5226 34.7971 49.7262 34.2394 52.1088V52.2004C33.031 53.6666 32.5663 54.0331 31.172 55.6826C30.4284 55.9575 29.313 56.5989 28.1047 57.2404C26.5245 58.1567 26.5245 58.0651 26.4316 58.2484C23.6431 61.9138 20.111 65.7625 17.3225 69.5196C17.2295 69.7029 17.1366 69.8861 17.2295 70.0694C17.5084 71.0774 18.252 71.9938 19.1815 72.5436C20.111 73.3683 21.3193 73.9181 22.5277 73.46C23.5501 73.0934 24.2937 72.177 24.8514 71.2607C27.0822 68.0534 30.5214 65.2127 31.8227 61.5473C32.2874 60.2644 32.1015 58.5233 32.9381 57.332C33.6817 56.1407 34.983 54.2164 36.3772 53.4833C38.9798 52.2004 44.2779 51.8339 50.6915 49.0848C56.5473 46.519 61.4736 43.4033 65.9352 38.9132C68.9096 35.8892 71.6052 32.2237 71.7911 28.0085C71.977 22.6936 68.259 17.1954 61.3807 14.9962ZM62.4961 24.0681C61.0089 25.626 59.5217 27.2754 58.1275 28.9249C56.1755 28.1918 54.1306 27.4587 52.1787 26.634C53.387 24.9845 54.6883 23.4267 55.9896 21.8689L62.4961 24.0681ZM57.198 30.1161C55.8037 31.8572 54.4095 33.6899 53.1082 35.6143L47.7171 33.6899C48.8325 31.6739 50.1338 29.7496 51.4351 27.9169C53.2941 28.6499 55.246 29.383 57.198 30.1161ZM52.2716 36.7139C50.8774 38.7299 49.669 40.7459 48.3677 42.8535C48.1818 43.3117 48.4607 43.8615 49.0184 43.8615C49.762 43.8615 49.2972 43.4033 53.6659 37.1721C61.1948 39.8295 60.823 39.7379 61.1019 39.7379C61.8455 39.7379 62.0313 38.6383 61.3807 38.3634L54.5954 35.8892C55.8967 34.0565 57.2909 32.2237 58.7781 30.391C61.7525 31.399 64.6339 32.407 67.7013 33.3234C67.0506 34.2397 66.307 35.1561 65.6564 35.8892C62.2172 39.7379 58.7781 42.3953 55.0601 43.9532C50.7844 45.7859 47.0664 46.1524 43.9991 45.0528C43.4414 44.8695 42.9766 44.503 42.5119 44.1364C42.9766 43.7699 43.4414 41.2957 47.1594 34.7896L52.2716 36.7139ZM47.81 20.586C50.1338 18.0202 52.2716 16.554 54.5954 15.9125C62.3102 13.8965 71.3263 22.2354 69.3744 29.6579C69.1885 30.2994 68.8167 31.3074 68.259 32.3154C65.3775 31.4907 62.4031 30.4827 59.5217 29.4747C60.916 27.8252 62.4031 26.1758 63.9833 24.618C65.9352 25.2594 65.9352 25.2594 66.1211 25.2594C66.8647 25.2594 67.0506 24.1598 66.307 23.8849L65.0057 23.4267C65.2846 23.1518 65.5634 22.7852 65.9352 22.5103C66.2141 22.2354 66.2141 21.7772 65.9352 21.5023C65.6564 21.2274 65.1916 21.2274 64.9128 21.5023L63.5185 22.8769L56.9191 20.6776C57.5698 20.0362 58.2204 19.4863 58.964 19.0282C59.3358 18.9365 59.5217 18.57 59.3358 18.2034C59.1499 17.8369 58.7781 17.7453 58.4063 17.9285C57.2909 18.4783 56.3614 19.3947 55.6178 20.3111L53.2011 19.4863C52.8293 19.3947 52.4575 19.578 52.2716 19.9445C52.1787 20.3111 52.3646 20.6776 52.7364 20.8609L54.5954 21.5023C53.2941 23.0601 52.0857 24.618 50.8774 26.1758C49.4831 25.5343 47.9959 24.9845 46.6017 24.3431C46.2299 24.1598 45.8581 24.3431 45.6722 24.7096C45.4863 25.0761 45.6722 25.4427 46.044 25.626C47.3453 26.2674 48.7395 26.8172 50.1338 27.367C48.8325 29.2914 47.5312 31.2158 46.4158 33.2317L42.9766 31.9488C42.6048 31.8572 42.233 32.0405 42.0471 32.3154C41.9542 32.6819 42.1401 33.0485 42.4189 33.2317L45.5792 34.3314C43.9991 37.1721 42.6048 40.1044 41.3035 43.0368C40.374 41.5706 39.9093 39.8295 39.7234 38.6383C39.5375 36.7139 39.9093 34.6063 40.8388 31.9488C42.4189 27.7336 44.7427 23.8849 47.81 20.586ZM38.608 39.8295C39.0727 42.3037 40.6529 45.511 43.3484 46.4273C45.2074 47.0688 47.0664 47.2521 49.0184 47.0688C44.8356 48.9015 40.467 50.0928 36.0054 51.284C31.5438 52.4753 36.0054 51.284 35.9125 51.284C36.8419 47.3437 37.5856 43.9532 38.608 39.8295ZM30.5214 57.4236C30.3355 58.34 29.9637 59.7146 29.6848 60.5393H29.5919C28.8483 60.356 28.1047 59.8062 27.7329 59.0731C28.7553 58.4316 29.6848 57.7902 30.5214 57.4236ZM26.7104 59.9895C27.2681 60.7225 28.1047 61.364 28.9412 61.6389C26.8963 64.1131 23.736 68.0534 21.1334 71.6272C20.111 71.6272 18.9026 70.9858 18.5308 69.9778C21.1334 66.7705 24.0149 63.38 26.7104 59.9895ZM60.823 51.1008C57.4768 50.551 53.7588 52.2004 52.3646 54.7662C52.2716 54.9495 52.1787 55.2244 52.0857 55.4077C49.2043 60.5393 52.5505 66.7705 59.6147 66.3123C61.4737 66.2207 63.2397 65.6709 65.0057 65.1211C65.5634 64.9378 66.2141 64.5713 66.307 64.0214C66.307 63.5633 65.8423 63.0134 64.8198 63.0134C68.6308 57.9735 65.0057 51.8339 60.823 51.1008ZM53.387 61.4556C56.2685 60.2644 59.9865 61.364 61.8455 63.8382C58.8711 65.4876 54.8742 64.388 53.387 61.4556ZM62.9608 63.0134C62.8679 62.9218 62.8679 62.8302 62.682 62.6469C60.3583 59.8978 56.2685 58.7982 52.9223 60.0811C52.5505 58.5233 52.8293 56.7822 53.6659 55.316C54.0377 54.5829 54.7813 53.9415 55.5249 53.3917C57.105 56.7822 61.2878 57.9735 64.448 56.0491C64.541 56.0491 64.541 55.9575 64.6339 55.8658C65.6564 58.6149 64.7269 61.364 62.9608 63.0134ZM60.6371 52.4753C62.0314 52.6586 63.1467 53.6666 63.9833 54.9495C63.8903 54.9495 63.7974 54.9495 63.7044 55.0411C61.2878 56.5073 58.0345 55.5909 56.7332 52.9335C57.9416 52.4753 59.3358 52.292 60.6371 52.4753ZM63.9833 47.6186C64.2621 47.6186 64.541 47.4353 64.6339 47.2521L65.9352 44.4113C66.1211 44.0448 65.9352 43.6782 65.5634 43.495C65.1916 43.3117 64.8198 43.495 64.6339 43.8615L63.3326 46.7022C63.1467 47.0688 63.3326 47.4353 63.7044 47.6186H63.9833ZM67.0506 50.0011L70.025 47.6186C70.3039 47.3437 70.3968 46.9771 70.118 46.6106C69.8391 46.3357 69.4673 46.2441 69.0955 46.519L66.1211 48.9015C65.8423 49.1764 65.7493 49.543 66.0282 49.9095C66.1211 50.0928 66.4 50.1844 66.5859 50.1844C66.7718 50.1844 66.8647 50.0928 67.0506 50.0011ZM71.1404 52.5669L68.259 52.4753C67.8872 52.3837 67.5154 52.7502 67.5154 53.1168C67.5154 53.4833 67.7942 53.8498 68.166 53.8498L71.0475 53.9415C71.4193 53.9415 71.6981 53.6666 71.6981 53.3C71.7911 52.8419 71.5122 52.5669 71.1404 52.5669Z" fill="#1C9197"/>
<path d="M47.937 12.3797C48.5543 11.8005 49.3332 11.4227 50.1702 11.2967L50.1687 11.2968C50.3293 11.2784 50.4915 11.3129 50.6307 11.395C50.77 11.4771 50.8787 11.6024 50.9403 11.7518C51.002 11.9012 51.0133 12.0667 50.9724 12.2231C50.9316 12.3795 50.8409 12.5183 50.7141 12.6186C50.3824 12.8895 49.925 12.7888 49.5534 13.0218C48.637 13.4456 48.2417 14.5623 47.4144 15.0036C47.3376 15.0289 47.2561 15.0364 47.176 15.0257C47.0958 15.0149 47.0192 14.9862 46.9518 14.9415C46.8844 14.8968 46.8281 14.8375 46.7869 14.7679C46.7458 14.6983 46.721 14.6203 46.7144 14.5397C46.8934 13.7123 47.3198 12.959 47.937 12.3797Z" fill="#1C9197"/>
<path d="M51.8312 11.4419C51.9298 11.3234 52.0702 11.2473 52.2233 11.2294C52.3775 11.2271 52.5266 11.2842 52.64 11.3887C52.7533 11.4933 52.8221 11.6373 52.8322 11.7912C52.8423 11.945 52.7929 12.0969 52.6943 12.2153C52.5956 12.3338 52.4552 12.4099 52.3021 12.4278C52.148 12.4301 51.9988 12.373 51.8855 12.2685C51.7722 12.164 51.7034 12.0199 51.6933 11.866C51.6832 11.7122 51.7325 11.5604 51.8312 11.4419Z" fill="#1C9197"/>
</svg>
