<svg width="30" height="30" viewBox="0 0 30 30" fill="none" xmlns="http://www.w3.org/2000/svg">
<path fill-rule="evenodd" clip-rule="evenodd" d="M15 30C23.2842 30 30 23.2842 30 15C30 6.7158 23.2842 0 15 0C6.7158 0 0 6.7158 0 15C0 23.2842 6.7158 30 15 30ZM20.37 9.7878C21.5214 9.8916 22.17 10.5963 22.3122 11.7192C22.4118 12.5028 22.5 13.6248 22.5 14.8317C22.5 16.9509 22.3122 18.1761 22.3122 18.1761C22.1358 19.2945 21.5952 19.9017 20.4582 20.0301C19.1877 20.1741 16.3302 20.2401 15.0606 20.2401C13.7466 20.2401 11.0895 20.1849 9.7626 20.0745C8.6226 19.9794 7.8444 19.3425 7.6878 18.2091C7.5738 17.3835 7.5 16.4025 7.5 14.8425C7.5 13.1061 7.5627 12.3711 7.71 11.5866C7.9197 10.467 8.454 9.9246 9.6744 9.7986C10.9548 9.6663 12.165 9.6 14.8731 9.6C16.197 9.6 19.0515 9.6684 20.37 9.7878ZM13.4052 12.7161V17.0283L17.511 14.85L13.4052 12.7161Z" fill="#1C9197"/>
</svg>
